<?xml version="1.0" encoding="utf-8"?>
<!-- Generator: Adobe Illustrator 20.1.0, SVG Export Plug-In . SVG Version: 6.00 Build 0)  -->
<svg version="1.1" id="Capa_1" xmlns="http://www.w3.org/2000/svg" xmlns:xlink="http://www.w3.org/1999/xlink" x="0px" y="0px"
	 viewBox="0 0 179.6 34.7" style="enable-background:new 0 0 179.6 34.7;" xml:space="preserve">
<style type="text/css">
	.st0{fill:#00A1C4;}
	.st1{fill:#58595B;}
</style>
<title>logo colores</title>
<path class="st0" d="M44.8,27.1c-1,0-2-0.2-3-0.5c-0.9-0.4-1.7-0.9-2.4-1.6c-0.7-0.7-1.2-1.5-1.6-2.4c-0.4-1-0.6-2.1-0.6-3.1v-0.1
	c0-1,0.2-2,0.5-3c0.3-0.9,0.8-1.7,1.5-2.5c0.6-0.7,1.4-1.3,2.3-1.7c0.9-0.4,1.9-0.6,2.9-0.6c1.1,0,2.2,0.2,3.2,0.7
	c0.8,0.4,1.6,1,2.2,1.7c0.6,0.8,1,1.7,1.3,2.6c0.3,1,0.4,2,0.4,3c0,0.2,0,0.3,0,0.5s0,0.4,0,0.6H41.3c0.1,0.9,0.6,1.7,1.2,2.3
	c0.7,0.5,1.5,0.8,2.3,0.7c0.6,0,1.3-0.1,1.8-0.4c0.6-0.3,1.2-0.7,1.7-1.2l2.4,2.1c-0.7,0.8-1.5,1.5-2.5,2
	C47.2,26.9,46,27.1,44.8,27.1 M47.4,18.1c-0.1-0.8-0.4-1.6-1-2.3c-0.5-0.6-1.3-0.9-2.1-0.9c-0.8,0-1.6,0.3-2.1,0.9
	c-0.5,0.7-0.9,1.5-1,2.3L47.4,18.1L47.4,18.1z"/>
<path class="st0" d="M63,27.1c-1,0-2.1-0.2-3-0.6c-0.9-0.4-1.7-0.9-2.4-1.6c-0.7-0.7-1.2-1.5-1.6-2.4c-0.4-1-0.6-2-0.6-3v0
	c0-1,0.2-2,0.6-3c0.4-0.9,0.9-1.8,1.6-2.5c0.7-0.7,1.5-1.3,2.4-1.7c1-0.4,2-0.6,3.1-0.6c2.2-0.1,4.4,0.8,5.8,2.5l-2.5,2.8
	c-0.4-0.5-0.9-0.9-1.4-1.2c-0.6-0.3-1.2-0.5-1.9-0.4c-0.5,0-1,0.1-1.4,0.3c-0.4,0.2-0.8,0.5-1.1,0.9c-0.3,0.4-0.6,0.8-0.7,1.3
	c-0.2,0.5-0.3,1-0.3,1.6v0c0,0.5,0.1,1.1,0.3,1.6c0.2,0.5,0.4,0.9,0.8,1.3c0.3,0.4,0.7,0.7,1.2,0.9c0.5,0.2,1,0.3,1.5,0.3
	c0.6,0,1.2-0.1,1.8-0.4c0.6-0.3,1.1-0.7,1.5-1.1l2.5,2.5c-0.7,0.8-1.5,1.5-2.4,2C65.5,26.9,64.3,27.2,63,27.1"/>
<path class="st0" d="M80.4,27.1c-1.1,0-2.1-0.2-3.1-0.6c-2.9-1.2-4.7-4-4.7-7.1v-0.1c0-1,0.2-2.1,0.6-3c0.4-0.9,0.9-1.7,1.7-2.4
	c1.5-1.5,3.5-2.3,5.7-2.3c1.1,0,2.1,0.2,3.1,0.6c0.9,0.4,1.8,0.9,2.5,1.6c0.7,0.7,1.3,1.5,1.7,2.4c0.4,0.9,0.6,2,0.6,3v0
	c0,1-0.2,2.1-0.6,3c-0.8,1.9-2.3,3.3-4.2,4.1C82.6,26.9,81.5,27.1,80.4,27.1 M80.5,23.4c0.5,0,1.1-0.1,1.6-0.3
	c0.5-0.2,0.9-0.5,1.2-0.9c0.3-0.4,0.6-0.8,0.8-1.2c0.2-0.5,0.3-1,0.3-1.6v-0.1c0-0.5-0.1-1.1-0.3-1.6c-0.2-0.5-0.4-0.9-0.8-1.3
	c-0.3-0.4-0.8-0.7-1.2-0.9c-0.5-0.2-1-0.3-1.6-0.3c-0.5,0-1.1,0.1-1.6,0.3c-0.4,0.2-0.9,0.5-1.2,0.9c-0.3,0.4-0.6,0.8-0.8,1.3
	c-0.2,0.5-0.3,1-0.2,1.6v0c0,0.5,0.1,1.1,0.3,1.6c0.2,0.5,0.4,0.9,0.8,1.3c0.3,0.4,0.8,0.7,1.2,0.9C79.4,23.3,80,23.4,80.5,23.4"/>
<path class="st1" d="M92.9,11.9h4.1V14c0.2-0.3,0.5-0.6,0.8-0.9c0.3-0.3,0.6-0.5,0.9-0.8c2-1.2,4.5-0.9,6.2,0.7
	c0.9,1.1,1.4,2.6,1.3,4.1v9.6h-4.1v-8.3c0.1-0.8-0.2-1.6-0.7-2.3c-0.5-0.5-1.1-0.8-1.8-0.8c-0.7,0-1.4,0.2-1.9,0.8
	c-0.5,0.6-0.8,1.4-0.7,2.3v8.3h-4.1V11.9z"/>
<path class="st1" d="M116.4,27c-0.8,0-1.7-0.2-2.5-0.5c-0.8-0.3-1.5-0.9-2.1-1.5c-0.6-0.7-1.1-1.5-1.5-2.4c-0.4-1.1-0.6-2.2-0.6-3.3
	v0c0-1.1,0.2-2.2,0.6-3.3c0.3-0.9,0.8-1.7,1.5-2.4c0.6-0.6,1.3-1.2,2.1-1.5c0.8-0.3,1.6-0.5,2.5-0.5c1,0,1.9,0.2,2.7,0.7
	c0.7,0.4,1.3,0.9,1.8,1.6V6.5h4.1v20.2h-4.1v-2.1c-0.5,0.7-1.1,1.3-1.8,1.7C118.2,26.8,117.3,27,116.4,27 M117.4,23.4
	c0.5,0,0.9-0.1,1.4-0.3c0.4-0.2,0.8-0.5,1.1-0.8c0.3-0.4,0.6-0.8,0.8-1.3c0.2-0.5,0.3-1.1,0.3-1.7v0c0-0.6-0.1-1.1-0.3-1.7
	c-0.2-0.5-0.4-0.9-0.8-1.3c-0.3-0.4-0.7-0.6-1.1-0.8c-0.9-0.4-1.9-0.4-2.7,0c-0.4,0.2-0.8,0.5-1.1,0.8c-0.3,0.4-0.6,0.8-0.8,1.3
	c-0.2,0.5-0.3,1.1-0.3,1.7v0c0,0.6,0.1,1.1,0.3,1.7c0.2,0.5,0.4,0.9,0.8,1.3c0.3,0.4,0.7,0.6,1.1,0.8
	C116.5,23.3,116.9,23.4,117.4,23.4"/>
<path class="st1" d="M135.2,27c-1.4,0.1-2.7-0.5-3.7-1.5c-0.9-1.1-1.4-2.6-1.3-4.1v-9.6h4.1v8.3c-0.1,0.8,0.2,1.6,0.6,2.3
	c0.5,0.5,1.1,0.8,1.9,0.8c0.7,0,1.4-0.2,1.9-0.8c0.5-0.6,0.8-1.4,0.7-2.3v-8.3h4.1v14.9h-4.1v-2.1c-0.2,0.3-0.5,0.6-0.8,0.9
	c-0.3,0.3-0.6,0.5-0.9,0.8c-0.4,0.2-0.7,0.4-1.1,0.5C136.1,27,135.6,27,135.2,27"/>
<path class="st1" d="M155.8,27.1c-1,0-2.1-0.2-3-0.6c-0.9-0.4-1.7-0.9-2.4-1.6c-0.7-0.7-1.2-1.5-1.6-2.4c-0.4-1-0.6-2-0.6-3v0
	c0-1,0.2-2,0.6-3c0.4-0.9,0.9-1.8,1.6-2.5c0.7-0.7,1.5-1.3,2.4-1.7c1-0.4,2-0.6,3.1-0.6c1.2,0,2.4,0.2,3.4,0.7
	c0.9,0.4,1.7,1.1,2.4,1.8l-2.5,2.8c-0.4-0.5-0.9-0.9-1.4-1.2c-0.6-0.3-1.2-0.5-1.9-0.4c-0.5,0-1,0.1-1.4,0.3
	c-0.4,0.2-0.8,0.5-1.1,0.9c-0.3,0.4-0.6,0.8-0.7,1.3c-0.2,0.5-0.3,1-0.3,1.6v0c0,0.5,0.1,1.1,0.3,1.6c0.2,0.5,0.4,0.9,0.8,1.3
	c0.7,0.8,1.7,1.2,2.7,1.2c0.6,0,1.3-0.1,1.8-0.4c0.6-0.3,1.1-0.7,1.5-1.1l2.4,2.5c-0.7,0.8-1.5,1.5-2.4,2
	C158.2,26.9,157,27.2,155.8,27.1"/>
<path class="st1" d="M172.9,27.1c-1,0-2-0.2-3-0.5c-0.9-0.4-1.7-0.9-2.4-1.6c-0.7-0.7-1.2-1.5-1.6-2.4c-0.4-1-0.6-2.1-0.6-3.1v-0.1
	c0-1,0.2-2,0.5-3c0.3-0.9,0.8-1.7,1.5-2.5c0.6-0.7,1.4-1.3,2.3-1.7c0.9-0.4,1.9-0.6,2.9-0.6c1.1,0,2.2,0.2,3.1,0.7
	c0.9,0.4,1.6,1,2.2,1.7c0.6,0.8,1,1.6,1.3,2.6c0.3,1,0.4,2,0.4,3c0,0.2,0,0.3,0,0.5s0,0.4,0,0.6h-10.2c0.1,0.9,0.5,1.7,1.2,2.3
	c0.7,0.5,1.5,0.8,2.3,0.7c0.6,0,1.3-0.1,1.8-0.4c0.6-0.3,1.2-0.7,1.7-1.2l2.4,2.1c-0.7,0.8-1.5,1.5-2.5,2
	C175.3,26.9,174.1,27.1,172.9,27.1 M175.6,18.1c-0.1-0.8-0.4-1.6-1-2.3c-0.5-0.6-1.3-0.9-2.1-0.9c-0.8,0-1.6,0.3-2.1,0.9
	c-0.6,0.7-0.9,1.5-1,2.3H175.6L175.6,18.1z"/>
<path class="st0" d="M26.8,27.4c-0.3-0.1-0.5-0.4-0.4-0.7v-0.1c0-0.3,0.1-0.6,0.4-0.7h5c0.3,0.1,0.5,0.4,0.4,0.7v0.1
	c0.1,0.3-0.1,0.6-0.4,0.7L26.8,27.4L26.8,27.4z"/>
<path class="st0" d="M26.8,33c-0.3-0.1-0.5-0.4-0.4-0.7v0c-0.1-0.3,0.1-0.6,0.4-0.7h5c0.3,0.1,0.5,0.4,0.4,0.7v0.1
	c0.1,0.3-0.1,0.6-0.4,0.7L26.8,33L26.8,33z"/>
<path class="st0" d="M12.1,16c0-2,1.7-3.5,3.6-3.5s3.5,1.7,3.5,3.6c0,1.9-1.6,3.5-3.5,3.5C13.7,19.6,12.1,18,12.1,16
	C12.1,16,12.1,16,12.1,16"/>
<path class="st0" d="M25.3,20c0.5-1.3,0.7-2.6,0.7-4c0.1-5.8-4.6-10.5-10.3-10.6C9.9,5.5,5.2,10.2,5.3,16c0,5.5,4.2,10.1,9.6,10.6
	c0-0.1,0.1-0.2,0.2-0.2h2.5l3.7-2.5h5c-0.7,0-1.3,2.4-1.3,5.4s0.6,5.4,1.3,5.4h-5l-3.7-2.5l0,0h-2.5c-0.1,0-0.2-0.1-0.2-0.3
	C6.5,31.5-0.1,24.5,0,16C-0.1,7.3,6.9,0.1,15.7,0c8.7,0.1,15.8,7.3,15.7,16c0,1.8-0.3,3.5-0.9,5.2h-5.9L25.3,20z"/>
</svg>
