<?xml version="1.0" encoding="UTF-8" standalone="no"?>
<!-- Created with Inkscape (http://www.inkscape.org/) -->

<svg
   xmlns:dc="http://purl.org/dc/elements/1.1/"
   xmlns:cc="http://creativecommons.org/ns#"
   xmlns:rdf="http://www.w3.org/1999/02/22-rdf-syntax-ns#"
   xmlns:svg="http://www.w3.org/2000/svg"
   xmlns="http://www.w3.org/2000/svg"
   xmlns:sodipodi="http://sodipodi.sourceforge.net/DTD/sodipodi-0.dtd"
   xmlns:inkscape="http://www.inkscape.org/namespaces/inkscape"
   width="230"
   height="50"
   viewBox="0 0 230 50.000001"
   id="svg15918"
   version="1.1"
   inkscape:version="0.91 r13725"
   sodipodi:docname="logoMenufix.svg">
  <defs
     id="defs15920" />
  <sodipodi:namedview
     id="base"
     pagecolor="#ffffff"
     bordercolor="#666666"
     borderopacity="1.0"
     inkscape:pageopacity="0.0"
     inkscape:pageshadow="2"
     inkscape:zoom="1.4"
     inkscape:cx="247.22634"
     inkscape:cy="156.34508"
     inkscape:document-units="px"
     inkscape:current-layer="layer1"
     showgrid="false"
     units="px"
     inkscape:window-width="1299"
     inkscape:window-height="744"
     inkscape:window-x="67"
     inkscape:window-y="24"
     inkscape:window-maximized="1" />
  <metadata
     id="metadata15923">
    <rdf:RDF>
      <cc:Work
         rdf:about="">
        <dc:format>image/svg+xml</dc:format>
        <dc:type
           rdf:resource="http://purl.org/dc/dcmitype/StillImage" />
        <dc:title></dc:title>
      </cc:Work>
    </rdf:RDF>
  </metadata>
  <g
     inkscape:label="Capa 1"
     inkscape:groupmode="layer"
     id="layer1"
     transform="translate(0,-1002.3622)">
    <g
       id="g15751"
       transform="matrix(1.25,0,0,-1.25,61.916063,1028.5021)">
      <path
         d="M 0,0 C -0.125,0.944 -0.456,1.705 -0.979,2.289 -1.499,2.87 -2.201,3.161 -3.067,3.161 -3.938,3.161 -4.636,2.874 -5.174,2.302 -5.705,1.729 -6.049,0.96 -6.22,0 L 0,0 Z m -2.661,-8.926 c -1.085,0 -2.092,0.183 -3.025,0.552 -0.932,0.371 -1.736,0.897 -2.415,1.58 -0.683,0.687 -1.214,1.495 -1.592,2.425 -0.379,0.935 -0.566,1.973 -0.566,3.12 l 0,0.059 c 0,1.052 0.175,2.049 0.527,2.993 0.355,0.944 0.847,1.764 1.479,2.47 0.636,0.701 1.389,1.257 2.267,1.662 0.882,0.41 1.85,0.611 2.919,0.611 1.209,0 2.263,-0.22 3.149,-0.665 C 0.968,5.436 1.709,4.843 2.295,4.092 2.884,3.342 3.317,2.482 3.602,1.514 3.879,0.542 4.016,-0.47 4.016,-1.526 c 0,-0.164 0,-0.339 -0.012,-0.525 -0.008,-0.189 -0.02,-0.38 -0.039,-0.583 l -10.127,0 c 0.203,-0.962 0.609,-1.686 1.233,-2.178 0.629,-0.487 1.401,-0.733 2.326,-0.733 0.683,0 1.3,0.119 1.838,0.359 0.55,0.242 1.112,0.632 1.69,1.165 L 3.286,-6.154 C 2.599,-7.024 1.768,-7.705 0.788,-8.191 -0.191,-8.683 -1.335,-8.926 -2.661,-8.926"
         style="fill:#00a1c4;fill-opacity:1;fill-rule:nonzero;stroke:none"
         id="path15753"
         inkscape:connector-curvature="0" />
    </g>
    <g
       id="g15755"
       transform="matrix(1.25,0,0,-1.25,81.398573,1039.6599)">
      <path
         d="m 0,0 c -1.089,0 -2.1,0.201 -3.028,0.61 -0.933,0.403 -1.737,0.955 -2.404,1.647 -0.671,0.695 -1.198,1.509 -1.577,2.441 -0.378,0.931 -0.57,1.926 -0.57,2.979 l 0,0.059 c 0,1.054 0.192,2.049 0.57,2.993 0.379,0.945 0.906,1.764 1.577,2.47 0.667,0.701 1.471,1.257 2.404,1.663 0.928,0.41 1.959,0.611 3.083,0.611 1.373,0 2.517,-0.221 3.418,-0.666 0.905,-0.445 1.701,-1.053 2.392,-1.834 L 3.337,10.203 C 2.864,10.702 2.38,11.1 1.885,11.393 1.381,11.689 0.769,11.838 0.023,11.838 -0.5,11.838 -0.976,11.732 -1.401,11.521 -1.826,11.307 -2.197,11.016 -2.513,10.649 -2.829,10.279 -3.075,9.844 -3.243,9.356 -3.418,8.868 -3.504,8.345 -3.504,7.789 l 0,-0.053 c 0,-0.573 0.086,-1.112 0.261,-1.609 0.168,-0.502 0.418,-0.935 0.745,-1.302 0.32,-0.372 0.715,-0.663 1.167,-0.874 0.453,-0.215 0.956,-0.32 1.518,-0.32 0.687,0 1.292,0.144 1.807,0.427 0.515,0.289 1.026,0.673 1.534,1.153 L 5.939,2.716 C 5.237,1.92 4.429,1.266 3.528,0.763 2.618,0.252 1.444,0 0,0"
         style="fill:#00a1c4;fill-opacity:1;fill-rule:nonzero;stroke:none"
         id="path15757"
         inkscape:connector-curvature="0" />
    </g>
    <g
       id="g15759"
       transform="matrix(1.25,0,0,-1.25,103.21731,1035.1211)">
      <path
         d="m 0,0 c 0.597,0 1.128,0.105 1.588,0.32 0.461,0.211 0.855,0.501 1.179,0.874 0.328,0.367 0.577,0.798 0.745,1.288 0.18,0.488 0.262,1.01 0.262,1.564 l 0,0.059 C 3.774,4.657 3.684,5.18 3.501,5.67 3.321,6.162 3.056,6.595 2.712,6.973 2.373,7.352 1.967,7.652 1.495,7.871 1.022,8.097 0.503,8.207 -0.055,8.207 -0.652,8.207 -1.182,8.101 -1.639,7.89 -2.103,7.676 -2.498,7.385 -2.821,7.018 -3.149,6.648 -3.395,6.212 -3.571,5.725 -3.742,5.237 -3.824,4.714 -3.824,4.158 l 0,-0.053 c 0,-0.558 0.086,-1.079 0.269,-1.569 0.179,-0.491 0.441,-0.922 0.784,-1.303 0.344,-0.379 0.75,-0.679 1.214,-0.9 C -1.097,0.109 -0.581,0 0,0 m -0.055,-3.631 c -1.123,0 -2.161,0.197 -3.125,0.595 -0.956,0.398 -1.784,0.94 -2.478,1.635 -0.699,0.693 -1.249,1.506 -1.643,2.439 -0.402,0.933 -0.601,1.935 -0.601,3.008 l 0,0.059 c 0,1.073 0.199,2.074 0.601,3.009 0.394,0.933 0.948,1.748 1.65,2.454 0.711,0.701 1.542,1.257 2.502,1.663 0.96,0.41 2.009,0.61 3.149,0.61 1.12,0 2.162,-0.196 3.122,-0.594 C 4.078,10.846 4.909,10.302 5.604,9.609 6.302,8.915 6.845,8.101 7.25,7.168 7.645,6.236 7.848,5.229 7.848,4.158 l 0,-0.053 C 7.848,3.032 7.645,2.027 7.25,1.093 6.845,0.16 6.299,-0.658 5.592,-1.36 4.886,-2.061 4.055,-2.618 3.095,-3.021 c -0.96,-0.409 -2.01,-0.61 -3.15,-0.61"
         style="fill:#00a1c4;fill-opacity:1;fill-rule:nonzero;stroke:none"
         id="path15761"
         inkscape:connector-curvature="0" />
    </g>
    <g
       id="g15763"
       transform="matrix(1.25,0,0,-1.25,118.79269,1020.6657)">
      <path
         d="m 0,0 4.129,0 0,-2.129 c 0.234,0.321 0.491,0.621 0.772,0.912 0.277,0.286 0.593,0.544 0.937,0.767 0.347,0.222 0.722,0.401 1.139,0.53 0.418,0.133 0.886,0.197 1.409,0.197 1.577,0 2.798,-0.494 3.656,-1.469 0.855,-0.98 1.288,-2.332 1.288,-4.051 l 0,-9.619 -4.128,0 0,8.269 c 0,0.995 -0.215,1.746 -0.652,2.256 -0.437,0.503 -1.054,0.761 -1.842,0.761 -0.804,0 -1.428,-0.258 -1.885,-0.761 -0.464,-0.51 -0.694,-1.261 -0.694,-2.256 l 0,-8.269 -4.129,0 L 0,0 Z"
         style="fill:#58595b;fill-opacity:1;fill-rule:nonzero;stroke:none"
         id="path15765"
         inkscape:connector-curvature="0" />
    </g>
    <g
       id="g15767"
       transform="matrix(1.25,0,0,-1.25,149.40132,1035.1211)">
      <path
         d="m 0,0 c 0.484,0 0.944,0.097 1.37,0.292 0.421,0.192 0.796,0.473 1.112,0.83 0.316,0.361 0.57,0.796 0.757,1.303 0.195,0.509 0.293,1.067 0.293,1.68 l 0,0.053 C 3.532,4.769 3.434,5.33 3.239,5.838 3.052,6.345 2.798,6.778 2.482,7.139 2.166,7.502 1.791,7.777 1.37,7.972 0.944,8.167 0.484,8.261 0,8.261 -0.488,8.261 -0.948,8.167 -1.374,7.972 -1.795,7.777 -2.174,7.502 -2.501,7.139 -2.825,6.778 -3.083,6.351 -3.27,5.852 -3.461,5.352 -3.555,4.788 -3.555,4.158 l 0,-0.053 c 0,-0.613 0.094,-1.171 0.285,-1.68 0.187,-0.507 0.445,-0.942 0.769,-1.303 0.327,-0.357 0.706,-0.638 1.127,-0.83 C -0.948,0.097 -0.488,0 0,0 m -1.057,-3.578 c -0.855,0 -1.679,0.167 -2.475,0.499 -0.796,0.334 -1.498,0.827 -2.119,1.485 -0.616,0.653 -1.104,1.459 -1.478,2.411 -0.371,0.954 -0.555,2.047 -0.555,3.288 l 0,0.053 c 0,1.239 0.184,2.336 0.555,3.287 0.374,0.953 0.858,1.757 1.471,2.412 0.601,0.658 1.303,1.151 2.103,1.487 0.792,0.33 1.627,0.497 2.498,0.497 1.096,0 2.009,-0.222 2.727,-0.665 0.714,-0.445 1.315,-0.96 1.807,-1.555 l 0,7.323 4.129,0 0,-20.246 -4.129,0 0,2.135 C 2.962,-1.869 2.357,-2.447 1.643,-2.896 0.925,-3.352 0.028,-3.578 -1.057,-3.578"
         style="fill:#58595b;fill-opacity:1;fill-rule:nonzero;stroke:none"
         id="path15769"
         inkscape:connector-curvature="0" />
    </g>
    <g
       id="g15771"
       transform="matrix(1.25,0,0,-1.25,171.60081,1039.5942)">
      <path
         d="m 0,0 c -1.577,0 -2.794,0.49 -3.657,1.471 -0.858,0.98 -1.287,2.33 -1.287,4.051 l 0,9.621 4.124,0 0,-8.271 c 0,-0.997 0.219,-1.75 0.652,-2.258 0.433,-0.505 1.05,-0.757 1.846,-0.757 0.796,0 1.424,0.252 1.888,0.757 0.465,0.508 0.691,1.261 0.691,2.258 l 0,8.271 4.129,0 0,-14.866 -4.129,0 0,2.127 C 4.023,2.088 3.766,1.783 3.484,1.495 3.204,1.206 2.891,0.95 2.548,0.728 2.201,0.503 1.822,0.326 1.412,0.195 0.987,0.066 0.523,0 0,0"
         style="fill:#58595b;fill-opacity:1;fill-rule:nonzero;stroke:none"
         id="path15773"
         inkscape:connector-curvature="0" />
    </g>
    <g
       id="g15775"
       transform="matrix(1.25,0,0,-1.25,197.31694,1039.6599)">
      <path
         d="m 0,0 c -1.085,0 -2.096,0.201 -3.024,0.61 -0.933,0.403 -1.733,0.955 -2.4,1.647 -0.675,0.695 -1.198,1.509 -1.577,2.441 -0.386,0.931 -0.569,1.926 -0.569,2.979 l 0,0.059 c 0,1.054 0.183,2.049 0.569,2.993 0.379,0.945 0.902,1.764 1.577,2.47 0.667,0.701 1.467,1.257 2.4,1.663 0.928,0.41 1.955,0.611 3.079,0.611 1.377,0 2.517,-0.221 3.426,-0.666 0.901,-0.445 1.701,-1.053 2.384,-1.834 L 3.34,10.203 c -0.472,0.499 -0.952,0.897 -1.447,1.19 -0.508,0.296 -1.124,0.445 -1.866,0.445 -0.523,0 -0.999,-0.106 -1.424,-0.317 -0.429,-0.214 -0.796,-0.505 -1.112,-0.872 -0.32,-0.37 -0.562,-0.805 -0.73,-1.293 C -3.415,8.868 -3.501,8.345 -3.501,7.789 l 0,-0.053 c 0,-0.573 0.086,-1.112 0.262,-1.609 0.168,-0.502 0.414,-0.935 0.745,-1.302 0.324,-0.372 0.714,-0.663 1.163,-0.874 0.453,-0.215 0.96,-0.32 1.522,-0.32 0.687,0 1.292,0.144 1.807,0.427 0.515,0.289 1.026,0.673 1.534,1.153 L 5.943,2.716 C 5.241,1.92 4.437,1.266 3.532,0.763 2.626,0.252 1.452,0 0,0"
         style="fill:#58595b;fill-opacity:1;fill-rule:nonzero;stroke:none"
         id="path15777"
         inkscape:connector-curvature="0" />
    </g>
    <g
       id="g15779"
       transform="matrix(1.25,0,0,-1.25,222.0868,1028.5021)">
      <path
         d="m 0,0 c -0.125,0.944 -0.449,1.705 -0.976,2.289 -0.523,0.581 -1.221,0.872 -2.095,0.872 -0.867,0 -1.565,-0.287 -2.1,-0.859 C -5.705,1.729 -6.053,0.96 -6.212,0 L 0,0 Z m -2.657,-8.926 c -1.089,0 -2.096,0.183 -3.029,0.552 -0.932,0.371 -1.736,0.897 -2.415,1.58 -0.679,0.687 -1.206,1.495 -1.592,2.425 -0.379,0.935 -0.566,1.973 -0.566,3.12 l 0,0.059 c 0,1.052 0.176,2.049 0.531,2.993 0.351,0.944 0.843,1.764 1.479,2.47 0.628,0.701 1.389,1.257 2.263,1.662 0.882,0.41 1.854,0.611 2.915,0.611 1.221,0 2.267,-0.22 3.153,-0.665 C 0.968,5.436 1.705,4.843 2.298,4.092 2.884,3.342 3.317,2.482 3.598,1.514 3.879,0.542 4.02,-0.47 4.02,-1.526 4.02,-1.69 4.016,-1.865 4.008,-2.051 3.996,-2.24 3.98,-2.431 3.965,-2.634 l -10.127,0 c 0.199,-0.962 0.609,-1.686 1.237,-2.178 0.621,-0.487 1.401,-0.733 2.322,-0.733 0.683,0 1.3,0.119 1.842,0.359 0.547,0.242 1.109,0.632 1.682,1.165 L 3.286,-6.154 C 2.595,-7.024 1.768,-7.705 0.788,-8.191 -0.187,-8.683 -1.338,-8.926 -2.657,-8.926"
         style="fill:#58595b;fill-opacity:1;fill-rule:nonzero;stroke:none"
         id="path15781"
         inkscape:connector-curvature="0" />
    </g>
    <g
       id="g15783"
       transform="matrix(1.25,0,0,-1.25,36.128063,1040.1131)">
      <path
         d="m 0,0 c -0.234,0 -0.43,0.307 -0.43,0.679 l 0,0.084 c 0,0.375 0.196,0.679 0.43,0.679 l 4.989,0 c 0.238,0 0.431,-0.304 0.431,-0.679 l 0,-0.084 C 5.42,0.307 5.227,0 4.989,0 L 0,0 Z"
         style="fill:#00a1c4;fill-opacity:1;fill-rule:nonzero;stroke:none"
         id="path15785"
         inkscape:connector-curvature="0" />
    </g>
    <g
       id="g15787"
       transform="matrix(1.25,0,0,-1.25,17.758183,1025.8219)">
      <path
         d="M 0,0 C 0,1.999 1.584,3.619 3.542,3.619 5.503,3.619 7.087,1.999 7.087,0 7.087,-2 5.503,-3.621 3.542,-3.621 1.584,-3.621 0,-2 0,0"
         style="fill:#00a1c4;fill-opacity:1;fill-rule:nonzero;stroke:none"
         id="path15789"
         inkscape:connector-curvature="0" />
    </g>
    <g
       id="g15791"
       transform="matrix(1.25,0,0,-1.25,34.214683,1030.8242)">
      <path
         d="m 0,0 c 0.501,1.273 0.759,2.613 0.759,4 0,5.85 -4.657,10.604 -10.382,10.604 -5.719,0 -10.38,-4.754 -10.38,-10.604 0,-5.593 4.26,-10.186 9.638,-10.572 0.063,0.141 0.137,0.224 0.211,0.224 l 2.539,0 3.673,2.484 5.004,0 c -0.703,0 -1.27,-2.434 -1.27,-5.436 0,-3.002 0.567,-5.434 1.27,-5.434 l -5.004,0 -3.673,2.483 0,0.029 -2.539,0 c -0.077,0 -0.155,0.092 -0.223,0.25 -8.285,0.403 -14.906,7.41 -14.906,15.972 0,8.823 7.025,15.997 15.66,15.997 8.638,0 15.666,-7.174 15.666,-15.997 0,-1.787 -0.291,-3.533 -0.858,-5.2 l -5.894,0 L 0,0 Z"
         style="fill:#00a1c4;fill-opacity:1;fill-rule:nonzero;stroke:none"
         id="path15793"
         inkscape:connector-curvature="0" />
    </g>
  </g>
</svg>
