<?xml version="1.0" encoding="utf-8"?>
<!-- Generator: Adobe Illustrator 21.1.0, SVG Export Plug-In . SVG Version: 6.00 Build 0)  -->
<svg version="1.1" id="Capa_1" xmlns="http://www.w3.org/2000/svg" xmlns:xlink="http://www.w3.org/1999/xlink" x="0px" y="0px"
	 viewBox="0 0 127.2 41.6" style="enable-background:new 0 0 127.2 41.6;" xml:space="preserve">
<style type="text/css">
	.st0{fill:none;stroke:#FFFFFF;stroke-width:0.2488;stroke-miterlimit:10;}
	.st1{fill:#FFFFFF;}
</style>
<g>
	<path class="st0" d="M127.2,36c0,3.1-2.5,5.6-5.6,5.6H5.6C2.5,41.6,0,39.1,0,36V5.6C0,2.5,2.5,0,5.6,0h115.9c3.1,0,5.6,2.5,5.6,5.6
		V36z"/>
	<path class="st1" d="M22,7.1H11.6c-1.2,0-2.2,1-2.2,2.2v23c0,1.2,1,2.2,2.2,2.2H22c1.2,0,2.2-1,2.2-2.2v-23
		C24.2,8.1,23.2,7.1,22,7.1z M16.8,32.9c-0.8,0-1.5-0.7-1.5-1.5c0-0.8,0.7-1.5,1.5-1.5c0.8,0,1.5,0.7,1.5,1.5
		C18.3,32.2,17.6,32.9,16.8,32.9z M22.4,29.2H11.1V12.3h11.3V29.2z"/>
	<g>
		<path class="st1" d="M32.7,11.2l-0.6,1.9h-0.8L33.3,7h0.9l2.1,6.1h-0.8l-0.6-1.9H32.7z M34.7,10.6l-0.6-1.7
			c-0.1-0.4-0.2-0.8-0.3-1.1h0c-0.1,0.4-0.2,0.7-0.3,1.1l-0.6,1.8H34.7z"/>
		<path class="st1" d="M37.1,8.8l0.9,2.4c0.1,0.4,0.3,0.8,0.4,1.1h0c0.1-0.4,0.2-0.7,0.4-1.1l0.8-2.4h0.8l-1.7,4.4H38l-1.7-4.4H37.1
			z"/>
		<path class="st1" d="M44.1,12.1c0,0.4,0,0.7,0.1,1h-0.7l-0.1-0.5h0c-0.2,0.3-0.7,0.6-1.3,0.6c-0.9,0-1.3-0.6-1.3-1.3
			c0-1.1,0.9-1.6,2.6-1.6v-0.1c0-0.4-0.1-1-1-1c-0.4,0-0.8,0.1-1.1,0.3L41,9c0.4-0.2,0.9-0.4,1.4-0.4c1.3,0,1.7,0.9,1.7,1.8V12.1z
			 M43.3,10.9c-0.9,0-1.8,0.1-1.8,1c0,0.5,0.3,0.8,0.7,0.8c0.6,0,0.9-0.4,1.1-0.7c0-0.1,0-0.2,0-0.3V10.9z"/>
		<path class="st1" d="M45.7,8c-0.3,0-0.5-0.2-0.5-0.5c0-0.3,0.2-0.5,0.5-0.5c0.3,0,0.5,0.2,0.5,0.5C46.2,7.7,46,8,45.7,8L45.7,8z
			 M45.3,13.1V8.8h0.8v4.4H45.3z"/>
		<path class="st1" d="M47.3,6.7h0.8v6.4h-0.8V6.7z"/>
		<path class="st1" d="M52.5,12.1c0,0.4,0,0.7,0.1,1h-0.7l-0.1-0.5h0c-0.2,0.3-0.7,0.6-1.3,0.6c-0.9,0-1.3-0.6-1.3-1.3
			c0-1.1,0.9-1.6,2.6-1.6v-0.1c0-0.4-0.1-1-1-1c-0.4,0-0.8,0.1-1.1,0.3L49.4,9c0.4-0.2,0.9-0.4,1.4-0.4c1.3,0,1.7,0.9,1.7,1.8V12.1z
			 M51.7,10.9c-0.9,0-1.8,0.1-1.8,1c0,0.5,0.3,0.8,0.7,0.8c0.6,0,0.9-0.4,1.1-0.7c0-0.1,0-0.2,0-0.3V10.9z"/>
		<path class="st1" d="M53.7,6.7h0.8v2.7h0C54.8,9,55.3,8.7,56,8.7c1.1,0,1.8,0.9,1.8,2.2c0,1.6-1,2.3-2,2.3c-0.6,0-1.1-0.2-1.5-0.8
			h0l0,0.7h-0.7c0-0.3,0-0.7,0-1.1V6.7z M54.5,11.4c0,0.1,0,0.2,0,0.3c0.2,0.5,0.6,0.9,1.2,0.9c0.8,0,1.3-0.7,1.3-1.7
			c0-0.9-0.4-1.6-1.3-1.6c-0.5,0-1,0.4-1.2,1c0,0.1,0,0.2,0,0.3V11.4z"/>
		<path class="st1" d="M58.8,6.7h0.8v6.4h-0.8V6.7z"/>
		<path class="st1" d="M61.3,11.1c0,1.1,0.7,1.5,1.5,1.5c0.6,0,0.9-0.1,1.2-0.2l0.1,0.6c-0.3,0.1-0.8,0.3-1.5,0.3
			c-1.3,0-2.1-0.9-2.1-2.2c0-1.3,0.8-2.4,2.1-2.4c1.4,0,1.8,1.3,1.8,2.1c0,0.2,0,0.3,0,0.4L61.3,11.1z M63.6,10.5
			c0-0.5-0.2-1.3-1.1-1.3c-0.8,0-1.2,0.7-1.2,1.3H63.6z"/>
		<path class="st1" d="M68.9,13.2c-1.2,0-2.1-0.9-2.1-2.2c0-1.5,1-2.3,2.2-2.3c1.3,0,2.1,0.9,2.1,2.2C71.1,12.5,70,13.2,68.9,13.2
			L68.9,13.2z M69,12.6c0.8,0,1.3-0.7,1.3-1.7c0-0.7-0.4-1.7-1.3-1.7c-0.9,0-1.3,0.9-1.3,1.7C67.6,11.9,68.2,12.6,69,12.6L69,12.6z"
			/>
		<path class="st1" d="M72,9.9c0-0.5,0-0.8,0-1.2h0.7l0,0.7h0c0.2-0.4,0.7-0.8,1.4-0.8c0.6,0,1.5,0.4,1.5,1.9v2.6H75v-2.5
			c0-0.7-0.3-1.3-1-1.3c-0.5,0-0.9,0.4-1.1,0.8c0,0.1-0.1,0.2-0.1,0.4v2.6H72V9.9z"/>
		<path class="st1" d="M79.8,7.7v1h1.1v0.6h-1.1v2.3c0,0.5,0.2,0.8,0.6,0.8c0.2,0,0.3,0,0.5-0.1l0,0.6c-0.2,0.1-0.4,0.1-0.7,0.1
			c-0.4,0-0.7-0.1-0.9-0.3c-0.2-0.2-0.3-0.6-0.3-1.1V9.4h-0.7V8.8H79V8L79.8,7.7z"/>
		<path class="st1" d="M81.8,6.7h0.8v2.7h0c0.1-0.2,0.3-0.4,0.6-0.6c0.2-0.1,0.5-0.2,0.8-0.2c0.6,0,1.5,0.4,1.5,1.9v2.6h-0.8v-2.5
			c0-0.7-0.3-1.3-1-1.3c-0.5,0-0.9,0.4-1.1,0.8c0,0.1-0.1,0.2-0.1,0.4v2.6h-0.8V6.7z"/>
		<path class="st1" d="M87.2,11.1c0,1.1,0.7,1.5,1.5,1.5c0.6,0,0.9-0.1,1.2-0.2l0.1,0.6c-0.3,0.1-0.8,0.3-1.5,0.3
			c-1.3,0-2.1-0.9-2.1-2.2c0-1.3,0.8-2.4,2.1-2.4c1.4,0,1.8,1.3,1.8,2.1c0,0.2,0,0.3,0,0.4L87.2,11.1z M89.5,10.5
			c0-0.5-0.2-1.3-1.1-1.3c-0.8,0-1.2,0.7-1.2,1.3H89.5z"/>
		<path class="st1" d="M93.4,8c-0.3,0-0.5-0.2-0.5-0.5c0-0.3,0.2-0.5,0.5-0.5c0.3,0,0.5,0.2,0.5,0.5C94,7.7,93.8,8,93.4,8L93.4,8z
			 M93.1,13.1V8.8h0.8v4.4H93.1z"/>
		<path class="st1" d="M95.1,7.1C95.5,7.1,96,7,96.6,7c0.8,0,1.3,0.2,1.7,0.5c0.3,0.3,0.5,0.7,0.5,1.3c0,0.5-0.2,1-0.5,1.3
			c-0.4,0.4-1.1,0.7-1.9,0.7c-0.2,0-0.4,0-0.6-0.1v2.4h-0.8V7.1z M95.9,10c0.2,0,0.4,0.1,0.6,0.1c1,0,1.5-0.5,1.5-1.3
			c0-0.8-0.6-1.2-1.4-1.2c-0.3,0-0.6,0-0.7,0.1V10z"/>
		<path class="st1" d="M99.8,6.7h0.8v2.7h0c0.1-0.2,0.3-0.4,0.6-0.6c0.2-0.1,0.5-0.2,0.8-0.2c0.6,0,1.5,0.4,1.5,1.9v2.6h-0.8v-2.5
			c0-0.7-0.3-1.3-1-1.3c-0.5,0-0.9,0.4-1.1,0.8c0,0.1-0.1,0.2-0.1,0.4v2.6h-0.8V6.7z"/>
		<path class="st1" d="M106.5,13.2c-1.2,0-2.1-0.9-2.1-2.2c0-1.5,1-2.3,2.2-2.3c1.3,0,2.1,0.9,2.1,2.2
			C108.7,12.5,107.6,13.2,106.5,13.2L106.5,13.2z M106.6,12.6c0.8,0,1.3-0.7,1.3-1.7c0-0.7-0.4-1.7-1.3-1.7c-0.9,0-1.3,0.9-1.3,1.7
			C105.2,11.9,105.8,12.6,106.6,12.6L106.6,12.6z"/>
		<path class="st1" d="M109.7,9.9c0-0.5,0-0.8,0-1.2h0.7l0,0.7h0c0.2-0.4,0.7-0.8,1.4-0.8c0.6,0,1.5,0.4,1.5,1.9v2.6h-0.8v-2.5
			c0-0.7-0.3-1.3-1-1.3c-0.5,0-0.9,0.4-1.1,0.8c0,0.1-0.1,0.2-0.1,0.4v2.6h-0.8V9.9z"/>
		<path class="st1" d="M115.1,11.1c0,1.1,0.7,1.5,1.5,1.5c0.6,0,0.9-0.1,1.2-0.2l0.1,0.6c-0.3,0.1-0.8,0.3-1.5,0.3
			c-1.3,0-2.1-0.9-2.1-2.2c0-1.3,0.8-2.4,2.1-2.4c1.4,0,1.8,1.3,1.8,2.1c0,0.2,0,0.3,0,0.4L115.1,11.1z M117.4,10.5
			c0-0.5-0.2-1.3-1.1-1.3c-0.8,0-1.2,0.7-1.2,1.3H117.4z"/>
	</g>
	<g>
		<path class="st1" d="M36.4,17.2l-5.3,15.7h2.4l1.6-4.8h5.2l1.6,4.8h2.5l-5.4-15.7H36.4z M37.7,19.8c0.2,0.7,0.4,1.4,0.6,2.2
			l1.4,4.2h-4.1l1.4-4.2C37.3,21.3,37.5,20.6,37.7,19.8z"/>
		<path class="st1" d="M51.3,21.3c-1.6,0-2.9,0.6-3.8,1.8l-0.1-1.6h-2.2l0,0.2c0.1,1,0.1,2,0.1,3.6v12.1h2.4v-5.6
			c0.7,0.9,1.9,1.4,3.2,1.4c1.4,0,2.7-0.5,3.6-1.5c1-1.1,1.6-2.7,1.6-4.6c0-1.7-0.5-3.1-1.4-4.2C53.9,21.9,52.7,21.3,51.3,21.3z
			 M50.8,23.3c2.1,0,3.1,2,3.1,3.9c0,2.5-1.2,4.1-3.2,4.1c-1.3,0-2.5-0.9-2.8-2.2c-0.1-0.2-0.1-0.5-0.1-0.8v-1.9
			c0-0.2,0-0.4,0.1-0.6c0-0.1,0-0.1,0-0.2C48.2,24.2,49.4,23.3,50.8,23.3z"/>
		<path class="st1" d="M63.6,21.3c-1.6,0-2.9,0.6-3.8,1.8l-0.1-1.6h-2.2l0,0.2c0.1,1,0.1,2,0.1,3.6v12.1H60v-5.6
			c0.7,0.9,1.9,1.4,3.2,1.4c1.4,0,2.7-0.5,3.6-1.5c1-1.1,1.6-2.7,1.6-4.6c0-1.7-0.5-3.1-1.4-4.2C66.2,21.9,64.9,21.3,63.6,21.3z
			 M63,23.3c2.1,0,3.1,2,3.1,3.9c0,2.5-1.2,4.1-3.2,4.1c-1.3,0-2.5-0.9-2.8-2.2C60,28.8,60,28.6,60,28.3v-1.9c0-0.2,0-0.4,0.1-0.6
			c0-0.1,0-0.1,0-0.2C60.5,24.2,61.7,23.3,63,23.3z"/>
		<path class="st1" d="M78.9,23.9C76.7,23,76,22.3,76,21.1c0-1.1,0.8-2.1,2.7-2.1c1.5,0,2.5,0.5,2.8,0.7l0.2,0.1l0.7-2l-0.1-0.1
			c-0.4-0.2-1.5-0.8-3.5-0.8c-3,0-5.1,1.8-5.1,4.3c0,2.1,1.3,3.5,4.2,4.5c2,0.8,2.8,1.5,2.8,2.8c0,1.5-1.2,2.4-3,2.4
			c-1.2,0-2.5-0.4-3.4-1L73.9,30l-0.6,2l0.1,0.1c0.9,0.6,2.6,1,4,1c4.1,0,5.5-2.5,5.5-4.6C82.9,26.4,81.7,25,78.9,23.9z"/>
		<path class="st1" d="M87.2,18.8l-2.3,0.7v2h-1.7v1.9h1.7v5.8c0,1.4,0.3,2.4,0.8,3c0.5,0.6,1.3,0.9,2.3,0.9c0.9,0,1.5-0.2,1.8-0.3
			l0.1,0l-0.1-1.9L89.6,31c-0.3,0.1-0.6,0.1-1.1,0.1c-0.9,0-1.3-0.6-1.3-1.9v-5.7h2.9v-1.9h-2.9V18.8z"/>
		<path class="st1" d="M95.9,21.3c-3.3,0-5.6,2.5-5.6,6c0,3.4,2.2,5.8,5.5,5.8h0c2.7,0,5.6-1.9,5.6-6.1c0-1.7-0.5-3.1-1.5-4.2
			C98.9,21.9,97.5,21.3,95.9,21.3z M95.9,23.2c2.1,0,3.1,2.1,3.1,4c0,2.4-1.3,4.1-3.2,4.1h0c-1.8,0-3.1-1.7-3.1-4
			C92.7,25.2,93.7,23.2,95.9,23.2z"/>
		<path class="st1" d="M108.7,21.4l-0.1,0c-0.2-0.1-0.4-0.1-0.6-0.1c-1.2,0-2.4,0.7-3,1.9l-0.1-1.7h-2.1l0,0.2
			c0.1,0.9,0.1,2,0.1,3.4l0,7.8h2.4v-6.1c0-0.3,0-0.6,0.1-0.9c0.3-1.5,1.2-2.4,2.5-2.4c0.2,0,0.4,0,0.6,0l0.3,0V21.4z"/>
		<path class="st1" d="M114,21.3c-3.2,0-5.4,2.5-5.4,6.1c0,3.5,2.2,5.7,5.6,5.7c1.8,0,3-0.4,3.8-0.7l0.1-0.1l-0.5-1.8l-0.2,0.1
			c-0.6,0.3-1.5,0.5-3,0.5c-1,0-3.4-0.3-3.6-3.4l7.7,0l0-0.2c0-0.2,0.1-0.6,0.1-1C118.8,24.2,117.5,21.3,114,21.3z M113.9,23.1
			c0.7,0,1.3,0.2,1.7,0.7c0.7,0.7,0.8,1.7,0.8,2.2H111C111.2,24.6,112.1,23.1,113.9,23.1z"/>
	</g>
</g>
</svg>
