<?xml version="1.0" encoding="utf-8"?>
<!-- Generator: Adobe Illustrator 21.1.0, SVG Export Plug-In . SVG Version: 6.00 Build 0)  -->
<svg version="1.1" id="Capa_1" xmlns="http://www.w3.org/2000/svg" xmlns:xlink="http://www.w3.org/1999/xlink" x="0px" y="0px"
	 viewBox="0 0 127.1 41.6" style="enable-background:new 0 0 127.1 41.6;" xml:space="preserve">
<style type="text/css">
	.st0{fill:none;stroke:#FFFFFF;stroke-width:0.2485;stroke-miterlimit:10;}
	.st1{fill:#F6F6F6;}
	.st2{fill:#FFFFFF;}
	.st3{fill:#D7D7D6;}
	.st4{fill:#EAE9E8;}
</style>
<g>
	<path class="st0" d="M127.1,35.9c0,3.1-2.5,5.6-5.6,5.6H5.6C2.5,41.6,0,39,0,35.9V5.6C0,2.5,2.5,0,5.6,0h115.8
		c3.1,0,5.6,2.5,5.6,5.6V35.9z"/>
	<g>
		<path class="st1" d="M42.4,10.4h-0.9c0-0.1-0.1-0.5-0.3-1H40c-0.2,0.6-0.3,0.9-0.3,1h-0.8c0-0.1,0.2-0.7,0.6-1.8
			c0.4-1.1,0.6-1.7,0.6-1.8h1c0,0.1,0.2,0.7,0.6,1.8C42.2,9.7,42.4,10.3,42.4,10.4 M41.1,8.8c-0.3-1-0.5-1.5-0.5-1.5h0
			c0,0.1-0.2,0.6-0.5,1.5H41.1z"/>
		<path class="st1" d="M46,10.4h-0.7c0-0.1-0.3-0.5-0.8-1.2c-0.5-0.8-0.8-1.3-0.9-1.6h0c0,0.4,0.1,0.8,0.1,1.1c0,0.5,0,1,0,1.7H43
			c0-0.6,0-1.2,0-1.9c0-0.7,0-1.2,0-1.7h0.8c0,0.1,0.2,0.5,0.7,1.2c0.5,0.7,0.8,1.2,0.8,1.5h0c0-0.4-0.1-0.8-0.1-1.1
			c0-0.5,0-1,0-1.5H46c0,0.5,0,1,0,1.7C45.9,9.2,46,9.8,46,10.4"/>
		<path class="st1" d="M50,8.5c0,0.5-0.2,1-0.5,1.4c-0.3,0.4-0.8,0.6-1.4,0.6c-0.3,0-0.6,0-1.1,0c0-0.6,0-1.2,0-1.9
			c0-0.7,0-1.2,0-1.7h0.5c0.1,0,0.2,0,0.4,0c0.2,0,0.3,0,0.3,0c0.7,0,1.1,0.2,1.4,0.5C49.8,7.6,50,8,50,8.5 M49.2,8.6
			c0-0.4-0.1-0.7-0.3-0.9c-0.2-0.2-0.5-0.4-0.9-0.4c-0.1,0-0.2,0-0.3,0c0,0.4,0,0.8,0,1.2c0,0.4,0,0.9,0,1.3c0.1,0,0.2,0,0.4,0
			c0.4,0,0.7-0.1,0.9-0.4C49.1,9.3,49.2,9,49.2,8.6"/>
		<path class="st1" d="M53.7,10.4h-0.8c-0.2-0.7-0.4-1.1-0.5-1.2C52.3,9,52.1,9,51.8,9c-0.1,0-0.2,0-0.3,0c0,0.5,0,1,0,1.4h-0.8
			c0-0.6,0-1.2,0-1.9c0-0.7,0-1.2,0-1.7h0.5c0.1,0,0.2,0,0.3,0c0.2,0,0.3,0,0.5,0c0.8,0,1.3,0.3,1.3,0.9c0,0.5-0.2,0.8-0.7,1v0
			c0.2,0.1,0.3,0.2,0.5,0.4C53.2,9.3,53.4,9.8,53.7,10.4 M52.6,7.9c0-0.4-0.2-0.5-0.7-0.5c-0.2,0-0.3,0-0.5,0c0,0.3,0,0.7,0,1.1
			c0.1,0,0.2,0,0.3,0C52.3,8.5,52.6,8.3,52.6,7.9"/>
		<path class="st1" d="M57.6,8.5c0,0.6-0.2,1-0.5,1.4c-0.3,0.4-0.8,0.6-1.3,0.6c-0.5,0-0.9-0.2-1.2-0.5c-0.3-0.3-0.5-0.8-0.5-1.3
			c0-0.6,0.2-1,0.5-1.4c0.3-0.4,0.8-0.6,1.3-0.6c0.5,0,0.9,0.2,1.2,0.5C57.5,7.6,57.6,8,57.6,8.5 M56.9,8.6c0-0.4-0.1-0.7-0.3-0.9
			c-0.2-0.2-0.4-0.4-0.7-0.4c-0.3,0-0.5,0.1-0.7,0.4c-0.2,0.2-0.3,0.5-0.3,0.9c0,0.4,0.1,0.7,0.3,0.9c0.2,0.2,0.4,0.4,0.7,0.4
			c0.3,0,0.5-0.1,0.7-0.4C56.8,9.3,56.9,9,56.9,8.6"/>
		<path class="st1" d="M59.2,10.4h-0.8c0-0.6,0-1.2,0-1.9c0-0.7,0-1.2,0-1.7h0.8c0,0.5,0,1,0,1.7C59.2,9.2,59.2,9.8,59.2,10.4"/>
		<path class="st1" d="M63.2,8.5c0,0.5-0.2,1-0.5,1.4c-0.3,0.4-0.8,0.6-1.4,0.6c-0.3,0-0.6,0-1.1,0c0-0.6,0-1.2,0-1.9
			c0-0.7,0-1.2,0-1.7h0.5c0.1,0,0.2,0,0.4,0c0.2,0,0.3,0,0.3,0c0.7,0,1.1,0.2,1.4,0.5C63.1,7.6,63.2,8,63.2,8.5 M62.4,8.6
			c0-0.4-0.1-0.7-0.3-0.9c-0.2-0.2-0.5-0.4-0.9-0.4c-0.1,0-0.2,0-0.3,0c0,0.4,0,0.8,0,1.2c0,0.4,0,0.9,0,1.3c0.1,0,0.2,0,0.4,0
			c0.4,0,0.7-0.1,0.9-0.4C62.4,9.3,62.4,9,62.4,8.6"/>
		<path class="st1" d="M68.5,10.4h-0.9c0-0.1-0.1-0.5-0.3-1h-1.3c-0.2,0.6-0.3,0.9-0.3,1H65c0-0.1,0.2-0.7,0.6-1.8
			c0.4-1.1,0.6-1.7,0.6-1.8h1c0,0.1,0.2,0.7,0.6,1.8C68.3,9.7,68.5,10.3,68.5,10.4 M67.2,8.8c-0.3-1-0.5-1.5-0.5-1.5h0
			c0,0.1-0.2,0.6-0.5,1.5H67.2z"/>
		<path class="st1" d="M71.7,7.8c0,0.4-0.2,0.8-0.5,1C70.9,8.9,70.5,9,70,9c-0.1,0-0.1,0-0.2,0c0,0.3,0,0.8,0,1.4h-0.8
			c0-0.5,0-1.2,0-1.9c0-0.7,0-1.2,0-1.7h0.5c0.1,0,0.2,0,0.4,0c0.2,0,0.4,0,0.5,0c0.3,0,0.6,0.1,0.9,0.2C71.6,7.2,71.7,7.4,71.7,7.8
			 M71,7.9c0-0.4-0.3-0.6-0.8-0.6c-0.1,0-0.3,0-0.4,0c0,0.3,0,0.7,0,1.2c0,0,0.1,0,0.2,0C70.7,8.5,71,8.3,71,7.9"/>
		<path class="st1" d="M75.1,7.8c0,0.4-0.2,0.8-0.5,1C74.2,8.9,73.8,9,73.4,9c-0.1,0-0.1,0-0.2,0c0,0.3,0,0.8,0,1.4h-0.8
			c0-0.5,0-1.2,0-1.9c0-0.7,0-1.2,0-1.7h0.5c0.1,0,0.2,0,0.4,0c0.2,0,0.4,0,0.5,0c0.4,0,0.6,0.1,0.9,0.2C74.9,7.2,75.1,7.4,75.1,7.8
			 M74.3,7.9c0-0.4-0.3-0.6-0.8-0.6c-0.1,0-0.3,0-0.4,0c0,0.3,0,0.7,0,1.2c0,0,0.1,0,0.2,0C74,8.5,74.3,8.3,74.3,7.9"/>
		<path class="st1" d="M80.5,8.5c0,0.6-0.2,1-0.5,1.4c-0.3,0.4-0.8,0.6-1.3,0.6c-0.5,0-0.9-0.2-1.2-0.5C77.1,9.7,77,9.2,77,8.7
			c0-0.6,0.2-1,0.5-1.4c0.3-0.4,0.8-0.6,1.3-0.6c0.5,0,0.9,0.2,1.2,0.5C80.3,7.6,80.5,8,80.5,8.5 M79.7,8.6c0-0.4-0.1-0.7-0.3-0.9
			c-0.2-0.2-0.4-0.4-0.7-0.4c-0.3,0-0.5,0.1-0.7,0.4c-0.2,0.2-0.3,0.5-0.3,0.9c0,0.4,0.1,0.7,0.3,0.9c0.2,0.2,0.4,0.4,0.7,0.4
			c0.3,0,0.5-0.1,0.7-0.4C79.6,9.3,79.7,9,79.7,8.6"/>
		<path class="st1" d="M84.2,10.4h-0.7c0-0.1-0.3-0.5-0.8-1.2c-0.5-0.8-0.8-1.3-0.9-1.6h0c0,0.4,0.1,0.8,0.1,1.1c0,0.5,0,1,0,1.7
			h-0.7c0-0.6,0-1.2,0-1.9c0-0.7,0-1.2,0-1.7h0.8c0,0.1,0.2,0.5,0.7,1.2c0.5,0.7,0.8,1.2,0.8,1.5h0c0-0.4-0.1-0.8-0.1-1.1
			c0-0.5,0-1,0-1.5h0.7c0,0.5,0,1,0,1.7C84.2,9.2,84.2,9.8,84.2,10.4"/>
	</g>
	<g>
		<path class="st2" d="M63.8,21.9c-2.3,0-4.2,1.7-4.2,4.1c0,2.4,1.9,4.1,4.2,4.1c2.3,0,4.2-1.8,4.2-4.1C67.9,23.6,66,21.9,63.8,21.9
			z M63.8,28.5c-1.3,0-2.3-1-2.3-2.5c0-1.5,1.1-2.5,2.3-2.5s2.3,1,2.3,2.5C66.1,27.5,65,28.5,63.8,28.5z M54.7,21.9
			c-2.3,0-4.2,1.7-4.2,4.1c0,2.4,1.9,4.1,4.2,4.1c2.3,0,4.2-1.8,4.2-4.1C58.8,23.6,57,21.9,54.7,21.9z M54.7,28.5
			c-1.3,0-2.3-1-2.3-2.5c0-1.5,1.1-2.5,2.3-2.5c1.3,0,2.3,1,2.3,2.5C57,27.5,55.9,28.5,54.7,28.5z M43.9,23.2v1.8h4.2
			c-0.1,1-0.5,1.7-1,2.2c-0.6,0.6-1.6,1.3-3.2,1.3c-2.6,0-4.6-2.1-4.6-4.7s2-4.7,4.6-4.7c1.4,0,2.4,0.5,3.2,1.3l1.2-1.2
			c-1.1-1-2.4-1.8-4.4-1.8c-3.5,0-6.5,2.9-6.5,6.4c0,3.5,3,6.4,6.5,6.4c1.9,0,3.4-0.6,4.5-1.8c1.2-1.2,1.5-2.8,1.5-4.1
			c0-0.4,0-0.8-0.1-1.1H43.9z M88,24.5c-0.3-0.9-1.4-2.6-3.5-2.6c-2.1,0-3.9,1.7-3.9,4.1c0,2.3,1.8,4.1,4.1,4.1c1.9,0,3-1.2,3.5-1.8
			l-1.4-0.9c-0.5,0.7-1.1,1.1-2,1.1c-0.9,0-1.6-0.4-2-1.3l5.5-2.3L88,24.5z M82.4,25.9c0-1.6,1.2-2.4,2.2-2.4c0.7,0,1.3,0.4,1.5,0.9
			L82.4,25.9z M77.9,29.9h1.8V17.7h-1.8V29.9z M74.9,22.8L74.9,22.8c-0.5-0.5-1.3-0.9-2.2-0.9c-2.1,0-4,1.8-4,4.2
			c0,2.3,1.9,4.1,4,4.1c1,0,1.8-0.4,2.2-0.9h0.1v0.6c0,1.6-0.8,2.4-2.2,2.4c-1.1,0-1.8-0.8-2.1-1.5L69,31.4c0.5,1.1,1.7,2.4,3.7,2.4
			c2.1,0,3.9-1.3,3.9-4.3v-7.4h-1.7V22.8z M72.8,28.5c-1.3,0-2.3-1.1-2.3-2.5c0-1.5,1.1-2.5,2.3-2.5c1.2,0,2.2,1.1,2.2,2.5
			C75,27.5,74,28.5,72.8,28.5z M96.5,17.7h-4.4v12.2H94v-4.6h2.5c2,0,4-1.5,4-3.8S98.5,17.7,96.5,17.7z M96.6,23.6H94v-4.2h2.6
			c1.4,0,2.1,1.1,2.1,2.1C98.7,22.5,97.9,23.6,96.6,23.6z M107.8,21.9c-1.3,0-2.7,0.6-3.2,1.9l1.6,0.7c0.3-0.7,1-0.9,1.7-0.9
			c0.9,0,1.9,0.6,1.9,1.6v0.1c-0.3-0.2-1-0.5-1.9-0.5c-1.7,0-3.5,1-3.5,2.7c0,1.6,1.4,2.7,3,2.7c1.2,0,1.9-0.5,2.3-1.2h0.1v0.9h1.8
			v-4.7C111.5,23.1,109.9,21.9,107.8,21.9z M107.6,28.5c-0.6,0-1.4-0.3-1.4-1c0-0.9,1-1.3,1.9-1.3c0.8,0,1.2,0.2,1.7,0.4
			C109.6,27.7,108.6,28.5,107.6,28.5z M117.9,22.1l-2.1,5.3h-0.1l-2.2-5.3h-2l3.2,7.4l-1.8,4.1h1.9l5-11.5H117.9z M101.5,29.9h1.8
			V17.7h-1.8V29.9z"/>
		<g>
			<path class="st2" d="M7.6,8.1C7.3,8.4,7.1,8.8,7.1,9.4v21.5c0,0.6,0.2,1.1,0.5,1.4l0.1,0.1l12.1-12.1v-0.1V20L7.6,8.1L7.6,8.1z"
				/>
			<path class="st3" d="M23.7,24.3l-4-4v-0.1V20l4-4l0.1,0.1l4.8,2.7c1.4,0.8,1.4,2,0,2.8L23.7,24.3L23.7,24.3z"/>
			<path class="st4" d="M23.8,24.3l-4.1-4.1L7.6,32.3c0.4,0.5,1.2,0.5,2,0.1L23.8,24.3"/>
			<path class="st4" d="M23.8,16.1L9.6,8C8.8,7.5,8,7.6,7.6,8.1l12.1,12.1L23.8,16.1z"/>
		</g>
	</g>
</g>
</svg>
