<svg id="Capa_1" data-name="Capa 1" xmlns="http://www.w3.org/2000/svg" viewBox="0 0 87.33 101.84"><defs><style>.cls-1{fill:#ebd3b9;}.cls-2{fill:#715a48;}.cls-3{fill:#5ba1c9;}.cls-4{fill:#fff;}.cls-5{fill:#3b686e;}.cls-6{fill:#d9b489;}.cls-7{fill:#cbb69e;}.cls-8{fill:#437680;}.cls-9{fill:#553317;}.cls-10{fill:#1a2830;}.cls-11{fill:#666766;}.cls-12{fill:#807f80;}.cls-13{fill:#ebc699;}.cls-14{fill:#e3e3e2;}.cls-15{fill:#32574e;}.cls-16{fill:#663d1c;}.cls-17{fill:#61a097;}.cls-18{fill:#5392ab;}</style></defs><title>muñeco1</title><path class="cls-1" d="M46.93,14v14.9s.06,2.7-3.21,2.7S30.16,30.65,29.9,19,46.93,11.83,46.93,14Z"/><path d="M50.07,15.62S48.2,14.4,44.13,14.4s-6.19,1.41-5.71,4-5.24.51-2.34-3.73,6.59-3.45,6.59-3.45l4.71.36S50.33,14.27,50.07,15.62Z"/><path class="cls-2" d="M43.71,31.55c3.28,0,3.21-2.7,3.21-2.7v-5.6c-1,.19-4.29.94-4.56,3.1,0,0-1.16-5.18-4-4.93-1.64.15-4.88,1.82-7.23,3.45C34.08,31,41.11,31.55,43.71,31.55Z"/><path class="cls-3" d="M47.71,11.95a8.07,8.07,0,0,0-7.27-5.83c-6.1-.64-10.79,1.67-13.17,7.19s1.86,14,7.9,13.49,5.59-5.78,4.11-7.19c0,0-2.31-2.57-1.67-4.82s2.89-3.08,5.52-3.08A40.57,40.57,0,0,1,47.71,11.95Z"/><path class="cls-4" d="M29,16.52h-.12a.58.58,0,0,1-.45-.68,10.07,10.07,0,0,1,4.13-6.75,10.2,10.2,0,0,1,7.09-1.35.58.58,0,0,1-.24,1.13,9.17,9.17,0,0,0-6.23,1.19,9,9,0,0,0-3.62,6A.58.58,0,0,1,29,16.52Z"/><circle class="cls-5" cx="33.54" cy="21.18" r="2.99"/><polygon class="cls-6" points="44.29 79.69 44.29 81.22 46.71 81.22 46.71 79.47 44.29 79.69"/><rect class="cls-4" x="62.84" y="46.6" width="1.15" height="5.98"/><rect x="61.4" y="46.07" width="1.72" height="7.13"/><path class="cls-7" d="M51.44,46.9s1.63-.71,2.35-1.14,3.71-1.22,4.49.29l-3.06,2.48S48.28,50,51.44,46.9Z"/><path class="cls-8" d="M62.07,45.84H57.86a2.35,2.35,0,0,0-2.06,2.23v5.38h6.27Z"/><path class="cls-9" d="M31.17,57.64a25.26,25.26,0,0,0,5.35,2.84c3.95,1.43,7.35,1.78,9.14,2.41s1.66,2.4,1.66,6.51-.43,10.9-.43,10.9H45.41a139.2,139.2,0,0,0-3.06-14.56C39.44,65.88,30.85,61.36,31.17,57.64Z"/><path class="cls-8" d="M58.2,70.46S56.3,81.8,47.69,82.24,30.88,79.12,32.36,72s-9.15,9.2,2.55,13.65S60.39,85.6,58.2,70.46Z"/><circle class="cls-10" cx="58.08" cy="49.77" r="1.31"/><path class="cls-3" d="M56.77,53.45s4.63,16.08-1.62,27.28S24.63,82.67,34.19,68H22s-4.38,2.73-4.45,3.73S29.17,85.69,29.17,85.69s14.14,8.46,28.29.78c0,0,10.05-8.69,13.28-17.66,0,0-4.59-10.84-9.33-16.22S56.77,53.45,56.77,53.45Z"/><path class="cls-11" d="M44.29,81.22v3h6.63s0-3-4.21-3Z"/><rect class="cls-12" x="44.29" y="84.18" width="6.63" height="0.63"/><path d="M71.82,68.47a1,1,0,0,1-.54,1.31h0A1,1,0,0,1,70,69.25L67.34,63a1,1,0,0,1,.54-1.31h0a1,1,0,0,1,1.31.54Z"/><polygon class="cls-13" points="42.35 80.18 42.35 81.71 44.77 81.71 44.77 79.96 42.35 80.18"/><path class="cls-11" d="M42.35,81.71v3H49s0-3-4.21-3Z"/><rect class="cls-12" x="42.35" y="84.68" width="6.63" height="0.63"/><rect class="cls-14" x="11.58" y="61.61" width="24.78" height="6.92" rx="3.45" ry="3.45"/><path class="cls-15" d="M37.5,37.51s3.06,7.73,13.95,9.4v1.81S36.25,60.84,37.5,37.51Z"/><path class="cls-1" d="M38.61,30.62l-2,3L32,31a6,6,0,0,0,1.34-2.73C33.4,27.07,38.61,30.62,38.61,30.62Z"/><path class="cls-16" d="M46.13,69.2c-.19-3.94-1-5-4.57-6.86s-6.4-.94-6.78-2.43c-.29-1.11-6.85-.11-11.23,1L20.33,60a17,17,0,0,0,.86,1.83,8.71,8.71,0,0,0,1.34,2.08,7.66,7.66,0,0,0,1.89,1.81h0c2.86,2.22,8,4.44,17.14,4.12V80.3h4.19S46.32,73.14,46.13,69.2Z"/><path class="cls-1" d="M51.44,48.39a5.69,5.69,0,0,1,4-.9,3.65,3.65,0,0,1,2.44,5.21c-1.11,2.08-3.19.9-2.66,0s.36-2.8-1.51-2.55-1.11,2.44-.57,2.8-1.29,1.87-2.55.61S50.11,49,51.44,48.39Z"/><circle class="cls-10" cx="54.08" cy="51.72" r="1.72"/><path class="cls-17" d="M31.82,30.83a6.35,6.35,0,0,1,2.82,1.08c1.53,1,2.63,1.24,2.35,3.16s3.49,11.73,14.45,13.16v6.56s-10.53-.86-15.22-7.08c0,0-3.22,7.69-1.44,12.22,0,0-7.75,3.71-15-.3C19.76,59.62,17.75,44.87,31.82,30.83Z"/><circle cx="69.39" cy="85.76" r="10.16"/><circle class="cls-4" cx="69.39" cy="85.76" r="7.98"/><path class="cls-14" d="M69.39,77.77h-.2a10.68,10.68,0,0,1,3.53,5.34c.76,3.3-1.45,8.51-5.78,10.24a8,8,0,1,0,2.45-15.59Z"/><path class="cls-18" d="M79.33,82.14a9.94,9.94,0,0,0-19.82,0Z"/><path class="cls-4" d="M77.25,80.59A.27.27,0,0,1,77,80.4c-1.52-5.32-7.53-5.76-7.59-5.76a.26.26,0,1,1,0-.53c.06,0,6.45.47,8.07,6.15a.27.27,0,0,1-.18.33Z"/><circle cx="19.04" cy="85.76" r="10.16"/><circle class="cls-4" cx="19.04" cy="85.76" r="7.98"/><path class="cls-14" d="M19,77.77h-.2a10.69,10.69,0,0,1,3.54,5.34c.76,3.3-1.46,8.51-5.78,10.24A8,8,0,1,0,19,77.77Z"/><path class="cls-18" d="M29.48,82.14a9.94,9.94,0,0,0-19.82,0Z"/><path class="cls-4" d="M27.4,80.59a.27.27,0,0,1-.26-.19c-1.52-5.32-7.53-5.76-7.59-5.76a.26.26,0,1,1,0-.53c.06,0,6.45.47,8.07,6.15a.27.27,0,0,1-.18.33Z"/></svg>