<svg id="Capa_1" data-name="Capa 1" xmlns="http://www.w3.org/2000/svg" viewBox="0 0 87.33 101.84"><defs><style>.cls-1{fill:#d9b489;}.cls-2{fill:#fff;}.cls-3{fill:#cbb69e;}.cls-4{fill:#437680;}.cls-5{fill:#1a2830;}.cls-6{fill:#5ba1c9;}.cls-7{fill:#666766;}.cls-8{fill:#807f80;}.cls-9{fill:#ebc699;}.cls-10{fill:#e3e3e2;}.cls-11{fill:#aa6d94;}.cls-12{fill:#ebd3b9;}.cls-13{fill:#333;}.cls-14{fill:#d782b1;}.cls-15{fill:#5392ab;}.cls-16{fill:#3b686e;}</style></defs><title>muñeco1</title><polygon class="cls-1" points="44.43 78.42 44.43 79.88 46.73 79.88 46.73 78.22 44.43 78.42"/><rect class="cls-2" x="62.11" y="46.89" width="1.09" height="5.7"/><rect x="60.74" y="46.39" width="1.64" height="6.8"/><path class="cls-3" d="M51.25,47.17s1.55-.67,2.24-1.08,3.54-1.16,4.28.27l-2.91,2.36S48.23,50.1,51.25,47.17Z"/><path class="cls-4" d="M61.38,46.16h-4a2.24,2.24,0,0,0-2,2.12v5.13h6Z"/><path d="M35.35,60l3.49-.2a47.79,47.79,0,0,0,5.73,3.06c1.71.59,2.76,1.85,2.76,5.76S46.92,79,46.92,79H45.5a59.76,59.76,0,0,1-2.35-11C39,65.47,37.16,60,35.35,60Z"/><path class="cls-4" d="M57.69,69.63s-1.81,10.82-10,11.23-16-3-14.62-9.8-8.72,8.77,2.43,13S59.77,84.06,57.69,69.63Z"/><circle class="cls-5" cx="57.57" cy="49.9" r="1.25"/><path class="cls-6" d="M56.32,53.41s4.41,15.33-1.54,26-29.09,1.85-20-12.11H23.17S19,69.9,18.93,70.86,30,84.15,30,84.15s13.48,8.06,27,.74c0,0,9.58-8.28,12.66-16.83,0,0-4.38-10.33-8.9-15.47S56.32,53.41,56.32,53.41Z"/><path class="cls-7" d="M44.43,79.88v2.83h6.32s0-2.83-4-2.83Z"/><rect class="cls-8" x="44.43" y="82.71" width="6.32" height="0.6"/><path d="M70.67,67.74A1,1,0,0,1,70.16,69h0a1,1,0,0,1-1.25-.51l-2.5-6a1,1,0,0,1,.51-1.25h0a1,1,0,0,1,1.25.51Z"/><polygon class="cls-9" points="42.58 78.89 42.58 80.35 44.88 80.35 44.88 78.69 42.58 78.89"/><path class="cls-7" d="M42.58,80.35v2.83H48.9s0-2.83-4-2.83Z"/><rect class="cls-8" x="42.58" y="83.18" width="6.32" height="0.6"/><rect class="cls-10" x="13.25" y="61.19" width="23.62" height="6.59" rx="3.29" ry="3.29"/><path class="cls-11" d="M38,38.22s2.92,7.37,13.29,9V48.9S36.76,60.46,38,38.22Z"/><path class="cls-12" d="M39,31.65l-1.95,2.87L32.73,32A5.71,5.71,0,0,0,34,29.41C34,28.27,39,31.65,39,31.65Z"/><path class="cls-13" d="M46.19,68.43c-.18-3.75-.93-4.74-4.36-6.54s-3.9-2.26-5.46-3.06c-1-.5-7.53.64-11.71,1.73l-3.07-.89a16.22,16.22,0,0,0,.82,1.75,8.3,8.3,0,0,0,1.28,2,7.3,7.3,0,0,0,1.8,1.72h0c2.73,2.12,7.65,4.24,16.34,3.93V79h4S46.37,72.18,46.19,68.43Z"/><path class="cls-12" d="M51.25,48.59a5.42,5.42,0,0,1,3.81-.86,3.48,3.48,0,0,1,2.33,5c-1.06,2-3,.86-2.53,0s.34-2.67-1.44-2.43-1.06,2.33-.55,2.67-1.23,1.78-2.43.58S50,49.21,51.25,48.59Z"/><circle class="cls-5" cx="53.76" cy="51.77" r="1.64"/><path class="cls-14" d="M32.54,31.85a6.06,6.06,0,0,1,2.69,1c1.46,1,2.51,1.19,2.24,3S40.8,47.07,51.25,48.44v6.25s-11.78-1.28-15.71-8.18c0,0-2.45,9.55,3.3,13.29A15,15,0,0,1,21,59.3S19.13,45.24,32.54,31.85Z"/><circle cx="68.35" cy="84.21" r="9.69"/><circle class="cls-2" cx="68.35" cy="84.21" r="7.61"/><path class="cls-10" d="M68.35,76.6h-.19a10.18,10.18,0,0,1,3.37,5.09c.72,3.15-1.39,8.11-5.51,9.76A7.61,7.61,0,1,0,68.35,76.6Z"/><path class="cls-15" d="M77.83,80.76a9.48,9.48,0,0,0-18.89,0Z"/><path class="cls-2" d="M75.85,79.29a.25.25,0,0,1-.24-.18c-1.45-5.07-7.18-5.49-7.24-5.49a.25.25,0,1,1,0-.5c.06,0,6.15.45,7.69,5.86a.25.25,0,0,1-.17.31Z"/><circle cx="20.36" cy="84.21" r="9.69"/><circle class="cls-2" cx="20.36" cy="84.21" r="7.61"/><path class="cls-10" d="M20.36,76.6h-.19a10.19,10.19,0,0,1,3.37,5.09c.72,3.15-1.39,8.11-5.51,9.76A7.61,7.61,0,1,0,20.36,76.6Z"/><path class="cls-15" d="M30.31,80.76a9.48,9.48,0,0,0-18.89,0Z"/><path class="cls-2" d="M28.33,79.29a.25.25,0,0,1-.24-.18c-1.45-5.07-7.18-5.49-7.24-5.49a.25.25,0,1,1,0-.5c.06,0,6.15.45,7.69,5.86a.25.25,0,0,1-.17.31Z"/><path class="cls-12" d="M46.31,15.62v14.2s.06,2.57-3.06,2.57-12.92-.86-13.16-12S46.31,13.6,46.31,15.62Z"/><path class="cls-13" d="M43.11,13.66H36.6c-3.55,0-6.42,1.34-6.42,4.69v6.23h0A8.06,8.06,0,0,1,27,31l-.36.27h6.79a2.46,2.46,0,0,0,2.35-2.45V25.57a3,3,0,0,0,.08-.38l-.08,0v-.56h-.63a1.4,1.4,0,0,1-.2-.72V21.54a1.44,1.44,0,0,1,1.38-1.46,1.41,1.41,0,0,1,1.44,1.41v2a.62.62,0,0,0,.55.63.61.61,0,0,0,.66-.6s0-1.75,0-2.89a.94.94,0,0,1,.94-.94h2.87c2.33,0,2.68-1.23,2.68-2.75V16A2.39,2.39,0,0,0,43.11,13.66Z"/><polygon class="cls-13" points="38.21 14.26 38.21 19.75 40.85 19.75 41.45 18.45 42.05 19.75 44.11 19.75 44.82 18.21 45.52 19.75 46.32 19.75 46.32 14.26 38.21 14.26"/><path d="M49.29,17.2S47.51,16,43.62,16s-5.9,1.35-5.45,3.86-5,.49-2.24-3.55,6.28-3.28,6.28-3.28l4.49.35S49.53,15.91,49.29,17.2Z"/><path class="cls-6" d="M47,13.69a7.69,7.69,0,0,0-6.93-5.56C34.29,7.52,29.82,9.73,27.55,15s1.78,13.35,7.53,12.86S40.41,22.34,39,21c0,0-2.2-2.45-1.59-4.59s2.75-2.94,5.27-2.94A38.67,38.67,0,0,1,47,13.69Z"/><path class="cls-2" d="M29.21,18.05H29.1a.55.55,0,0,1-.43-.65A9.6,9.6,0,0,1,32.6,11a9.72,9.72,0,0,1,6.76-1.28.55.55,0,0,1-.22,1.08,8.74,8.74,0,0,0-5.94,1.13,8.54,8.54,0,0,0-3.45,5.72A.55.55,0,0,1,29.21,18.05Z"/><circle class="cls-16" cx="33.53" cy="22.49" r="2.85"/></svg>