<svg id="Capa_1" data-name="Capa 1" xmlns="http://www.w3.org/2000/svg" xmlns:xlink="http://www.w3.org/1999/xlink" viewBox="0 0 87.33 101.84"><defs><style>.cls-1{fill:none;}.cls-2{fill:#d9b489;}.cls-3{fill:#fff;}.cls-4{fill:#cbb69e;}.cls-5{fill:#437680;}.cls-6{fill:#8d5651;}.cls-7{fill:#1a2830;}.cls-8{fill:#5ba1c9;}.cls-9{fill:#666766;}.cls-10{fill:#807f80;}.cls-11{fill:#ebc699;}.cls-12{fill:#e3e3e2;}.cls-13{fill:#69a196;}.cls-14{fill:#ebd3b9;}.cls-15{fill:#b26657;}.cls-16{fill:#79bdb3;}.cls-17{fill:#5392ab;}.cls-18{fill:#424243;}.cls-19{fill:#3b686e;}.cls-20{fill:#6c3e32;}.cls-21{clip-path:url(#clip-path);}.cls-22{fill:#9dcdc3;}</style><clipPath id="clip-path"><path class="cls-1" d="M32.79,31.84a6.09,6.09,0,0,1,2.71,1c1.47,1,2.53,1.19,2.25,3S41.1,47.16,51.61,48.53v6.29S40.08,52.6,35.21,45.9c0,0-2.22,9.16,3.92,14.07a15.08,15.08,0,0,1-17.9-.5S19.29,45.31,32.79,31.84Z"/></clipPath></defs><title>muñeco1</title><polygon class="cls-2" points="44.76 78.59 44.76 80.06 47.08 80.06 47.08 78.39 44.76 78.59"/><rect class="cls-3" x="62.55" y="46.86" width="1.1" height="5.74"/><rect x="61.17" y="46.36" width="1.65" height="6.84"/><path class="cls-4" d="M51.63,47.15s1.56-.68,2.25-1.09,3.56-1.17,4.31.28l-2.93,2.38S48.59,50.1,51.63,47.15Z"/><path class="cls-5" d="M61.82,46.13h-4a2.26,2.26,0,0,0-2,2.14v5.16h6Z"/><path class="cls-6" d="M37.16,59.53l2,.32a48.09,48.09,0,0,0,5.76,3.08c1.72.6,2.77,1.86,2.77,5.79s-.41,10.46-.41,10.46H45.84S41.64,59.44,37.16,59.53Z"/><path class="cls-5" d="M58.11,69.74S56.29,80.63,48,81s-16.12-3-14.71-9.86S24.54,80,35.77,84.28,60.2,84.27,58.11,69.74Z"/><circle class="cls-7" cx="57.99" cy="49.9" r="1.26"/><path class="cls-8" d="M56.73,53.43s4.44,15.42-1.55,26.17S25.91,81.45,35.07,67.41H23.37S19.17,70,19.1,71,30.26,84.36,30.26,84.36s13.56,8.11,27.13.75c0,0,9.64-8.33,12.74-16.94,0,0-4.41-10.4-9-15.56S56.73,53.43,56.73,53.43Z"/><path class="cls-9" d="M44.76,80.06v2.85h6.36s0-2.85-4-2.85Z"/><rect class="cls-10" x="44.76" y="82.91" width="6.36" height="0.6"/><path d="M71.17,67.84a1,1,0,0,1-.52,1.26h0a1,1,0,0,1-1.26-.51l-2.51-6a1,1,0,0,1,.51-1.26h0a1,1,0,0,1,1.26.52Z"/><polygon class="cls-11" points="42.9 79.06 42.9 80.53 45.22 80.53 45.22 78.86 42.9 79.06"/><path class="cls-9" d="M42.9,80.53v2.85h6.36s0-2.85-4-2.85Z"/><rect class="cls-10" x="42.9" y="83.38" width="6.36" height="0.6"/><rect class="cls-12" x="13.39" y="61.25" width="23.77" height="6.63" rx="3.31" ry="3.31"/><path class="cls-13" d="M38.25,38.14s2.93,7.42,13.38,9v1.73S37.05,60.51,38.25,38.14Z"/><path class="cls-14" d="M39.31,31.53l-2,2.89L33,31.9a5.74,5.74,0,0,0,1.29-2.62C34.32,28.13,39.31,31.53,39.31,31.53Z"/><path class="cls-15" d="M46.53,68.54c-.18-3.78-.93-4.77-4.38-6.58s-4.06-2-4.43-3.4c-.28-1.06-8.64,1-12.84,2.06l-3.09-.9a16.32,16.32,0,0,0,.82,1.76,8.36,8.36,0,0,0,1.28,2,7.35,7.35,0,0,0,1.81,1.73h0c2.75,2.13,7.7,4.26,16.44,4v10h4S46.71,72.32,46.53,68.54Z"/><path class="cls-14" d="M51.63,48.57a5.46,5.46,0,0,1,3.83-.86,3.5,3.5,0,0,1,2.34,5c-1.07,2-3.06.86-2.55,0s.34-2.69-1.45-2.44-1.07,2.34-.55,2.69-1.24,1.79-2.44.59S50.35,49.2,51.63,48.57Z"/><circle class="cls-7" cx="54.15" cy="51.77" r="1.65"/><path class="cls-16" d="M32.79,31.73a6.09,6.09,0,0,1,2.71,1c1.47,1,2.53,1.19,2.25,3S41.1,47,51.61,48.42v6.29S40.23,52.8,35.21,45.9c0,0-2.23,9.34,3.92,14a15.08,15.08,0,0,1-17.9-.5S19.29,45.2,32.79,31.73Z"/><circle cx="68.84" cy="84.42" r="9.75"/><circle class="cls-3" cx="68.84" cy="84.42" r="7.66"/><path class="cls-12" d="M68.84,76.76h-.19A10.25,10.25,0,0,1,72,81.89c.73,3.17-1.39,8.16-5.54,9.82a7.66,7.66,0,1,0,2.35-14.95Z"/><path class="cls-17" d="M78.37,80.94a9.54,9.54,0,0,0-19,0Z"/><path class="cls-3" d="M76.38,79.46a.25.25,0,0,1-.25-.18c-1.46-5.1-7.22-5.52-7.28-5.53a.25.25,0,1,1,0-.51c.06,0,6.18.45,7.74,5.89a.26.26,0,0,1-.17.31Z"/><circle cx="20.55" cy="84.42" r="9.75"/><circle class="cls-3" cx="20.55" cy="84.42" r="7.66"/><path class="cls-12" d="M20.55,76.76h-.19a10.25,10.25,0,0,1,3.39,5.13c.73,3.17-1.4,8.16-5.55,9.82a7.66,7.66,0,1,0,2.35-14.95Z"/><path class="cls-17" d="M30.56,80.94a9.54,9.54,0,0,0-19,0Z"/><path class="cls-3" d="M28.56,79.46a.25.25,0,0,1-.25-.18c-1.46-5.1-7.22-5.52-7.28-5.53a.25.25,0,1,1,0-.51c.06,0,6.18.45,7.74,5.89a.26.26,0,0,1-.17.31Z"/><path class="cls-15" d="M40.4,34.49s0,.07,0,0,0-.05,0,0a3.71,3.71,0,0,0-1.49-1.32,16.08,16.08,0,0,0-1.86-.9L36.52,32a4.47,4.47,0,0,1-.94.1H32.22l.07,0a8.94,8.94,0,0,1,5.43,2.07,5.41,5.41,0,0,1,1.05.74,7.63,7.63,0,0,1-2,.25l-2.11.06c-1.42,0-2.84.08-4.26.19a15.12,15.12,0,0,0-7.73,2.27A12.06,12.06,0,0,0,20,40.39c.06.48.21,1.54.21,1.54l1.69-.21s.64-.87.91-1.16a8.18,8.18,0,0,1,2.1-1.67,14.4,14.4,0,0,1,5.29-1.45c2-.24,4-.33,6-.46a11.67,11.67,0,0,0,3.08-.45,2,2,0,0,0,1.1-.79A1.3,1.3,0,0,0,40.4,34.49ZM39,35.18h0Z"/><path class="cls-14" d="M46.65,15.4V29.69s.06,2.59-3.08,2.59-13-.86-13.24-12.07S46.65,13.37,46.65,15.4Z"/><path class="cls-18" d="M48.41,15.07c.46.7.6,4.21-2.92,5.81.21-.6.08-2.85-.79-3.24a7.08,7.08,0,0,1-2.82,2.13c-2,.81-2,2.08-2,2.61s-2.46-2.29-2.46-2.19v5.2a2,2,0,0,1-2.22,1.72H32V16.22c0-2.1,2.19-3.8,4.89-3.8h6.61C47.1,12.42,47.41,13.56,48.41,15.07Z"/><path d="M49.66,17s-1.79-1.17-5.7-1.17S38,17.17,38.47,19.7s-5,.49-2.25-3.57,6.32-3.31,6.32-3.31l4.52.35S49.9,15.69,49.66,17Z"/><path class="cls-8" d="M47.38,13.46a7.74,7.74,0,0,0-7-5.59c-5.85-.62-10.35,1.6-12.63,6.9s1.79,13.43,7.58,12.94,5.36-5.54,3.94-6.9c0,0-2.22-2.47-1.6-4.62s2.77-3,5.3-3A38.91,38.91,0,0,1,47.38,13.46Z"/><path class="cls-3" d="M29.45,17.85h-.11a.56.56,0,0,1-.43-.65,9.66,9.66,0,0,1,4-6.47,9.78,9.78,0,0,1,6.8-1.29.55.55,0,0,1-.23,1.09,8.79,8.79,0,0,0-6,1.14A8.6,8.6,0,0,0,30,17.41.55.55,0,0,1,29.45,17.85Z"/><circle class="cls-19" cx="33.79" cy="22.32" r="2.86"/><rect class="cls-20" x="40" y="21.31" width="6.89" height="0.67"/><path class="cls-20" d="M47.08,21.18h-.84v1a.4.4,0,0,1,.4.4V24.9a.34.34,0,0,0,.31.34.33.33,0,0,0,.34-.33V21.18Z"/><g class="cls-21"><rect class="cls-22" x="20.6" y="52.29" width="31.66" height="1.77"/><rect class="cls-22" x="20.6" y="59.86" width="31.66" height="1.77"/><rect class="cls-22" x="20.6" y="56.07" width="31.66" height="1.77"/><path class="cls-22" d="M20.91,37.14a7.12,7.12,0,0,0-.3,1.77H49.75a15,15,0,0,0-1.13-1.77Z"/><path class="cls-22" d="M20.6,48.5v1.77H52.26q0-.91-.06-1.77Z"/><path class="cls-22" d="M23.5,33.36a8.25,8.25,0,0,0-1.63,1.77H46.79a13.58,13.58,0,0,0-2.49-1.77Z"/><path class="cls-22" d="M20.6,44.71v1.77H52c-.07-.61-.16-1.2-.27-1.77Z"/><path class="cls-22" d="M20.6,40.93V42.7H51.28q-.26-.93-.59-1.77Z"/></g></svg>