<?xml version="1.0" encoding="utf-8"?>
<!-- Generator: Adobe Illustrator 21.1.0, SVG Export Plug-In . SVG Version: 6.00 Build 0)  -->
<svg version="1.1" id="Capa_1" xmlns="http://www.w3.org/2000/svg" xmlns:xlink="http://www.w3.org/1999/xlink" x="0px" y="0px"
	 viewBox="0 0 42.6 40.6" style="enable-background:new 0 0 42.6 40.6;" xml:space="preserve">
<style type="text/css">
	.st0{fill:#29496B;}
	.st1{fill:#FFFFFF;}
</style>
<g>
	<circle class="st0" cx="21.7" cy="20.7" r="18"/>
	<g>
		<g>
			<path class="st1" d="M25.6,12.8l-2,0c-2.3,0-3.8,1.5-3.8,3.9v1.8h-2c-0.2,0-0.3,0.1-0.3,0.3v2.6c0,0.2,0.1,0.3,0.3,0.3h2v6.5
				c0,0.2,0.1,0.3,0.3,0.3h2.7c0.2,0,0.3-0.1,0.3-0.3v-6.5h2.4c0.2,0,0.3-0.1,0.3-0.3l0-2.6c0-0.1,0-0.2-0.1-0.2
				c-0.1-0.1-0.1-0.1-0.2-0.1h-2.4V17c0-0.7,0.2-1.1,1.1-1.1l1.4,0c0.2,0,0.3-0.1,0.3-0.3v-2.4C25.9,13,25.8,12.8,25.6,12.8
				L25.6,12.8z M25.6,12.8"/>
		</g>
	</g>
</g>
</svg>
