<?xml version="1.0" encoding="utf-8"?>
<!-- Generator: Adobe Illustrator 21.1.0, SVG Export Plug-In . SVG Version: 6.00 Build 0)  -->
<svg version="1.1" id="Capa_1" xmlns="http://www.w3.org/2000/svg" xmlns:xlink="http://www.w3.org/1999/xlink" x="0px" y="0px"
	 viewBox="0 0 40.7 40.6" style="enable-background:new 0 0 40.7 40.6;" xml:space="preserve">
<style type="text/css">
	.st0{fill:#29496B;}
	.st1{fill:#FFFFFF;}
</style>
<g>
	<circle class="st0" cx="20.7" cy="20.6" r="18"/>
	<g>
		<g>
			<path class="st1" d="M27.9,15.8c-0.3,0.1-0.7,0.3-1,0.3c0.4-0.4,0.7-0.8,0.8-1.3c0-0.1-0.1-0.3-0.2-0.2c-0.5,0.3-1,0.5-1.6,0.6
				c0,0-0.1,0-0.1,0c-0.1,0-0.2,0-0.3-0.1c-0.6-0.5-1.3-0.8-2.1-0.8c-0.3,0-0.7,0.1-1,0.2c-1,0.3-1.8,1.2-2.1,2.2
				c-0.1,0.4-0.1,0.8-0.1,1.2c0,0,0,0.1,0,0.1c0,0-0.1,0-0.1,0l0,0c-2.3-0.2-4.3-1.3-5.8-3.1c-0.1-0.1-0.2-0.1-0.3,0
				c-0.3,0.5-0.4,1-0.4,1.6c0,0.9,0.4,1.7,1,2.3c-0.3-0.1-0.5-0.2-0.7-0.3c-0.1-0.1-0.2,0-0.2,0.1c0,1.3,0.7,2.4,1.9,3
				c0,0,0,0-0.1,0c-0.2,0-0.4,0-0.5-0.1c-0.1,0-0.2,0.1-0.2,0.2c0.4,1.2,1.4,2,2.5,2.2c-1,0.7-2.1,1-3.3,1l-0.4,0
				c-0.1,0-0.2,0.1-0.2,0.2c0,0.1,0,0.2,0.1,0.3c1.3,0.8,2.9,1.2,4.4,1.2c1.4,0,2.6-0.3,3.8-0.8c1.1-0.5,2-1.2,2.8-2.1
				c0.7-0.8,1.3-1.8,1.7-2.8c0.4-1,0.6-2.1,0.6-3.1v0c0-0.2,0.1-0.3,0.2-0.4c0.5-0.4,0.9-0.9,1.3-1.4C28.2,15.9,28,15.8,27.9,15.8
				L27.9,15.8z M27.9,15.8"/>
		</g>
	</g>
</g>
</svg>
