<?xml version="1.0" encoding="utf-8"?>
<!-- Generator: Adobe Illustrator 21.1.0, SVG Export Plug-In . SVG Version: 6.00 Build 0)  -->
<svg version="1.1" id="Capa_1" xmlns="http://www.w3.org/2000/svg" xmlns:xlink="http://www.w3.org/1999/xlink" x="0px" y="0px"
	 viewBox="0 0 47 41.7" style="enable-background:new 0 0 47 41.7;" xml:space="preserve">
<style type="text/css">
	.st0{fill:#29496B;}
	.st1{clip-path:url(#SVGID_2_);}
	.st2{clip-path:url(#SVGID_6_);}
	.st3{clip-path:url(#SVGID_10_);}
</style>
<g>
	<circle class="st0" cx="22.8" cy="20.7" r="18"/>
	<g>
		<g>
			<defs>
				<path id="SVGID_1_" d="M26.4,11.9h-7.1c-2.9,0-5.2,2.3-5.2,5.2v7.1c0,2.9,2.3,5.2,5.2,5.2h7.1c2.9,0,5.2-2.3,5.2-5.2v-7.1
					C31.6,14.3,29.2,11.9,26.4,11.9L26.4,11.9z M29.8,24.2c0,1.9-1.5,3.5-3.5,3.5h-7.1c-1.9,0-3.5-1.5-3.5-3.5v-7.1
					c0-1.9,1.5-3.5,3.5-3.5h7.1c1.9,0,3.5,1.5,3.5,3.5V24.2z M29.8,24.2"/>
			</defs>
			<use xlink:href="#SVGID_1_"  style="overflow:visible;fill:#FFFFFF;"/>
			<clipPath id="SVGID_2_">
				<use xlink:href="#SVGID_1_"  style="overflow:visible;"/>
			</clipPath>
			<g class="st1">
				<defs>
					<rect id="SVGID_3_" x="14.1" y="11.9" width="17.5" height="17.5"/>
				</defs>
				<use xlink:href="#SVGID_3_"  style="overflow:visible;fill:#FFFFFF;"/>
				<clipPath id="SVGID_4_">
					<use xlink:href="#SVGID_3_"  style="overflow:visible;"/>
				</clipPath>
			</g>
		</g>
		<g>
			<defs>
				<path id="SVGID_5_" d="M22.8,16.1c-2.5,0-4.5,2-4.5,4.5c0,2.5,2,4.5,4.5,4.5s4.5-2,4.5-4.5S25.3,16.1,22.8,16.1L22.8,16.1z
					 M22.8,23.4c-1.5,0-2.8-1.2-2.8-2.8c0-1.5,1.2-2.8,2.8-2.8c1.5,0,2.8,1.2,2.8,2.8C25.6,22.2,24.4,23.4,22.8,23.4L22.8,23.4z
					 M22.8,23.4"/>
			</defs>
			<use xlink:href="#SVGID_5_"  style="overflow:visible;fill:#FFFFFF;"/>
			<clipPath id="SVGID_6_">
				<use xlink:href="#SVGID_5_"  style="overflow:visible;"/>
			</clipPath>
			<g class="st2">
				<defs>
					<rect id="SVGID_7_" x="18.3" y="16.1" width="9.1" height="9.1"/>
				</defs>
				<use xlink:href="#SVGID_7_"  style="overflow:visible;fill:#FFFFFF;"/>
				<clipPath id="SVGID_8_">
					<use xlink:href="#SVGID_7_"  style="overflow:visible;"/>
				</clipPath>
			</g>
		</g>
		<g>
			<defs>
				<path id="SVGID_9_" d="M28.4,16.2c0,0.6-0.5,1.1-1.1,1.1c-0.6,0-1.1-0.5-1.1-1.1c0-0.6,0.5-1.1,1.1-1.1
					C28,15.1,28.4,15.6,28.4,16.2L28.4,16.2z M28.4,16.2"/>
			</defs>
			<use xlink:href="#SVGID_9_"  style="overflow:visible;fill:#FFFFFF;"/>
			<clipPath id="SVGID_10_">
				<use xlink:href="#SVGID_9_"  style="overflow:visible;"/>
			</clipPath>
			<g class="st3">
				<defs>
					<rect id="SVGID_11_" x="26.3" y="15.1" width="2.2" height="2.2"/>
				</defs>
				<use xlink:href="#SVGID_11_"  style="overflow:visible;fill:#FFFFFF;"/>
				<clipPath id="SVGID_12_">
					<use xlink:href="#SVGID_11_"  style="overflow:visible;"/>
				</clipPath>
			</g>
		</g>
	</g>
</g>
</svg>
