<?xml version="1.0" encoding="utf-8"?>
<!-- Generator: Adobe Illustrator 21.1.0, SVG Export Plug-In . SVG Version: 6.00 Build 0)  -->
<svg version="1.1" id="Capa_1" xmlns="http://www.w3.org/2000/svg" xmlns:xlink="http://www.w3.org/1999/xlink" x="0px" y="0px"
	 viewBox="0 0 40.6 40.6" style="enable-background:new 0 0 40.6 40.6;" xml:space="preserve">
<style type="text/css">
	.st0{fill:#FFFFFF;}
	.st1{fill:#29496B;}
</style>
<g>
	<circle class="st0" cx="19.6" cy="20" r="18"/>
	<g>
		<g>
			<path class="st1" d="M19.8,9.2c-5.4,0.3-9.6,4.7-9.6,10.1c0,1.6,0.4,3.2,1.1,4.5L10.3,29c-0.1,0.3,0.2,0.5,0.5,0.5l5.1-1.2
				c1.3,0.6,2.8,1,4.3,1c5.5,0.1,10-4.3,10.2-9.7C30.5,13.7,25.7,8.9,19.8,9.2L19.8,9.2z M26.3,25.2c-1.6,1.6-3.7,2.5-6,2.5
				c-1.3,0-2.6-0.3-3.8-0.9l-0.8-0.4l-3.4,0.8l0.7-3.4l-0.4-0.7c-0.6-1.2-0.9-2.5-0.9-3.9c0-2.3,0.9-4.4,2.5-6
				c1.6-1.6,3.8-2.5,6-2.5c2.3,0,4.4,0.9,6,2.5c1.6,1.6,2.5,3.7,2.5,6C28.8,21.5,27.9,23.6,26.3,25.2L26.3,25.2z M25.6,24.5"/>
		</g>
		<path class="st1" d="M24.9,21.3l-1.9-0.5c-0.2-0.1-0.5,0-0.7,0.2l-0.5,0.5c-0.2,0.2-0.5,0.3-0.7,0.2c-0.9-0.4-2.7-2-3.2-2.8
			c-0.1-0.2-0.1-0.5,0.1-0.7l0.4-0.5c0.2-0.2,0.2-0.5,0.1-0.7L17.8,15c-0.2-0.4-0.7-0.5-1.1-0.2c-0.5,0.4-1.1,1.1-1.2,1.8
			c-0.1,1.3,0.4,2.9,2.5,4.9c2.4,2.3,4.4,2.6,5.7,2.3c0.7-0.2,1.3-0.9,1.7-1.4C25.6,21.9,25.4,21.4,24.9,21.3L24.9,21.3z M24.9,21.3
			"/>
	</g>
</g>
</svg>
