<?xml version="1.0" encoding="utf-8"?>
<!-- Generator: Adobe Illustrator 21.1.0, SVG Export Plug-In . SVG Version: 6.00 Build 0)  -->
<svg version="1.1" id="Capa_1" xmlns="http://www.w3.org/2000/svg" xmlns:xlink="http://www.w3.org/1999/xlink" x="0px" y="0px"
	 viewBox="0 0 119.3 39" style="enable-background:new 0 0 119.3 39;" xml:space="preserve">
<style type="text/css">
	.st0{fill:#AE414F;}
	.st1{fill:#FFFFFF;}
	.st2{opacity:0.75;fill:#FFFFFF;}
	.st3{opacity:0.85;fill:#FFFFFF;}
	.st4{opacity:0.9;fill:#FFFFFF;}
</style>
<g>
	<path class="st0" d="M119.3,33.8c0,2.9-2.4,5.3-5.3,5.3H5.3C2.4,39,0,36.7,0,33.8V5.3C0,2.4,2.4,0,5.3,0H114c2.9,0,5.3,2.4,5.3,5.3
		V33.8z"/>
	<g>
		<path class="st1" d="M39.8,9.8H39c0-0.1-0.1-0.4-0.2-1h-1.2c-0.2,0.5-0.2,0.8-0.2,1h-0.8c0-0.1,0.2-0.6,0.6-1.7
			c0.4-1,0.6-1.6,0.6-1.7h1c0,0.1,0.2,0.7,0.5,1.7C39.6,9.1,39.8,9.7,39.8,9.8 M38.6,8.3c-0.3-0.9-0.4-1.4-0.4-1.4h0
			c0,0.1-0.2,0.6-0.5,1.4H38.6z"/>
		<path class="st1" d="M43.2,9.8h-0.6c0-0.1-0.2-0.4-0.7-1.1C41.3,7.9,41,7.4,41,7.2h0c0,0.4,0.1,0.7,0.1,1c0,0.4,0,0.9,0,1.6h-0.6
			c0-0.5,0-1.1,0-1.8c0-0.6,0-1.2,0-1.6h0.8c0,0.1,0.2,0.5,0.6,1.1c0.5,0.7,0.7,1.1,0.8,1.4h0c0-0.4-0.1-0.7-0.1-1
			c0-0.5,0-0.9,0-1.4h0.6c0,0.4,0,1,0,1.6C43.1,8.7,43.2,9.2,43.2,9.8"/>
		<path class="st1" d="M46.9,8c0,0.5-0.2,0.9-0.5,1.3c-0.3,0.4-0.8,0.6-1.3,0.6c-0.3,0-0.6,0-1.1,0c0-0.5,0-1.1,0-1.8
			c0-0.6,0-1.2,0-1.6h0.5c0.1,0,0.2,0,0.3,0c0.1,0,0.2,0,0.3,0c0.6,0,1.1,0.2,1.4,0.5C46.8,7.2,46.9,7.5,46.9,8 M46.2,8.1
			c0-0.3-0.1-0.6-0.3-0.8C45.7,7,45.4,6.9,45,6.9c-0.1,0-0.2,0-0.3,0c0,0.3,0,0.7,0,1.1c0,0.4,0,0.8,0,1.2c0.1,0,0.2,0,0.3,0
			c0.4,0,0.6-0.1,0.8-0.3C46.1,8.7,46.2,8.4,46.2,8.1"/>
		<path class="st1" d="M50.4,9.8h-0.8c-0.2-0.6-0.4-1-0.5-1.1c-0.1-0.1-0.3-0.2-0.5-0.2c-0.1,0-0.2,0-0.3,0c0,0.4,0,0.9,0,1.3h-0.7
			c0-0.5,0-1.1,0-1.8c0-0.6,0-1.2,0-1.6h0.4c0.1,0,0.2,0,0.3,0c0.2,0,0.3,0,0.5,0c0.8,0,1.2,0.3,1.2,0.8c0,0.4-0.2,0.7-0.7,0.9v0
			c0.2,0,0.3,0.2,0.5,0.4C50,8.8,50.2,9.2,50.4,9.8 M49.4,7.4c0-0.3-0.2-0.5-0.7-0.5c-0.2,0-0.3,0-0.4,0c0,0.3,0,0.6,0,1
			c0.1,0,0.2,0,0.2,0C49.2,8,49.4,7.8,49.4,7.4"/>
		<path class="st1" d="M54.1,8c0,0.5-0.2,1-0.5,1.3c-0.3,0.3-0.7,0.5-1.2,0.5c-0.5,0-0.8-0.2-1.1-0.5c-0.3-0.3-0.5-0.7-0.5-1.2
			c0-0.5,0.2-1,0.5-1.3c0.3-0.3,0.7-0.5,1.2-0.5c0.5,0,0.8,0.2,1.1,0.5C54,7.1,54.1,7.5,54.1,8 M53.4,8.1c0-0.4-0.1-0.7-0.3-0.9
			c-0.2-0.2-0.4-0.3-0.7-0.3c-0.3,0-0.5,0.1-0.6,0.3c-0.2,0.2-0.3,0.5-0.3,0.9c0,0.4,0.1,0.7,0.3,0.9s0.4,0.3,0.7,0.3
			c0.3,0,0.5-0.1,0.6-0.3C53.3,8.7,53.4,8.4,53.4,8.1"/>
		<path class="st1" d="M55.6,9.8h-0.7c0-0.5,0-1.1,0-1.8c0-0.6,0-1.2,0-1.6h0.7c0,0.4,0,1,0,1.6C55.6,8.7,55.6,9.2,55.6,9.8"/>
		<path class="st1" d="M59.4,8c0,0.5-0.2,0.9-0.5,1.3c-0.3,0.4-0.8,0.6-1.3,0.6c-0.3,0-0.6,0-1.1,0c0-0.5,0-1.1,0-1.8
			c0-0.6,0-1.2,0-1.6H57c0.1,0,0.2,0,0.3,0c0.1,0,0.2,0,0.3,0c0.6,0,1.1,0.2,1.4,0.5C59.2,7.2,59.4,7.5,59.4,8 M58.6,8.1
			c0-0.3-0.1-0.6-0.3-0.8c-0.2-0.2-0.5-0.3-0.9-0.3c-0.1,0-0.2,0-0.3,0c0,0.3,0,0.7,0,1.1c0,0.4,0,0.8,0,1.2c0.1,0,0.2,0,0.3,0
			c0.4,0,0.6-0.1,0.8-0.3C58.6,8.7,58.6,8.4,58.6,8.1"/>
		<path class="st1" d="M64.3,9.8h-0.8c0-0.1-0.1-0.4-0.2-1h-1.2c-0.2,0.5-0.2,0.8-0.2,1h-0.8c0-0.1,0.2-0.6,0.6-1.7
			c0.4-1,0.6-1.6,0.6-1.7h1c0,0.1,0.2,0.7,0.5,1.7C64.2,9.1,64.3,9.7,64.3,9.8 M63.1,8.3c-0.3-0.9-0.4-1.4-0.4-1.4h0
			c0,0.1-0.2,0.6-0.5,1.4H63.1z"/>
		<path class="st1" d="M67.4,7.3c0,0.4-0.2,0.7-0.5,0.9c-0.3,0.2-0.7,0.3-1.1,0.3c-0.1,0-0.1,0-0.2,0c0,0.3,0,0.8,0,1.3h-0.7
			c0-0.5,0-1.1,0-1.8c0-0.6,0-1.2,0-1.6h0.5c0.1,0,0.2,0,0.4,0c0.2,0,0.3,0,0.5,0c0.3,0,0.6,0.1,0.8,0.2C67.3,6.8,67.4,7,67.4,7.3
			 M66.7,7.4c0-0.4-0.2-0.6-0.7-0.6c-0.1,0-0.3,0-0.4,0c0,0.3,0,0.7,0,1.1c0,0,0.1,0,0.2,0C66.4,8,66.7,7.8,66.7,7.4"/>
		<path class="st1" d="M70.5,7.3c0,0.4-0.2,0.7-0.5,0.9c-0.3,0.2-0.7,0.3-1.1,0.3c-0.1,0-0.1,0-0.2,0c0,0.3,0,0.8,0,1.3H68
			c0-0.5,0-1.1,0-1.8c0-0.6,0-1.2,0-1.6h0.5c0.1,0,0.2,0,0.4,0c0.2,0,0.3,0,0.5,0c0.3,0,0.6,0.1,0.8,0.2C70.4,6.8,70.5,7,70.5,7.3
			 M69.8,7.4c0-0.4-0.2-0.6-0.7-0.6c-0.1,0-0.3,0-0.4,0c0,0.3,0,0.7,0,1.1c0,0,0.1,0,0.2,0C69.5,8,69.8,7.8,69.8,7.4"/>
		<path class="st1" d="M75.6,8c0,0.5-0.2,1-0.5,1.3c-0.3,0.3-0.7,0.5-1.2,0.5c-0.5,0-0.8-0.2-1.1-0.5c-0.3-0.3-0.5-0.7-0.5-1.2
			c0-0.5,0.2-1,0.5-1.3c0.3-0.3,0.7-0.5,1.2-0.5c0.5,0,0.8,0.2,1.1,0.5C75.4,7.1,75.6,7.5,75.6,8 M74.9,8.1c0-0.4-0.1-0.7-0.3-0.9
			c-0.2-0.2-0.4-0.3-0.7-0.3c-0.3,0-0.5,0.1-0.6,0.3C73.1,7.4,73,7.7,73,8.1c0,0.4,0.1,0.7,0.3,0.9c0.2,0.2,0.4,0.3,0.7,0.3
			c0.3,0,0.5-0.1,0.6-0.3C74.8,8.7,74.9,8.4,74.9,8.1"/>
		<path class="st1" d="M79.1,9.8h-0.6c0-0.1-0.2-0.4-0.7-1.1c-0.5-0.7-0.8-1.2-0.9-1.5h0c0,0.4,0.1,0.7,0.1,1c0,0.4,0,0.9,0,1.6
			h-0.6c0-0.5,0-1.1,0-1.8c0-0.6,0-1.2,0-1.6h0.8c0,0.1,0.2,0.5,0.6,1.1c0.5,0.7,0.7,1.1,0.8,1.4h0c0-0.4-0.1-0.7-0.1-1
			c0-0.5,0-0.9,0-1.4h0.6c0,0.4,0,1,0,1.6C79,8.7,79.1,9.2,79.1,9.8"/>
	</g>
	<g>
		<path class="st1" d="M59.9,20.6c-2.2,0-3.9,1.6-3.9,3.9c0,2.2,1.8,3.9,3.9,3.9c2.2,0,3.9-1.6,3.9-3.9C63.8,22.2,62,20.6,59.9,20.6
			z M59.9,26.8c-1.2,0-2.2-1-2.2-2.4c0-1.4,1-2.4,2.2-2.4s2.2,1,2.2,2.4C62.1,25.8,61.1,26.8,59.9,26.8z M51.4,20.6
			c-2.2,0-3.9,1.6-3.9,3.9c0,2.2,1.8,3.9,3.9,3.9c2.2,0,3.9-1.6,3.9-3.9C55.3,22.2,53.5,20.6,51.4,20.6z M51.4,26.8
			c-1.2,0-2.2-1-2.2-2.4c0-1.4,1-2.4,2.2-2.4c1.2,0,2.2,1,2.2,2.4C53.6,25.8,52.5,26.8,51.4,26.8z M41.2,21.7v1.6h3.9
			c-0.1,0.9-0.4,1.6-0.9,2.1c-0.6,0.6-1.5,1.2-3,1.2c-2.4,0-4.3-2-4.3-4.4s1.9-4.4,4.3-4.4c1.3,0,2.3,0.5,3,1.2l1.2-1.2
			c-1-0.9-2.3-1.7-4.1-1.7c-3.3,0-6.1,2.7-6.1,6c0,3.3,2.8,6,6.1,6c1.8,0,3.2-0.6,4.2-1.7c1.1-1.1,1.4-2.6,1.4-3.9
			c0-0.4,0-0.7-0.1-1H41.2z M82.6,23c-0.3-0.9-1.3-2.5-3.3-2.5c-2,0-3.7,1.6-3.7,3.9c0,2.2,1.6,3.9,3.9,3.9c1.8,0,2.8-1.1,3.2-1.7
			l-1.3-0.9c-0.4,0.6-1,1.1-1.9,1.1c-0.9,0-1.5-0.4-1.9-1.2l5.2-2.2L82.6,23z M77.3,24.3c0-1.5,1.2-2.3,2-2.3c0.7,0,1.3,0.3,1.4,0.8
			L77.3,24.3z M73.1,28.1h1.7V16.7h-1.7V28.1z M70.3,21.4L70.3,21.4c-0.4-0.5-1.2-0.9-2.1-0.9c-1.9,0-3.7,1.7-3.7,3.9
			c0,2.2,1.8,3.9,3.7,3.9c0.9,0,1.7-0.4,2-0.9h0.1V28c0,1.5-0.8,2.3-2.1,2.3c-1,0-1.7-0.8-2-1.4l-1.5,0.6c0.4,1,1.6,2.3,3.4,2.3
			c2,0,3.7-1.2,3.7-4v-7h-1.6V21.4z M68.4,26.8c-1.2,0-2.2-1-2.2-2.3c0-1.4,1-2.4,2.2-2.4c1.2,0,2.1,1,2.1,2.4
			C70.4,25.8,69.5,26.8,68.4,26.8z M90.7,16.7h-4.1v11.4h1.7v-4.3h2.4c1.9,0,3.7-1.4,3.7-3.5S92.5,16.7,90.7,16.7z M90.7,22.2h-2.4
			v-3.9h2.4c1.3,0,2,1.1,2,2C92.7,21.1,92,22.2,90.7,22.2z M101.2,20.5c-1.2,0-2.5,0.5-3,1.7l1.5,0.6c0.3-0.6,0.9-0.8,1.6-0.8
			c0.9,0,1.8,0.5,1.8,1.5v0.1c-0.3-0.2-1-0.4-1.8-0.4c-1.6,0-3.3,0.9-3.3,2.6c0,1.5,1.3,2.5,2.8,2.5c1.1,0,1.8-0.5,2.2-1.1h0.1v0.9
			h1.6v-4.4C104.7,21.7,103.2,20.5,101.2,20.5z M101,26.8c-0.6,0-1.3-0.3-1.3-1c0-0.9,1-1.2,1.8-1.2c0.7,0,1.1,0.2,1.6,0.4
			C102.9,26,102,26.8,101,26.8z M110.7,20.8l-2,5h-0.1l-2-5h-1.8l3,6.9l-1.7,3.9h1.8l4.7-10.8H110.7z M95.3,28.1H97V16.7h-1.7V28.1z
			"/>
		<g>
			<path class="st1" d="M7.1,7.6C6.9,7.9,6.7,8.3,6.7,8.9v20.2c0,0.6,0.2,1,0.4,1.3l0.1,0.1l11.3-11.3V19v-0.1L7.1,7.6L7.1,7.6z"/>
			<path class="st2" d="M22.3,22.9l-3.8-3.8V19v-0.1l3.8-3.8l0.1,0l4.5,2.5c1.3,0.7,1.3,1.9,0,2.6L22.3,22.9L22.3,22.9z"/>
			<path class="st3" d="M22.4,22.8L18.5,19L7.1,30.3c0.4,0.4,1.1,0.5,1.9,0.1L22.4,22.8"/>
			<path class="st4" d="M22.4,15.1L9,7.5C8.2,7.1,7.5,7.1,7.1,7.6L18.5,19L22.4,15.1z"/>
		</g>
	</g>
</g>
</svg>
