<?xml version="1.0" encoding="utf-8"?>
<!-- Generator: Adobe Illustrator 21.1.0, SVG Export Plug-In . SVG Version: 6.00 Build 0)  -->
<svg version="1.1" id="Capa_1" xmlns="http://www.w3.org/2000/svg" xmlns:xlink="http://www.w3.org/1999/xlink" x="0px" y="0px"
	 viewBox="0 0 113.5 229.5" style="enable-background:new 0 0 113.5 229.5;" xml:space="preserve">
<style type="text/css">
	.st0{fill:#F3F3F2;}
	.st1{fill:#FFFFFF;}
	.st2{fill:#CCCCCC;}
	.st3{fill:url(#SVGID_1_);}
	.st4{fill:#202020;}
	.st5{stroke:#202020;stroke-width:0.33;stroke-miterlimit:10;}
</style>
<g id="Layer_1">
	<path class="st0" d="M112.4,210.7l-0.2-192.1c0-9.7-7.9-17.5-17.5-17.5c0,0,0,0,0,0l-76,0.1C9,1.3,1.2,9.1,1.2,18.8c0,0,0,0,0,0
		l0.2,192.1c0,9.7,8.1,17.3,17.8,17.2l76-0.1c9.4,0.1,17.1-7.5,17.2-17C112.4,211,112.4,210.9,112.4,210.7z M7.4,196
		c-0.7,0-1.3-0.6-1.3-1.4L6,29.2c0-0.7,0.6-1.3,1.3-1.3l99-0.1c0.7,0,1.3,0.6,1.3,1.3l0.2,165.4c0,0.7-0.6,1.3-1.3,1.3L7.4,196z"/>
	
		<image style="overflow:visible;opacity:0.25;enable-background:new    ;" width="154" height="270" xlink:href="9DEDD1BDB8ADBCC9.png"  transform="matrix(0.9935 0 0 0.9963 -14.75 -15.39)">
	</image>
	<path class="st1" d="M110.6,210.1l-0.2-191c0-8-5.7-16-16.2-16L19.2,3.2C9.6,3.2,3,10.1,3,19l0.2,191.4c0,9.8,7.5,15.9,16.5,15.9
		l74.8-0.1C103.8,226.1,110.6,219.9,110.6,210.1z M7.5,196c-0.7,0-1.3-0.6-1.3-1.3c0,0,0,0,0,0L6,29.2c0-0.7,0.6-1.3,1.3-1.3l99-0.1
		c0.7,0,1.3,0.6,1.3,1.3l0.2,165.4c0,0.7-0.6,1.3-1.3,1.3L7.5,196z"/>
	<path class="st2" d="M57.1,203.2c-4.6,0-8.3,3.7-8.3,8.3c0,4.6,3.7,8.3,8.3,8.3c4.6,0,8.3-3.7,8.3-8.3S61.7,203.2,57.1,203.2
		L57.1,203.2z M57.1,218.6c-3.9,0-7-3.1-7-7s3.1-7,7-7s7,3.1,7,7C64.1,215.4,60.9,218.5,57.1,218.6L57.1,218.6z"/>
	
		<linearGradient id="SVGID_1_" gradientUnits="userSpaceOnUse" x1="1540.9399" y1="1979.6974" x2="1557.5499" y2="1979.6974" gradientTransform="matrix(1 0 0 -1 -1490.25 2187.1799)">
		<stop  offset="0" style="stop-color:#CCCCCC"/>
		<stop  offset="1" style="stop-color:#F3F3F2"/>
	</linearGradient>
	<path class="st3" d="M50.1,211.8c0-0.1,0-0.1,0-0.2c0-3.9,3.1-7,7-7s7,3.1,7,7c0,0.1,0,0.1,0,0.2h1.3c0-0.1,0-0.1,0-0.2
		c0-4.6-3.7-8.3-8.3-8.3c-4.6,0-8.3,3.7-8.3,8.3l0,0c0,0.1,0,0.1,0,0.2H50.1z"/>
	
		<ellipse transform="matrix(1 -1.047197e-03 1.047197e-03 1 -2.013684e-02 5.018833e-02)" class="st4" cx="47.9" cy="19.3" rx="1.4" ry="1.4"/>
	<ellipse transform="matrix(1 -1.047197e-03 1.047197e-03 1 -2.013684e-02 5.018833e-02)" cx="47.9" cy="19.3" rx="0.9" ry="0.9"/>
	<path class="st5" d="M63.8,18.4H49.7c-0.3,0-0.5-0.2-0.5-0.5s0.2-0.5,0.5-0.5h14.1c0.3,0,0.5,0.2,0.5,0.5S64.1,18.4,63.8,18.4z"/>
	<polygon class="st1" points="4.8,25.4 107.6,25.5 109.1,30.1 108.8,192.9 108,196.4 107.6,198 5.7,197.7 4.7,194.9 	"/>
	
		<image style="overflow:visible;enable-background:new    ;" width="151" height="266" xlink:href="9DEDD1BDB8ADBCCB.png"  transform="matrix(0.63 0 0 0.63 9.57 28.46)">
	</image>
</g>
</svg>
