<svg id="Capa_1" data-name="Capa 1" xmlns="http://www.w3.org/2000/svg" viewBox="0 0 121.78 40.86"><defs><style>.cls-1{fill:#fff;}.cls-2{fill:#b83e51;}</style></defs><title>boton_stores</title><rect class="cls-1" x="1.24" y="0.93" width="119.31" height="39.03" rx="5.27" ry="5.27"/><path class="cls-2" d="M21.85,7.61H12.13A2.11,2.11,0,0,0,10,9.71V31.24a2.11,2.11,0,0,0,2.11,2.11h9.72A2.11,2.11,0,0,0,24,31.24V9.71A2.11,2.11,0,0,0,21.85,7.61ZM17,31.81A1.4,1.4,0,1,1,18.4,30.4,1.4,1.4,0,0,1,17,31.81Zm5.31-3.49H11.68V12.43H22.3Z"/><path class="cls-2" d="M31.92,11.44l-.59,1.79h-.76L32.5,7.54h.89l1.94,5.69h-.78l-.61-1.79Zm1.86-.57-.57-1.64c-.12-.37-.2-.71-.29-1h0c-.08.33-.17.68-.28,1l-.56,1.65Z"/><path class="cls-2" d="M36.09,9.15l.8,2.29c.14.38.25.72.33,1.05h0c.09-.34.21-.68.35-1.05l.79-2.29h.78l-1.6,4.08h-.71L35.29,9.15Z"/><path class="cls-2" d="M42.58,12.25a6.82,6.82,0,0,0,.06,1H42l-.07-.51h0a1.51,1.51,0,0,1-1.25.61,1.16,1.16,0,0,1-1.25-1.17c0-1,.88-1.53,2.46-1.52v-.08a.84.84,0,0,0-.93-.94,2,2,0,0,0-1.07.3l-.17-.5A2.65,2.65,0,0,1,41,9.05c1.26,0,1.56.85,1.56,1.67Zm-.73-1.11c-.81,0-1.73.13-1.73.92a.65.65,0,0,0,.69.71,1,1,0,0,0,1-.68.77.77,0,0,0,0-.24Z"/><path class="cls-2" d="M44.08,8.4a.48.48,0,0,1,0-1,.46.46,0,0,1,.47.47.46.46,0,0,1-.48.48Zm-.35,4.84V9.15h.74v4.08Z"/><path class="cls-2" d="M45.66,7.24h.74v6h-.74Z"/><path class="cls-2" d="M50.47,12.25a6.88,6.88,0,0,0,.06,1h-.67l-.07-.51h0a1.51,1.51,0,0,1-1.25.61,1.16,1.16,0,0,1-1.25-1.17c0-1,.88-1.53,2.46-1.52v-.08a.84.84,0,0,0-.93-.94,2,2,0,0,0-1.07.3l-.17-.5a2.65,2.65,0,0,1,1.35-.35c1.26,0,1.56.85,1.56,1.67Zm-.73-1.11c-.81,0-1.73.13-1.73.92a.65.65,0,0,0,.69.71,1,1,0,0,0,1-.68.76.76,0,0,0,0-.24Z"/><path class="cls-2" d="M51.61,7.24h.74V9.8h0a1.51,1.51,0,0,1,1.39-.74c1,0,1.72.84,1.72,2.08a2,2,0,0,1-1.84,2.19,1.46,1.46,0,0,1-1.37-.77h0l0,.68h-.64c0-.28,0-.69,0-1.05Zm.74,4.35a1.34,1.34,0,0,0,0,.27,1.15,1.15,0,0,0,1.11.87c.79,0,1.24-.63,1.24-1.57s-.42-1.53-1.21-1.53a1.18,1.18,0,0,0-1.12.91,1.19,1.19,0,0,0,0,.31Z"/><path class="cls-2" d="M56.37,7.24h.74v6h-.74Z"/><path class="cls-2" d="M58.73,11.32a1.3,1.3,0,0,0,1.39,1.42,2.81,2.81,0,0,0,1.13-.2l.13.52a3.32,3.32,0,0,1-1.37.26,1.91,1.91,0,0,1-2-2.06A2,2,0,0,1,59.93,9,1.72,1.72,0,0,1,61.61,11a1.91,1.91,0,0,1,0,.35Zm2.17-.53a1.06,1.06,0,0,0-1-1.21,1.23,1.23,0,0,0-1.14,1.21Z"/><path class="cls-2" d="M65.9,13.32a2,2,0,0,1-2-2.1,2,2,0,0,1,2-2.17,1.93,1.93,0,0,1,2,2.09,2,2,0,0,1-2,2.18Zm0-.56c.71,0,1.24-.67,1.24-1.6,0-.69-.35-1.56-1.22-1.56s-1.25.81-1.25,1.59.51,1.57,1.22,1.57Z"/><path class="cls-2" d="M68.83,10.25c0-.43,0-.77,0-1.11h.66l0,.67h0a1.51,1.51,0,0,1,1.35-.76c.57,0,1.44.34,1.44,1.74v2.44h-.74V10.88c0-.66-.24-1.21-.95-1.21a1.07,1.07,0,0,0-1,.76,1.11,1.11,0,0,0-.05.35v2.46h-.74Z"/><path class="cls-2" d="M76.11,8.17v1h1.06v.57H76.11v2.2c0,.51.14.79.56.79a1.38,1.38,0,0,0,.43-.05l0,.57a2,2,0,0,1-.66.1,1.06,1.06,0,0,1-.8-.31,1.6,1.6,0,0,1-.29-1.07V9.71h-.63V9.15h.63V8.4Z"/><path class="cls-2" d="M78,7.24h.74V9.79h0a1.32,1.32,0,0,1,.53-.52A1.44,1.44,0,0,1,80,9.05c.55,0,1.43.34,1.43,1.75v2.43H80.7V10.89c0-.67-.25-1.22-.95-1.22a1.07,1.07,0,0,0-1,.74.9.9,0,0,0-.05.35v2.46H78Z"/><path class="cls-2" d="M83,11.32a1.3,1.3,0,0,0,1.39,1.42,2.82,2.82,0,0,0,1.13-.2l.13.52a3.33,3.33,0,0,1-1.37.26,1.91,1.91,0,0,1-2-2.06A2,2,0,0,1,84.24,9,1.72,1.72,0,0,1,85.92,11a1.91,1.91,0,0,1,0,.35Zm2.17-.53a1.06,1.06,0,0,0-1-1.21A1.22,1.22,0,0,0,83,10.78Z"/><path class="cls-2" d="M88.89,8.4a.48.48,0,0,1,0-1,.46.46,0,0,1,.47.47.47.47,0,0,1-.48.48Zm-.36,4.84V9.15h.74v4.08Z"/><path class="cls-2" d="M90.5,7.62a7.63,7.63,0,0,1,1.41-.12A2.33,2.33,0,0,1,93.5,8,1.53,1.53,0,0,1,94,9.16a1.64,1.64,0,0,1-.45,1.21,2.35,2.35,0,0,1-1.74.62,2.58,2.58,0,0,1-.59,0v2.28H90.5Zm.73,2.73a2.5,2.5,0,0,0,.61.06c.89,0,1.43-.44,1.43-1.21s-.53-1.12-1.34-1.12a3.64,3.64,0,0,0-.69.06Z"/><path class="cls-2" d="M94.88,7.24h.74V9.79h0a1.32,1.32,0,0,1,.53-.52,1.45,1.45,0,0,1,.76-.21c.55,0,1.43.34,1.43,1.75v2.43h-.74V10.89c0-.67-.25-1.22-.95-1.22a1.08,1.08,0,0,0-1,.74.9.9,0,0,0-.05.35v2.46h-.74Z"/><path class="cls-2" d="M101.18,13.32a2,2,0,0,1-2-2.1,2,2,0,0,1,2-2.17,1.93,1.93,0,0,1,2,2.09,2,2,0,0,1-2,2.18Zm0-.56c.71,0,1.24-.67,1.24-1.6,0-.69-.35-1.56-1.22-1.56S100,10.42,100,11.2s.51,1.57,1.22,1.57Z"/><path class="cls-2" d="M104.11,10.25c0-.43,0-.77,0-1.11h.66l0,.67h0a1.51,1.51,0,0,1,1.35-.76c.57,0,1.44.34,1.44,1.74v2.44h-.74V10.88c0-.66-.25-1.21-.95-1.21a1.07,1.07,0,0,0-1,.76,1.1,1.1,0,0,0-.05.35v2.46h-.74Z"/><path class="cls-2" d="M109.17,11.32a1.3,1.3,0,0,0,1.39,1.42,2.81,2.81,0,0,0,1.13-.2l.14.52a3.33,3.33,0,0,1-1.37.26,1.91,1.91,0,0,1-2-2.06A2,2,0,0,1,110.38,9,1.72,1.72,0,0,1,112.06,11a1.92,1.92,0,0,1,0,.35Zm2.17-.53a1.06,1.06,0,0,0-1-1.21,1.22,1.22,0,0,0-1.14,1.21Z"/><path class="cls-2" d="M35.41,17.08l-5,14.73H32.7l1.49-4.52H39l1.54,4.52h2.35l-5-14.73Zm1.19,2.42c.17.66.35,1.34.59,2.08l1.35,3.91H34.7L36,21.56C36.23,20.92,36.42,20.23,36.6,19.51Z"/><path class="cls-2" d="M49.41,20.9a4.17,4.17,0,0,0-3.54,1.7l-.09-1.47h-2v.19c.06.91.09,1.92.09,3.36V36h2.23v-5.3a3.91,3.91,0,0,0,3,1.31,4.6,4.6,0,0,0,3.38-1.44A6.09,6.09,0,0,0,54,26.33a5.93,5.93,0,0,0-1.29-3.91A4.24,4.24,0,0,0,49.41,20.9Zm-.56,1.84c2,0,2.88,1.84,2.88,3.66,0,2.35-1.13,3.81-3,3.81a2.7,2.7,0,0,1-2.63-2.07,2.85,2.85,0,0,1-.08-.72V25.64a3.33,3.33,0,0,1,.07-.55l0-.18A2.82,2.82,0,0,1,48.85,22.75Z"/><path class="cls-2" d="M60.88,20.9a4.17,4.17,0,0,0-3.54,1.7l-.09-1.47h-2v.19c.06.91.09,1.92.09,3.36V36h2.23v-5.3a3.91,3.91,0,0,0,3,1.31A4.6,4.6,0,0,0,64,30.61a6.09,6.09,0,0,0,1.49-4.29,5.93,5.93,0,0,0-1.3-3.91A4.24,4.24,0,0,0,60.88,20.9Zm-.55,1.84c2,0,2.87,1.84,2.87,3.66,0,2.35-1.13,3.81-3,3.81a2.7,2.7,0,0,1-2.63-2.07,2.86,2.86,0,0,1-.08-.72V25.64a3.23,3.23,0,0,1,.07-.55l0-.18A2.82,2.82,0,0,1,60.33,22.75Z"/><path class="cls-2" d="M75.26,23.33c-2.08-.81-2.75-1.44-2.75-2.61,0-1,.78-2,2.53-2a5.07,5.07,0,0,1,2.62.66l.19.12.63-1.86-.12-.07a6.45,6.45,0,0,0-3.25-.73c-2.84,0-4.83,1.68-4.83,4.08,0,1.94,1.24,3.29,3.91,4.26,1.89.71,2.59,1.43,2.59,2.67,0,1.4-1.09,2.28-2.83,2.28a6.1,6.1,0,0,1-3.21-.91l-.19-.12L70,31l.11.07a7.63,7.63,0,0,0,3.77,1C77.66,32,79,29.71,79,27.71S77.93,24.38,75.26,23.33Z"/><path class="cls-2" d="M83,18.6l-2.19.69v1.85h-1.6v1.78h1.6v5.46a4.17,4.17,0,0,0,.77,2.83,2.86,2.86,0,0,0,2.16.85,5.24,5.24,0,0,0,1.72-.27l.12,0L85.51,30,85.3,30a3.36,3.36,0,0,1-1,.12c-.86,0-1.23-.55-1.23-1.83V22.92h2.69V21.14H83Z"/><path class="cls-2" d="M91.24,20.9c-3.12,0-5.3,2.33-5.3,5.66S88.05,32,91.07,32h0c2.55,0,5.3-1.78,5.3-5.68A5.63,5.63,0,0,0,95,22.43,5,5,0,0,0,91.24,20.9Zm-.06,1.76c2,0,2.92,2,2.92,3.77,0,2.23-1.25,3.86-3,3.86h0c-1.69,0-2.92-1.59-2.92-3.79C88.19,24.59,89.11,22.66,91.17,22.66Z"/><path class="cls-2" d="M103.21,21l-.13,0a2.14,2.14,0,0,0-.55-.07,3.18,3.18,0,0,0-2.79,1.79l-.07-1.56h-2v.19c.06.88.08,1.87.08,3.21l0,7.28H100V26.13a5.83,5.83,0,0,1,.06-.86A2.46,2.46,0,0,1,102.37,23a5.7,5.7,0,0,1,.6,0l.24,0Z"/><path class="cls-2" d="M108.22,20.88c-3,0-5,2.37-5,5.76S105.24,32,108.43,32a8.55,8.55,0,0,0,3.53-.68l.13-.06-.43-1.66-.19.07a6.9,6.9,0,0,1-2.79.5A3.1,3.1,0,0,1,105.35,27l7.19,0,0-.14a4.93,4.93,0,0,0,.07-.93C112.64,23.6,111.48,20.88,108.22,20.88Zm-.15,1.7a2.2,2.2,0,0,1,1.64.62,3.17,3.17,0,0,1,.77,2.07h-5.08A2.84,2.84,0,0,1,108.07,22.58Z"/></svg>