<svg id="Capa_1" data-name="Capa 1" xmlns="http://www.w3.org/2000/svg" viewBox="0 0 121.78 40.86"><defs><style>.cls-1{fill:#fff;}.cls-2,.cls-3,.cls-4,.cls-5{fill:#b83e51;}.cls-3{opacity:0.75;}.cls-4{opacity:0.85;}.cls-5{opacity:0.9;}</style></defs><title>boton_stores</title><rect class="cls-1" x="1.24" y="0.86" width="119.31" height="39.03" rx="5.27" ry="5.27"/><path class="cls-2" d="M41.06,10.63h-.83a5.51,5.51,0,0,0-.24-1H38.8a5,5,0,0,0-.24,1h-.78q0-.1.61-1.66A13,13,0,0,0,39,7.25h1a14.31,14.31,0,0,0,.55,1.69,14.87,14.87,0,0,1,.55,1.69m-1.2-1.47a14.66,14.66,0,0,1-.44-1.45h0q0,.1-.46,1.45Z"/><path class="cls-2" d="M44.41,10.63h-.64a6.34,6.34,0,0,0-.71-1.12A6.19,6.19,0,0,1,42.21,8h0a9.23,9.23,0,0,1,.06,1q0,.64,0,1.56h-.64q0-.8,0-1.77t0-1.61h.77A4.89,4.89,0,0,0,43,8.35a6.46,6.46,0,0,1,.78,1.38h0a9.77,9.77,0,0,1-.06-1q0-.7,0-1.44h.65q0,.64,0,1.61t0,1.77"/><path class="cls-2" d="M48.17,8.83a1.91,1.91,0,0,1-.47,1.29,1.65,1.65,0,0,1-1.32.55l-1.06,0q0-.78,0-1.77t0-1.61h1.07a1.75,1.75,0,0,1,1.36.47,1.62,1.62,0,0,1,.42,1.12m-.71.11a1.25,1.25,0,0,0-.29-.84,1.1,1.1,0,0,0-.89-.34l-.31,0q0,.52,0,1.08t0,1.23a1.74,1.74,0,0,0,.34,0,1,1,0,0,0,.83-.35,1.34,1.34,0,0,0,.27-.84"/><path class="cls-2" d="M51.64,10.63h-.77a5.12,5.12,0,0,0-.46-1.13.6.6,0,0,0-.52-.22H49.6q0,.67,0,1.35H48.9q0-.78,0-1.77t0-1.61h1.23q1.19,0,1.19.82a.91.91,0,0,1-.68.9V9a.81.81,0,0,1,.46.41,9.12,9.12,0,0,1,.53,1.23m-1-2.39q0-.52-.66-.52a2.28,2.28,0,0,0-.43,0q0,.4,0,1h.24q.83,0,.83-.57"/><path class="cls-2" d="M55.36,8.88a1.86,1.86,0,0,1-.49,1.32,1.58,1.58,0,0,1-1.21.52,1.52,1.52,0,0,1-1.15-.48A1.7,1.7,0,0,1,52.06,9a1.86,1.86,0,0,1,.49-1.32,1.58,1.58,0,0,1,1.21-.52,1.53,1.53,0,0,1,1.15.48,1.69,1.69,0,0,1,.46,1.22M54.64,9a1.34,1.34,0,0,0-.28-.88.86.86,0,0,0-.69-.34.79.79,0,0,0-.64.34,1.36,1.36,0,0,0-.26.86,1.34,1.34,0,0,0,.28.88.85.85,0,0,0,.68.34.79.79,0,0,0,.64-.34A1.36,1.36,0,0,0,54.64,9"/><path class="cls-2" d="M56.83,10.63h-.73q0-.8,0-1.77t0-1.61h.73q0,.65,0,1.61t0,1.77"/><path class="cls-2" d="M60.59,8.83a1.92,1.92,0,0,1-.47,1.29,1.65,1.65,0,0,1-1.32.55l-1.06,0q0-.78,0-1.77t0-1.61h1.07a1.75,1.75,0,0,1,1.36.47,1.62,1.62,0,0,1,.42,1.12m-.71.11a1.25,1.25,0,0,0-.29-.84,1.1,1.1,0,0,0-.89-.34l-.31,0q0,.52,0,1.08t0,1.23a1.74,1.74,0,0,0,.34,0,1,1,0,0,0,.83-.35,1.34,1.34,0,0,0,.27-.84"/><path class="cls-2" d="M65.58,10.63h-.83a5.5,5.5,0,0,0-.24-1h-1.2a5,5,0,0,0-.24,1h-.78q0-.1.61-1.66a13,13,0,0,0,.61-1.72h1A14.31,14.31,0,0,0,65,8.95a14.85,14.85,0,0,1,.55,1.69m-1.2-1.47a14.69,14.69,0,0,1-.44-1.45h0a15.17,15.17,0,0,1-.46,1.45Z"/><path class="cls-2" d="M68.6,8.14a1,1,0,0,1-.46.92,2.05,2.05,0,0,1-1.13.3h-.17q0,.49,0,1.29h-.73q0-.75,0-1.77t0-1.61h1.29a1.48,1.48,0,0,1,.83.22.75.75,0,0,1,.34.68m-.67.14q0-.56-.74-.56a2.06,2.06,0,0,0-.39,0q0,.49,0,1.11H67q.95,0,.95-.6"/><path class="cls-2" d="M71.72,8.14a1,1,0,0,1-.46.92,2.05,2.05,0,0,1-1.13.3H70q0,.49,0,1.29h-.73q0-.75,0-1.77t0-1.61h1.29a1.48,1.48,0,0,1,.83.22.75.75,0,0,1,.34.68M71,8.28q0-.56-.74-.56a2.06,2.06,0,0,0-.39,0q0,.49,0,1.11h.15q.95,0,.95-.6"/><path class="cls-2" d="M76.8,8.88a1.86,1.86,0,0,1-.49,1.32,1.58,1.58,0,0,1-1.21.52A1.52,1.52,0,0,1,74,10.24,1.7,1.7,0,0,1,73.5,9,1.86,1.86,0,0,1,74,7.7a1.58,1.58,0,0,1,1.21-.52,1.53,1.53,0,0,1,1.15.48,1.69,1.69,0,0,1,.46,1.22M76.09,9a1.34,1.34,0,0,0-.28-.88.86.86,0,0,0-.68-.34.79.79,0,0,0-.64.34,1.35,1.35,0,0,0-.26.86,1.33,1.33,0,0,0,.28.88.85.85,0,0,0,.68.34.79.79,0,0,0,.64-.34A1.36,1.36,0,0,0,76.09,9"/><path class="cls-2" d="M80.32,10.63h-.64A6.35,6.35,0,0,0,79,9.51,6.19,6.19,0,0,1,78.12,8h0a9.17,9.17,0,0,1,.06,1q0,.64,0,1.56h-.64q0-.8,0-1.77t0-1.61h.77a4.9,4.9,0,0,0,.64,1.1,6.46,6.46,0,0,1,.78,1.38h0a9.75,9.75,0,0,1-.06-1q0-.7,0-1.44h.65q0,.64,0,1.61t0,1.77"/><path class="cls-2" d="M61.11,21.41A3.89,3.89,0,1,0,65,25.3,3.83,3.83,0,0,0,61.11,21.41Zm0,6.24A2.36,2.36,0,1,1,63.3,25.3,2.25,2.25,0,0,1,61.11,27.66ZM52.6,21.41a3.89,3.89,0,1,0,3.9,3.89A3.83,3.83,0,0,0,52.6,21.41Zm0,6.24a2.36,2.36,0,1,1,2.19-2.36A2.25,2.25,0,0,1,52.6,27.66ZM42.47,22.61v1.65h3.95a3.44,3.44,0,0,1-.9,2.08,4,4,0,0,1-3,1.21,4.39,4.39,0,0,1,0-8.78,4.21,4.21,0,0,1,3,1.18l1.16-1.16a5.75,5.75,0,0,0-4.14-1.66,6,6,0,1,0,0,12.08,5.52,5.52,0,0,0,4.21-1.69,5.45,5.45,0,0,0,1.43-3.86,5.37,5.37,0,0,0-.09-1Zm41.42,1.28a3.61,3.61,0,0,0-3.33-2.47,3.69,3.69,0,0,0-3.67,3.89,3.8,3.8,0,0,0,3.86,3.89A3.87,3.87,0,0,0,84,27.47l-1.33-.88a2.22,2.22,0,0,1-1.91,1.08,2,2,0,0,1-1.89-1.18l5.2-2.15Zm-5.3,1.3a2.13,2.13,0,0,1,2-2.27,1.51,1.51,0,0,1,1.44.82ZM74.36,29h1.71V17.52H74.36Zm-2.8-6.67H71.5a2.69,2.69,0,0,0-2-.87,3.89,3.89,0,0,0,0,7.78,2.65,2.65,0,0,0,2-.88h.06v.56c0,1.49-.8,2.28-2.08,2.28a2.15,2.15,0,0,1-2-1.38L66,30.38a3.71,3.71,0,0,0,3.45,2.3c2,0,3.7-1.18,3.7-4v-7H71.56Zm-2,5.38a2.36,2.36,0,0,1,0-4.71,2.19,2.19,0,0,1,2.08,2.37A2.17,2.17,0,0,1,69.6,27.66ZM91.89,17.52H87.8V29h1.71V24.62h2.38a3.55,3.55,0,1,0,0-7.1Zm0,5.51H89.51V19.12h2.43a2,2,0,1,1,0,3.92Zm10.54-1.64a3.2,3.2,0,0,0-3,1.75l1.51.63a1.62,1.62,0,0,1,1.56-.84,1.64,1.64,0,0,1,1.79,1.47v.12a3.77,3.77,0,0,0-1.78-.44c-1.63,0-3.29.9-3.29,2.57a2.64,2.64,0,0,0,2.84,2.51,2.41,2.41,0,0,0,2.18-1.12h.06v.88h1.65V24.55C105.94,22.52,104.43,21.39,102.47,21.39Zm-.21,6.26c-.56,0-1.34-.28-1.34-1,0-.88,1-1.22,1.81-1.22a3,3,0,0,1,1.56.38A2.07,2.07,0,0,1,102.27,27.65Zm9.67-6-2,5h-.06l-2-5h-1.84l3,6.92-1.73,3.85h1.78l4.69-10.78ZM96.58,29h1.71V17.52H96.58Z"/><path class="cls-2" d="M8.36,8.43a1.83,1.83,0,0,0-.42,1.28v20.2a1.83,1.83,0,0,0,.42,1.28l.07.07L19.75,19.94v-.27L8.43,8.36Z"/><path class="cls-3" d="M23.52,23.72l-3.77-3.77v-.27l3.77-3.77.09,0,4.47,2.54c1.28.73,1.28,1.91,0,2.64L23.6,23.67Z"/><path class="cls-4" d="M23.6,23.67l-3.86-3.86L8.36,31.19a1.49,1.49,0,0,0,1.9.06L23.6,23.67"/><path class="cls-5" d="M23.6,16,10.26,8.37a1.49,1.49,0,0,0-1.9.06L19.75,19.81Z"/></svg>