<?xml version="1.0" encoding="utf-8"?>
<!-- Generator: Adobe Illustrator 21.1.0, SVG Export Plug-In . SVG Version: 6.00 Build 0)  -->
<svg version="1.1" id="Capa_1" xmlns="http://www.w3.org/2000/svg" xmlns:xlink="http://www.w3.org/1999/xlink" x="0px" y="0px"
	 viewBox="0 0 249 50.8" style="enable-background:new 0 0 249 50.8;" xml:space="preserve">
<style type="text/css">
	.st0{fill:#F4F2ED;}
	.st1{fill:none;}
	.st2{font-family:'ArialMT';}
	.st3{font-size:13.9935px;}
</style>
<path class="st0" d="M62.1,27.1c0,3.5-2.7,6.2-6.3,6.2c-3.5,0-6.3-2.7-6.3-6.2c0-3.4,2.8-6.2,6.3-6.2C59.4,20.9,62.1,23.7,62.1,27.1
	 M51.1,27.1c0,2.7,2,4.9,4.8,4.9c2.7,0,4.7-2.2,4.7-4.9s-2-5-4.7-5C53.1,22.1,51.1,24.4,51.1,27.1 M54.9,30.3h-1.4v-6.2
	c0.6-0.1,1.3-0.2,2.4-0.2c1.2,0,1.7,0.2,2.1,0.5c0.3,0.3,0.6,0.7,0.6,1.3c0,0.7-0.5,1.2-1.3,1.4v0.1c0.6,0.2,0.9,0.7,1.1,1.5
	c0.2,0.9,0.3,1.3,0.4,1.5h-1.5c-0.2-0.2-0.3-0.8-0.5-1.5c-0.1-0.7-0.5-1-1.3-1h-0.7v2.6H54.9z M54.9,26.8h0.7c0.8,0,1.4-0.3,1.4-0.9
	S56.6,25,55.7,25c-0.4,0-0.6,0-0.8,0.1C54.9,25.1,54.9,26.8,54.9,26.8z"/>
<g>
	<rect x="59.5" y="22" class="st1" width="229.8" height="14.4"/>
	<text transform="matrix(1 0 0 1 59.4794 31.9731)" class="st0 st2 st3">  2017 Econduce SAPI de CV</text>
</g>
<g>
	<g>
		<g>
			<path class="st0" d="M34.5,38.2c-0.3,0-0.5-0.4-0.5-0.8v-0.1c0-0.5,0.2-0.8,0.5-0.8h6.2c0.3,0,0.5,0.4,0.5,0.8v0.1
				c0,0.5-0.2,0.8-0.5,0.8H34.5z"/>
		</g>
		<g>
			<path class="st0" d="M34.5,44.5c-0.3,0-0.5-0.4-0.5-0.8v-0.1c0-0.5,0.2-0.8,0.5-0.8h6.2c0.3,0,0.5,0.4,0.5,0.8v0.1
				c0,0.5-0.2,0.8-0.5,0.8H34.5z"/>
		</g>
		<g>
			<path class="st0" d="M16.2,24c0-2.5,2-4.5,4.4-4.5s4.4,2,4.4,4.5s-2,4.5-4.4,4.5S16.2,26.5,16.2,24"/>
		</g>
		<g>
			<path class="st0" d="M32.6,29c0.6-1.6,0.9-3.3,0.9-5c0-7.3-5.8-13.2-12.9-13.2S7.7,16.7,7.7,24c0,7,5.3,12.7,12,13.2
				c0.1-0.2,0.2-0.3,0.3-0.3h3.2l4.6-3.1H34c-0.9,0-1.6,3-1.6,6.8c0,3.7,0.7,6.8,1.6,6.8h-6.2l-4.6-3.1l0,0H20
				c-0.1,0-0.2-0.1-0.3-0.3C9.4,43.4,1.1,34.6,1.1,24c0-11,8.7-19.9,19.5-19.9C31.4,4.1,40.1,13,40.1,24c0,2.2-0.4,4.4-1.1,6.5h-7.3
				L32.6,29z"/>
		</g>
	</g>
</g>
</svg>
