<svg xmlns="http://www.w3.org/2000/svg" viewBox="0 0 288.13 43.25"><defs><style>.cls-1,.cls-2{fill:#f5f3ee;}.cls-2{font-size:13.99px;font-family:ProximaNova-Regular, Proxima Nova;}.cls-3{letter-spacing:-0.01em;}.cls-4{letter-spacing:0em;}</style></defs><title>copyright1</title><g id="Capa_2" data-name="Capa 2"><g id="Layer_1" data-name="Layer 1"><path class="cls-1" d="M61,23a6.32,6.32,0,1,1-6.3-6.15A6.18,6.18,0,0,1,61,23M50,23a4.77,4.77,0,0,0,4.8,4.91A4.7,4.7,0,0,0,59.45,23,4.75,4.75,0,1,0,50,23m3.79,3.23H52.32V20.09a12.6,12.6,0,0,1,2.37-.19,3.78,3.78,0,0,1,2.14.46,1.68,1.68,0,0,1,.6,1.35,1.56,1.56,0,0,1-1.27,1.42v.08a1.78,1.78,0,0,1,1.13,1.49,4.82,4.82,0,0,0,.45,1.54H56.18a5.49,5.49,0,0,1-.49-1.5c-.11-.67-.49-1-1.27-1h-.68Zm0-3.48h.68c.79,0,1.43-.27,1.43-.91s-.41-.94-1.32-.94a3.54,3.54,0,0,0-.79.07Z"/><text class="cls-2" transform="translate(58.37 27.32)"><tspan xml:space="preserve">  2017 Econduce </tspan><tspan class="cls-3" x="104.35" y="0">S</tspan><tspan x="112.41" y="0">API de </tspan><tspan class="cls-4" x="156.32" y="0">C</tspan><tspan x="165.75" y="0">V</tspan></text><path class="cls-1" d="M33.39,34.15c-.29,0-.54-.38-.54-.85v-.1c0-.47.24-.85.54-.85H39.6c.3,0,.54.38.54.85v.1c0,.46-.24.85-.54.85Z"/><path class="cls-1" d="M33.39,40.44c-.29,0-.54-.38-.54-.84v-.11c0-.47.24-.84.54-.84H39.6c.3,0,.54.38.54.84v.11c0,.47-.24.84-.54.84Z"/><path class="cls-1" d="M15.09,19.92a4.41,4.41,0,1,1,4.41,4.51,4.46,4.46,0,0,1-4.41-4.51"/><path class="cls-1" d="M31.48,24.9a13.52,13.52,0,0,0,.95-5A13.08,13.08,0,0,0,19.5,6.72,13.08,13.08,0,0,0,6.57,19.92a13.1,13.1,0,0,0,12,13.16c.08-.18.17-.28.26-.28H22l4.57-3.09H32.8c-.88,0-1.58,3-1.58,6.77s.71,6.77,1.58,6.77H26.57L22,40.16v0H18.84c-.1,0-.19-.11-.28-.31A19.76,19.76,0,0,1,0,19.92,19.73,19.73,0,0,1,19.5,0,19.74,19.74,0,0,1,39,19.92a20.06,20.06,0,0,1-1.07,6.48H30.6Z"/></g></g></svg>