<?xml version="1.0" encoding="utf-8"?>
<!-- Generator: Adobe Illustrator 20.1.0, SVG Export Plug-In . SVG Version: 6.00 Build 0)  -->
<svg version="1.1" id="Layer_1" xmlns="http://www.w3.org/2000/svg" xmlns:xlink="http://www.w3.org/1999/xlink" x="0px" y="0px"
	 viewBox="0 0 288.1 43.2" style="enable-background:new 0 0 288.1 43.2;" xml:space="preserve">
<g>
	<rect x="58.4" y="18" style="fill:none;" width="229.8" height="14.4"/>
	<text transform="matrix(1 0 0 1 58.3685 27.32)" style="fill:#F6F4EE; font-family:'ProximaNova-Regular'; font-size:13.9935px;">  2017 Econduce SAPI de CV</text>
</g>
<g>
	<g>
		<g>
			<path style="fill:#F6F4EE;" d="M33.4,34.2c-0.3,0-0.5-0.4-0.5-0.8v-0.1c0-0.5,0.2-0.8,0.5-0.8h6.2c0.3,0,0.5,0.4,0.5,0.8v0.1
				c0,0.5-0.2,0.8-0.5,0.8H33.4z"/>
		</g>
		<g>
			<path style="fill:#F6F4EE;" d="M33.4,40.4c-0.3,0-0.5-0.4-0.5-0.8v-0.1c0-0.5,0.2-0.8,0.5-0.8h6.2c0.3,0,0.5,0.4,0.5,0.8v0.1
				c0,0.5-0.2,0.8-0.5,0.8H33.4z"/>
		</g>
		<g>
			<path style="fill:#F6F4EE;" d="M15.1,19.9c0-2.5,2-4.5,4.4-4.5c2.4,0,4.4,2,4.4,4.5c0,2.5-2,4.5-4.4,4.5
				C17.1,24.4,15.1,22.4,15.1,19.9"/>
		</g>
		<g>
			<path style="fill:#F6F4EE;" d="M31.5,24.9c0.6-1.6,0.9-3.3,0.9-5c0-7.3-5.8-13.2-12.9-13.2c-7.1,0-12.9,5.9-12.9,13.2
				c0,7,5.3,12.7,12,13.2c0.1-0.2,0.2-0.3,0.3-0.3H22l4.6-3.1h6.2c-0.9,0-1.6,3-1.6,6.8c0,3.7,0.7,6.8,1.6,6.8h-6.2L22,40.2v0h-3.2
				c-0.1,0-0.2-0.1-0.3-0.3C8.2,39.3,0,30.6,0,19.9C0,8.9,8.7,0,19.5,0C30.3,0,39,8.9,39,19.9c0,2.2-0.4,4.4-1.1,6.5h-7.3L31.5,24.9
				z"/>
		</g>
	</g>
</g>
</svg>
