<?xml version="1.0" encoding="utf-8"?>
<!-- Generator: Adobe Illustrator 21.1.0, SVG Export Plug-In . SVG Version: 6.00 Build 0)  -->
<svg version="1.1" id="Capa_1" xmlns="http://www.w3.org/2000/svg" xmlns:xlink="http://www.w3.org/1999/xlink" x="0px" y="0px"
	 viewBox="0 0 155.1 13.6" style="enable-background:new 0 0 155.1 13.6;" xml:space="preserve">
<style type="text/css">
	.st0{fill:#828080;}
</style>
<g>
	<path class="st0" d="M1,4.6c0,0,1.1,1.3,3.6,1.1c2.5-0.1,3.5-1.9,3.5-3.1c0-1.2-0.8-2.2-2.9-2.2C3.4,0.5,0,2.3,0,6.6
		s3.5,7.5,7.3,7.5c3.8,0,6.1-3.2,6.1-3.2s-2.3,2.6-6,2.6c-3.8,0-6.9-4-6.9-6.8c0,0,1.8,5.7,7.3,5.7c5.5,0,6.8-6.3,6.8-6.3
		S12.6,11,7.2,11c-5.3,0-6.6-5.2-6.6-5.2s2,3.6,6.3,3.6s6-2.7,6-5.1C13,1.1,9.7,0,9.7,0s1.4,1,1.4,3.7c0,2.7-3.4,3.9-5.3,3.9
		C1.5,7.7,1,4.6,1,4.6z"/>
	<g>
		<polygon class="st0" points="20,0.8 21.2,0.9 21.2,12.7 20,12.7 20,13.3 29.3,13.3 29.3,9.9 27.2,12.7 24,12.7 24,7.1 26.3,7.1 
			27.7,9.3 27.7,4.3 26.3,6.5 24,6.5 24,0.8 27.2,0.8 29.3,3.7 29.3,0.3 20,0.3 		"/>
		<polygon class="st0" points="34.5,12.7 34.5,0.9 35.8,0.8 35.8,0.3 30.5,0.3 30.5,0.8 31.8,0.9 31.8,12.7 30.5,12.7 30.5,13.3 
			39.9,13.3 39.9,9.9 37.7,12.7 		"/>
		<polygon class="st0" points="44.9,0.8 46.2,0.9 46.2,12.7 44.9,12.7 44.9,13.3 54.3,13.3 54.3,9.9 52.1,12.7 48.9,12.7 48.9,7.1 
			51.3,7.1 52.6,9.3 52.6,4.3 51.3,6.5 48.9,6.5 48.9,0.8 52.1,0.8 54.3,3.7 54.3,0.3 44.9,0.3 		"/>
		<path class="st0" d="M72.3,0.3c-3.6,0-6.6,2.9-6.6,6.5c0,3.6,2.9,6.5,6.6,6.5c3.6,0,6.6-2.9,6.6-6.5C78.9,3.2,76,0.3,72.3,0.3z
			 M72.3,12.8c-1.8,0-3.3-2.7-3.3-6c0-3.3,1.5-6,3.3-6c1.8,0,3.3,2.7,3.3,6C75.7,10.1,74.2,12.8,72.3,12.8z"/>
		<path class="st0" d="M54.9,6.8c0,3.6,2.9,6.5,6.6,6.5c1.3,0,2.6-0.4,3.6-1.1l0-3.9c-0.4,2.5-1.9,4.4-3.6,4.4c-2.1,0-3.8-2.7-3.8-6
			c0-3.3,1.7-6,3.8-6c1.7,0,3.2,1.9,3.6,4.4l0-3.9c-1-0.7-2.3-1.1-3.6-1.1C57.9,0.3,54.9,3.2,54.9,6.8z"/>
		<polygon class="st0" points="86,0.5 88.2,1.9 88.2,8.1 83,0.3 78.5,0.3 78.5,0.8 80.4,0.9 80.4,11.9 78.2,13.3 83.2,13.3 81,11.9 
			81,2.6 88.2,13.3 88.8,13.3 88.8,1.9 91,0.5 		"/>
		<path class="st0" d="M97.1,0.3c-3.6,0-6.6,2.9-6.6,6.5c0,3.6,2.9,6.5,6.6,6.5c3.6,0,6.6-2.9,6.6-6.5C103.7,3.2,100.8,0.3,97.1,0.3
			z M97.1,12.8c-1.8,0-3.3-2.7-3.3-6c0-3.3,1.5-6,3.3-6c1.8,0,3.3,2.7,3.3,6C100.5,10.1,99,12.8,97.1,12.8z"/>
		<polygon class="st0" points="111.8,8.2 108.4,0.3 103.4,0.3 103.4,0.8 105.3,0.9 105.3,11.9 103.1,13.3 108.1,13.3 105.9,11.9 
			105.9,2.8 110.3,13.1 110.8,13.1 114.2,1.8 114.2,12.7 112.9,12.7 112.9,13.3 118.2,13.3 118.2,12.7 116.9,12.7 116.9,0.9 
			118.2,0.8 118.2,0.3 114.2,0.3 		"/>
		<polygon class="st0" points="118.9,0.8 120.1,0.9 120.1,12.7 118.9,12.7 118.9,13.3 124.1,13.3 124.1,12.7 122.9,12.7 122.9,0.9 
			124.1,0.8 124.1,0.3 118.9,0.3 		"/>
		<path class="st0" d="M131.1,5.8c-2.2-1.2-3.9-1.3-3.9-3.2c0-0.7,0.6-1.7,2.1-1.7c1.9,0,3,2.2,3.4,3.4l0-3.8l-0.3,0.8
			c0,0-1.4-0.9-3.1-0.9c-1.7,0-4.3,0.8-4.3,3.8c0,2.2,1.4,3,3.5,3.9c1.8,0.8,2.7,1.3,2.7,2.7c0,1.2-1.1,2.1-2.3,2.1
			c-1.6,0-2.7-1.5-3.6-3.6l0,4.1l0.3-1.2c0,0,1.5,1.2,3.4,1.2c3.5,0,4.5-2.2,4.5-3.7C133.4,7.7,133,6.8,131.1,5.8z"/>
		<path class="st0" d="M154.2,12.7l-4.8-12.6l-1.9,1.5l-3.3,10.1l-2.2,1.4l5,0l-2.2-1.4l1-3l3.5,0l1.3,4l-1.2,0.1v0.6l5.7,0v-0.6
			L154.2,12.7z M146,8.1l1.5-4.7l1.6,4.7L146,8.1z"/>
		<polygon class="st0" points="141.7,0.8 143.8,3.7 143.8,0.3 133.9,0.3 133.9,3.7 136.1,0.8 137.5,0.8 137.5,12.7 136.3,12.7 
			136.3,13.3 141.5,13.3 141.5,12.7 140.3,12.7 140.3,0.8 		"/>
	</g>
</g>
</svg>
