<?xml version="1.0" encoding="utf-8"?>
<!-- Generator: Adobe Illustrator 21.1.0, SVG Export Plug-In . SVG Version: 6.00 Build 0)  -->
<svg version="1.1" id="Capa_1" xmlns="http://www.w3.org/2000/svg" xmlns:xlink="http://www.w3.org/1999/xlink" x="0px" y="0px"
	 viewBox="0 0 118.1 23.1" style="enable-background:new 0 0 118.1 23.1;" xml:space="preserve">
<style type="text/css">
	.st0{fill-rule:evenodd;clip-rule:evenodd;fill:#828080;}
</style>
<g>
	<g>
		<path class="st0" d="M10.5,0c-0.1,1.4-0.2,2.8-0.2,4.2c-0.7,0-1.4,0-2.1-0.1c0-0.9-0.1-1.7-0.1-2.6c-1.1,0-2.1,0-3.2,0
			c0,2,0,4.1,0,6.2c0.5,0,0.9,0,1.4,0c0.1-0.4,0.2-0.9,0.3-1.4c0.5,0,0.9,0,1.4,0c0,1.4,0,2.8,0,4.2c-0.5,0-0.9,0-1.4,0
			c-0.1-0.5-0.2-0.9-0.4-1.4c-0.5,0-0.9,0-1.4,0c0,2.2,0,4.3,0,6.5c1.1,0,2.1,0,3.2,0c0.1-0.9,0.2-1.9,0.3-2.8c0.7,0,1.4,0,2.2,0.1
			c0.1,1.5,0.1,2.9,0.2,4.3c-3.5,0-7,0-10.6,0c0-0.5,0-1,0-1.5c0.5-0.1,1-0.2,1.5-0.3c0-4.6,0-9.2,0-13.8C1.1,1.6,0.5,1.6,0,1.5
			C0,1,0,0.5,0,0C3.5,0,7,0,10.5,0z"/>
		<path class="st0" d="M47.9,23.1c0-0.4,0.1-0.8,0.1-1.2c0.4-0.1,0.7-0.2,1.1-0.2c0-4.9,0-9.8,0-14.7c-0.4-0.1-0.9-0.1-1.3-0.2
			c0-0.4,0-0.8,0-1.2c1.1-0.2,2.3-0.3,3.5-0.5c0.1,0.5,0.2,0.9,0.4,1.3c0,0,0.1-0.1,0.1-0.1c0.9-1,2-1.3,3.2-1.2
			c1.6,0.2,2.5,1.2,2.9,2.6c0.2,0.6,0.3,1.3,0.4,2c0.1,1.4,0.1,2.7-0.1,4.1c-0.1,0.5-0.2,1-0.4,1.5c-0.6,1.4-1.7,2.2-3.3,2.3
			c-0.8,0.1-1.6,0-2.3-0.3c0,0-0.1,0-0.2,0c0,1.5,0,3.1,0,4.6c0.4,0.1,0.8,0.2,1.2,0.2c0,0.4-0.1,0.8-0.1,1.2
			C51.4,23.1,49.6,23.1,47.9,23.1z M52,15.4c0.9,0.4,1.8,0.4,2.8,0.1c0.2-0.1,0.3-0.2,0.3-0.3c0.1-0.5,0.3-0.9,0.3-1.4
			c0.2-1.4,0.2-2.8,0.1-4.2c0-0.5-0.1-1-0.3-1.4c-0.3-1-1-1.4-2-1.2c-0.1,0-0.1,0-0.2,0c-0.6,0.1-1,0.6-1,1.2c0,2.3,0,4.6,0,6.9
			C52,15.2,52,15.3,52,15.4z"/>
		<path class="st0" d="M87,15.8c0.4,0.1,0.8,0.2,1.2,0.2c0,0.4,0,0.8-0.1,1.3c-1.3,0-2.7,0-4,0c0-0.1,0-0.2,0-0.3c0-2.7,0-5.3,0-8
			c0-0.4-0.1-0.7-0.2-1.1c-0.1-0.4-0.5-0.6-0.9-0.7c-0.4-0.1-0.8-0.1-1.2,0.1c-0.3,0.1-0.6,0.4-0.6,0.8c0,2.5,0,5.1,0,7.6
			c0,0,0,0.1,0,0.1c0.4,0.1,0.7,0.2,1.2,0.2c0,0.4-0.1,0.8-0.1,1.3c-1.8,0-3.5,0-5.2,0c0-0.4,0-0.8,0-1.3c0.4-0.1,0.8-0.2,1.2-0.2
			c0-2.9,0-5.8,0-8.7C77.9,7,77.4,7,77,6.9c0-0.4,0-0.8,0-1.3c1.1-0.2,2.2-0.3,3.4-0.5c0.1,0.4,0.2,0.8,0.3,1.1
			c0.3-0.2,0.5-0.4,0.8-0.6c1.1-0.7,2.3-0.8,3.6-0.4c1,0.4,1.6,1.2,1.8,2.3C86.9,7.8,87,8.1,87,8.4c0,2.3,0,4.6,0,6.9
			C87,15.5,87,15.6,87,15.8z"/>
		<path class="st0" d="M15.8,15.8c0.4,0.1,0.8,0.2,1.2,0.2c0,0.4,0,0.8-0.1,1.3c-1.7,0-3.5,0-5.2,0c0-0.4,0-0.8,0.1-1.2
			c0.4-0.1,0.7-0.2,1.1-0.2c0.1-0.3,0.1-8.3,0-8.7C12.5,7,12,7,11.6,6.9c0-0.4,0-0.8,0-1.3c1.1-0.2,2.2-0.3,3.4-0.5
			c0.1,0.4,0.2,0.7,0.3,1.1c0.1-0.1,0.2-0.2,0.3-0.3c1.1-0.9,2.4-1.2,3.7-0.9c1.2,0.3,1.9,1.1,2.1,2.3c0.1,0.3,0.1,0.6,0.1,0.9
			c0,2.3,0,4.6,0,6.9c0,0.2,0,0.3,0,0.5c0.4,0.1,0.8,0.2,1.2,0.2c0,0.2,0,0.4,0,0.6c0,0.2,0,0.4,0,0.6c-1.4,0-2.7,0-4,0
			c0-0.2,0-0.3,0-0.5c0-2.5,0-5.1,0-7.6c0-0.3,0-0.6-0.1-0.9c-0.1-0.7-0.5-1.1-1.2-1.2c-0.5,0-1,0-1.4,0.4c-0.1,0.2-0.2,0.4-0.2,0.6
			c0,1.9,0,3.8,0,5.8c0,0.5,0,0.9,0,1.4C15.8,15.5,15.8,15.6,15.8,15.8z"/>
		<path class="st0" d="M105.5,6.8c-0.4,0-0.9-0.1-1.3-0.1c0-0.4,0-0.7,0-1.1c1.3-0.1,2.6-0.3,3.9-0.4c0.2,0.5,0.3,0.9,0.3,1.4
			c0,2.9,0,5.9,0,8.8c0,0.2,0,0.3,0,0.5c0.4,0.1,0.8,0.2,1.2,0.2c0,0.4-0.1,0.8-0.1,1.2c-1.1,0-2.2,0-3.4,0c-0.1-0.3-0.2-0.6-0.3-1
			c-0.1,0.1-0.2,0.1-0.3,0.2c-1.4,1.3-3.2,1.1-4.4,0.6c-0.9-0.4-1.4-1.2-1.6-2.2c-0.1-0.3-0.1-0.7-0.1-1c0-2.2,0-4.4,0-6.6
			c0-0.2,0-0.3,0-0.5c-0.5,0-0.9-0.1-1.3-0.1c0-0.4,0-0.7,0-1.1c1.3-0.1,2.6-0.3,3.9-0.5c0.1,0.4,0.3,0.8,0.3,1.3c0,2.3,0,4.6,0,6.9
			c0,0.3,0,0.6,0.1,0.9c0.1,0.9,0.7,1.4,1.5,1.4c0.3,0,0.6-0.1,0.9-0.1c0.3-0.1,0.7-0.6,0.7-0.9c0-2.6,0-5.1,0-7.7
			C105.5,6.9,105.5,6.8,105.5,6.8z"/>
		<path class="st0" d="M41.4,12c0,1,0.2,1.9,0.7,2.6c0.5,0.7,1.1,1,2,1.1c0.8,0,1.5-0.1,2.3-0.4c0.1,0,0.2-0.1,0.3-0.1
			c0.2,0.4,0.3,0.7,0.5,1.1c-0.2,0.1-0.4,0.3-0.6,0.4c-1.5,0.8-3,1.1-4.6,0.6c-1.4-0.4-2.2-1.3-2.8-2.6c-0.6-1.4-0.8-2.8-0.7-4.3
			c0.1-0.9,0.3-1.8,0.7-2.6c0.6-1.4,1.6-2.3,3.1-2.6C43.5,4.8,44.9,5,46,6c0.7,0.6,1,1.4,1.3,2.3c0.3,0.9,0.3,1.8,0.3,2.7
			c0,0.3-0.2,0.6-0.3,0.9C45.3,11.9,43.4,12,41.4,12z M45,10.4c0-0.4,0-0.7-0.1-1c-0.1-0.7-0.2-1.4-0.6-2c-0.4-0.7-1-0.9-1.7-0.7
			c-0.3,0.1-0.5,0.3-0.6,0.6c-0.4,1-0.6,2-0.6,3c0,0.1,0,0.1,0,0.2C42.5,10.5,43.7,10.5,45,10.4z"/>
		<path class="st0" d="M97.6,11.9c-2,0-4,0-5.9,0.1c0,0.4,0,0.8,0.1,1.2c0.1,0.6,0.3,1.2,0.7,1.6c0.5,0.5,1,0.8,1.7,0.8
			c0.8,0,1.5-0.1,2.2-0.4c0.1-0.1,0.3-0.1,0.5-0.2c0.2,0.4,0.3,0.7,0.5,1.1c-0.1,0-0.1,0.1-0.2,0.1c-1.3,0.9-2.7,1.2-4.2,1.1
			c-1.9-0.2-3.1-1.3-3.8-3c-0.9-2.2-0.8-4.4,0.1-6.6c0.6-1.4,1.6-2.4,3.1-2.7c1.2-0.3,2.4-0.2,3.4,0.5c0.7,0.5,1.2,1.2,1.5,2.1
			c0.4,1.1,0.6,2.2,0.5,3.3C97.9,11.3,97.7,11.6,97.6,11.9z M95.3,10.4c0-0.8-0.1-1.6-0.4-2.3c-0.1-0.4-0.3-0.7-0.6-1
			c-0.5-0.6-1.9-0.5-2.1,0.3c-0.2,0.7-0.4,1.3-0.5,2c0,0.4-0.1,0.7,0,1.2C92.8,10.5,94,10.5,95.3,10.4z"/>
		<path class="st0" d="M76.5,11.9c-2,0-4,0-5.9,0.1c0,1.1,0.2,2,0.9,2.8c0.4,0.5,1,0.8,1.7,0.8c0.8,0,1.5-0.1,2.2-0.4
			c0.1-0.1,0.3-0.1,0.5-0.2c0.2,0.4,0.3,0.7,0.5,1.1c-0.1,0.1-0.3,0.2-0.4,0.3c-1.4,0.9-2.9,1.1-4.4,0.8c-1.5-0.3-2.5-1.2-3.2-2.5
			c-0.7-1.3-0.9-2.8-0.8-4.3c0.1-1,0.3-2,0.7-2.9c0.5-1.1,1.2-1.9,2.3-2.4c1.3-0.5,2.6-0.6,3.9,0.1c0.8,0.5,1.4,1.2,1.7,2
			c0.5,1.1,0.6,2.3,0.6,3.5C76.7,11.3,76.6,11.6,76.5,11.9z M74.1,10.4c0-0.4-0.1-0.7-0.1-1.1c-0.1-0.7-0.2-1.3-0.5-1.9
			c-0.4-0.8-1.1-1-1.9-0.6c-0.2,0.1-0.3,0.2-0.4,0.4c-0.4,0.8-0.5,1.6-0.6,2.4c0,0.3-0.1,0.6-0.1,0.9C71.7,10.5,72.9,10.5,74.1,10.4
			z"/>
		<path class="st0" d="M33.5,5.2c0.1,0.4,0.2,0.7,0.3,1.1c0.1-0.1,0.3-0.2,0.4-0.3c0.8-0.5,1.7-0.7,2.7-0.8c0.5-0.1,0.8,0.1,1.1,0.5
			c-0.1,1-0.2,2.1-0.4,3.2c-0.7,0-1.3-0.1-1.9-0.1c-0.1-0.6-0.1-1.1-0.2-1.7c-0.5,0-0.9,0.2-1.2,0.4c0,2.8,0,5.5,0,8.3
			c0.4,0.1,0.8,0.2,1.2,0.3c0,0.4,0,0.8-0.1,1.2c-1.7,0-3.4,0-5.2,0c0-0.4,0-0.8,0-1.2c0.4-0.1,0.7-0.2,1.1-0.3c0-2.9,0-5.8,0-8.7
			C30.8,7,30.4,7,30,6.9c0-0.4,0-0.8,0-1.3C31.2,5.5,32.3,5.3,33.5,5.2z"/>
		<path class="st0" d="M110.3,17.3c0-0.4,0-0.8,0.1-1.2c0.4-0.1,0.7-0.2,1.1-0.3c0-2.9,0-5.8,0-8.7c-0.4,0-0.8-0.1-1.3-0.2
			c0-0.2,0-0.4,0-0.6c0-0.2,0-0.4,0-0.6c1.2-0.2,2.3-0.3,3.5-0.5c0.1,0.4,0.2,0.7,0.3,1c0.5-0.2,1-0.5,1.5-0.7
			c0.5-0.2,1-0.2,1.6-0.3c0.5-0.1,0.8,0,1.1,0.5c-0.1,1-0.2,2.1-0.4,3.2c-0.6,0-1.3,0-1.9-0.1c-0.1-0.6-0.1-1.2-0.2-1.8
			c-0.4,0.1-0.8,0.3-1.2,0.4c0,2.8,0,5.6,0,8.4c0.4,0.1,0.8,0.2,1.2,0.3c0,0.4-0.1,0.8-0.1,1.2C113.8,17.3,112.1,17.3,110.3,17.3z"
			/>
		<path class="st0" d="M64.6,7c-0.5,0.2-0.8,0.3-1.2,0.5c0,2.8,0,5.6,0,8.3c0.4,0.1,0.8,0.2,1.2,0.3c0,0.4-0.1,0.8-0.1,1.2
			c-1.7,0-3.4,0-5.2,0c0-0.4,0-0.8,0-1.2c0.4-0.1,0.7-0.2,1.1-0.3c0-2.9,0-5.8,0-8.7C60,7,59.6,7,59.2,6.9c0-0.4,0-0.8,0-1.3
			c1.1-0.2,2.3-0.3,3.5-0.5c0.1,0.4,0.2,0.7,0.3,1c0.3-0.2,0.7-0.4,1-0.5c0.6-0.3,1.3-0.4,2-0.5c0.5-0.1,0.8,0,1.1,0.5
			c-0.1,1-0.2,2.1-0.4,3.2c-0.6,0-1.3,0-1.9-0.1C64.8,8.2,64.7,7.6,64.6,7z"/>
		<path class="st0" d="M26.9,2.9c0,0.8,0,1.6,0,2.4c0.7,0,1.4,0,2.2,0c0,0.5-0.1,1-0.1,1.5C28.3,6.9,27.7,7,27,7.1
			c0,0.1,0,0.2,0,0.3c0,2.4,0,4.7,0,7.1c0,0.2,0,0.3,0,0.5c0.1,0.5,0.4,0.8,0.9,0.8c0.4,0,0.8,0,1.2,0c0,0.4,0.1,0.9,0.1,1.3
			c-0.3,0.2-0.6,0.3-1,0.3c-0.7,0.1-1.5,0.2-2.2,0.1c-1.1-0.2-1.9-1-2-2.1c0-0.2,0-0.5,0-0.7c0-2.4,0-4.7,0-7.1c0-0.1,0-0.3,0-0.4
			c-0.5-0.1-0.9-0.1-1.4-0.2c0-0.5,0-1,0.1-1.5c0.5,0,1,0,1.5-0.1C24.5,4.5,24.7,3.7,25,3C25.6,2.9,26.2,2.9,26.9,2.9z"/>
	</g>
</g>
</svg>
