<?xml version="1.0" encoding="utf-8"?>
<!-- Generator: Adobe Illustrator 21.1.0, SVG Export Plug-In . SVG Version: 6.00 Build 0)  -->
<svg version="1.1" id="Capa_1" xmlns="http://www.w3.org/2000/svg" xmlns:xlink="http://www.w3.org/1999/xlink" x="0px" y="0px"
	 viewBox="0 0 110.2 18.1" style="enable-background:new 0 0 110.2 18.1;" xml:space="preserve">
<style type="text/css">
	.st0{fill:#474748;}
</style>
<g>
	<path class="st0" d="M0.3,17.4V2.5h8l0,1.7H2.3v4.2h5.8v1.7H2.3v5.8h6.1l0,1.6H0.3z"/>
	<path class="st0" d="M12.4,17.4h-2.1L15,9.6l-4.2-7.1l2.1,0L16.1,8l3.3-5.4h2l-4.2,7.1l4.5,7.7l-2,0l-3.5-6L12.4,17.4z"/>
	<path class="st0" d="M24,17.4l0-14.9h2.7c5.9,0.1,5.5,3.5,5.5,5c-0.1,2.8-3.4,3.8-5.1,3.8h-1.3v6.2L24,17.4z M25.8,4.2v5.3h1.1
		c1.1,0,2-0.2,2.6-0.7c0.6-0.5,0.9-1.1,0.9-1.9c0-0.8-0.3-1.5-0.9-1.9c-0.6-0.5-1.5-0.7-2.6-0.7H25.8z"/>
	<path class="st0" d="M31.3,17.4L38.4,2l7.1,15.4l-2,0l-1.8-3.8H35l-1.6,3.8H31.3z M36,12h4.9l-2.5-5.8L36,12z"/>
	<path class="st0" d="M47.6,17.4V1.8l11.2,11.8V2.5l1.9,0v15.6L49.4,6.4v11.1L47.6,17.4z"/>
	<path class="st0" d="M97.1,17.4V1.8l11.2,11.8V2.5l1.9,0v15.6L98.9,6.4v11.1L97.1,17.4z"/>
	<path class="st0" d="M64.8,13.3c0.4,1.2,0.6,2.7,3.1,2.8c1.8,0.1,2.6-1.9,2.6-2.7c0-1.4-0.5-2.3-2.9-3.2c-0.2-0.1-2.3-1.1-2.9-1.6
		C64,8,63.7,7.2,63.7,6.2c0-1.1,0.4-2.1,1.2-2.9c0.8-0.8,1.8-1.2,3-1.2c0.7,0,1.4,0.1,2,0.4c0.6,0.3,1.4,1,1.9,1.8l-1.4,0.9
		c-0.4-0.6-1-1.4-2.1-1.4c-2.2,0-2.9,1.3-2.9,2.3c0,0.5,0.4,1.6,3.5,2.5c1.1,0.3,2.3,1.3,2.7,2c0.4,0.7,0.7,1.6,0.7,2.5
		c0,1.2-0.4,2.3-1.3,3.1c-0.9,0.8-1.9,1.2-3.2,1.2c-0.9,0-4.2-0.1-4.8-4L64.8,13.3z"/>
	<path class="st0" d="M79.1,9.9c0-1.1,0.2-2.1,0.7-3.1c0.4-1,1-1.9,1.8-2.6c0.7-0.7,1.5-1.2,2.5-1.6C85,2.3,86,2.1,87,2.1
		c1,0,2,0.2,2.9,0.5c0.9,0.4,1.7,0.9,2.5,1.6c0.8,0.7,1.4,1.6,1.8,2.6c0.4,1,0.6,2,0.6,3.1c0,1.1-0.2,2.1-0.7,3.1
		c-0.4,1-1,1.9-1.8,2.6c-0.7,0.7-1.5,1.2-2.5,1.6c-0.9,0.4-1.9,0.5-3,0.5c-1.1,0-2-0.2-3-0.5c-0.9-0.4-1.7-0.9-2.5-1.6
		c-0.8-0.7-1.4-1.6-1.8-2.6C79.4,12,79.1,11,79.1,9.9z M80.9,10c0,1.7,0.6,3.1,1.7,4.3c1.2,1.2,2.6,1.7,4.3,1.7
		c1.7,0,3.1-0.6,4.2-1.7c1.2-1.2,1.7-2.6,1.7-4.3c0-1.7-0.6-3.1-1.7-4.3c-1.2-1.2-2.6-1.7-4.2-1.7c-1.7,0-3.1,0.6-4.3,1.7
		C81.5,6.8,80.9,8.3,80.9,10z"/>
	<rect x="74.7" y="2.5" class="st0" width="1.9" height="15"/>
	<path class="st0" d="M0,17.3V2.3h8l0,1.7H1.9v4.2h5.8V10H1.9v5.8H8l0,1.6H0z"/>
	<path class="st0" d="M12.1,17.3H10l4.7-7.7l-4.2-7.1l2.1,0l3.1,5.4L19,2.5h2l-4.2,7.1l4.5,7.7l-2,0l-3.5-6L12.1,17.3z"/>
	<path class="st0" d="M23.6,17.3l0-14.9h2.7c5.9,0.1,5.5,3.5,5.5,5c-0.1,2.8-3.4,3.8-5.1,3.8h-1.3v6.2L23.6,17.3z M25.4,4.1v5.3h1.1
		c1.1,0,2-0.2,2.6-0.7c0.6-0.5,0.9-1.1,0.9-1.9c0-0.8-0.3-1.5-0.9-1.9c-0.6-0.5-1.5-0.7-2.6-0.7H25.4z"/>
	<path class="st0" d="M31,17.3l7.1-15.4l7.1,15.4l-2,0l-1.8-3.8h-6.7L33,17.3H31z M35.7,11.8h4.9L38.1,6L35.7,11.8z"/>
	<path class="st0" d="M47.3,17.3V1.7l11.2,11.8V2.4l1.9,0V18L49,6.3v11.1L47.3,17.3z"/>
	<path class="st0" d="M96.8,17.3V1.7L108,13.5V2.4l1.9,0V18L98.6,6.3v11.1L96.8,17.3z"/>
	<path class="st0" d="M64.4,13.2c0.4,1.2,0.6,2.7,3.1,2.8c1.8,0.1,2.6-1.9,2.6-2.7c0-1.4-0.5-2.3-2.9-3.2C67,10,64.9,9,64.3,8.5
		c-0.7-0.6-0.9-1.4-0.9-2.4c0-1.1,0.4-2.1,1.2-2.9c0.8-0.8,1.8-1.2,3-1.2c0.7,0,1.4,0.1,2,0.4c0.6,0.3,1.4,1,1.9,1.8l-1.4,0.9
		c-0.4-0.6-1-1.4-2.1-1.4c-2.2,0-2.9,1.3-2.9,2.3c0,0.5,0.4,1.6,3.5,2.5c1.1,0.3,2.3,1.3,2.7,2c0.4,0.7,0.7,1.6,0.7,2.5
		c0,1.2-0.4,2.3-1.3,3.1c-0.8,0.8-1.9,1.2-3.2,1.2c-0.9,0-4.2-0.1-4.8-4L64.4,13.2z"/>
	<path class="st0" d="M78.8,9.8c0-1.1,0.2-2.1,0.7-3.1c0.4-1,1-1.9,1.8-2.6c0.7-0.7,1.5-1.2,2.5-1.6c0.9-0.4,1.9-0.5,3-0.5
		c1,0,2,0.2,2.9,0.5c0.9,0.4,1.7,0.9,2.5,1.6c0.8,0.7,1.4,1.6,1.8,2.6c0.4,1,0.6,2,0.6,3.1c0,1.1-0.2,2.1-0.7,3.1
		c-0.4,1-1,1.9-1.8,2.6c-0.7,0.7-1.5,1.2-2.5,1.6c-0.9,0.4-1.9,0.5-2.9,0.5c-1.1,0-2.1-0.2-3-0.5c-0.9-0.4-1.7-0.9-2.5-1.6
		c-0.8-0.7-1.4-1.6-1.8-2.6C79,11.9,78.8,10.9,78.8,9.8z M80.6,9.9c0,1.7,0.6,3.1,1.7,4.3c1.2,1.2,2.6,1.7,4.2,1.7
		c1.7,0,3.1-0.6,4.2-1.7c1.2-1.2,1.7-2.6,1.7-4.3c0-1.7-0.6-3.1-1.7-4.3c-1.2-1.2-2.6-1.7-4.2-1.7c-1.7,0-3.1,0.6-4.3,1.7
		C81.2,6.7,80.6,8.2,80.6,9.9z"/>
	<rect x="74.4" y="2.3" class="st0" width="1.9" height="15"/>
	<polygon class="st0" points="87.9,5.4 89.1,6.9 94.5,1.5 93.1,0 	"/>
</g>
</svg>
