<?xml version="1.0" encoding="utf-8"?>
<!-- Generator: Adobe Illustrator 21.1.0, SVG Export Plug-In . SVG Version: 6.00 Build 0)  -->
<svg version="1.1" id="Capa_1" xmlns="http://www.w3.org/2000/svg" xmlns:xlink="http://www.w3.org/1999/xlink" x="0px" y="0px"
	 viewBox="0 0 119.3 39" style="enable-background:new 0 0 119.3 39;" xml:space="preserve">
<style type="text/css">
	.st0{fill:#AE414F;}
	.st1{fill:#FFFFFF;}
</style>
<path class="st0" d="M119.3,33.8c0,2.9-2.4,5.3-5.3,5.3H5.3C2.4,39,0,36.7,0,33.8V5.3C0,2.4,2.4,0,5.3,0H114c2.9,0,5.3,2.4,5.3,5.3
	V33.8z"/>
<g>
	<path class="st1" d="M20.6,6.7h-9.7c-1.2,0-2.1,0.9-2.1,2.1v21.5c0,1.2,0.9,2.1,2.1,2.1h9.7c1.2,0,2.1-0.9,2.1-2.1V8.8
		C22.7,7.6,21.8,6.7,20.6,6.7z M15.7,30.9c-0.8,0-1.4-0.6-1.4-1.4c0-0.8,0.6-1.4,1.4-1.4c0.8,0,1.4,0.6,1.4,1.4
		C17.2,30.2,16.5,30.9,15.7,30.9z M21.1,27.4H10.4V11.5h10.6V27.4z"/>
	<g>
		<path class="st1" d="M30.7,10.5l-0.6,1.8h-0.8l1.9-5.7h0.9l1.9,5.7h-0.8l-0.6-1.8H30.7z M32.5,9.9L32,8.3c-0.1-0.4-0.2-0.7-0.3-1
			h0c-0.1,0.3-0.2,0.7-0.3,1l-0.6,1.6H32.5z"/>
		<path class="st1" d="M34.8,8.2l0.8,2.3c0.1,0.4,0.2,0.7,0.3,1.1h0c0.1-0.3,0.2-0.7,0.3-1.1l0.8-2.3h0.8l-1.6,4.1h-0.7l-1.6-4.1
			H34.8z"/>
		<path class="st1" d="M41.3,11.3c0,0.4,0,0.7,0.1,1h-0.7l-0.1-0.5h0c-0.2,0.3-0.7,0.6-1.2,0.6c-0.8,0-1.2-0.6-1.2-1.2
			c0-1,0.9-1.5,2.5-1.5V9.6c0-0.3-0.1-1-0.9-0.9c-0.4,0-0.8,0.1-1.1,0.3l-0.2-0.5c0.3-0.2,0.8-0.4,1.4-0.4c1.3,0,1.6,0.9,1.6,1.7
			V11.3z M40.6,10.2c-0.8,0-1.7,0.1-1.7,0.9c0,0.5,0.3,0.7,0.7,0.7c0.5,0,0.9-0.3,1-0.7c0-0.1,0-0.2,0-0.2V10.2z"/>
		<path class="st1" d="M42.8,7.5c-0.3,0-0.5-0.2-0.5-0.5c0-0.3,0.2-0.5,0.5-0.5c0.3,0,0.5,0.2,0.5,0.5C43.3,7.2,43.1,7.5,42.8,7.5
			L42.8,7.5z M42.5,12.3V8.2h0.7v4.1H42.5z"/>
		<path class="st1" d="M44.4,6.3h0.7v6h-0.7V6.3z"/>
		<path class="st1" d="M49.2,11.3c0,0.4,0,0.7,0.1,1h-0.7l-0.1-0.5h0c-0.2,0.3-0.7,0.6-1.2,0.6c-0.8,0-1.2-0.6-1.2-1.2
			c0-1,0.9-1.5,2.5-1.5V9.6c0-0.3-0.1-1-0.9-0.9c-0.4,0-0.8,0.1-1.1,0.3l-0.2-0.5c0.3-0.2,0.8-0.4,1.4-0.4c1.3,0,1.6,0.9,1.6,1.7
			V11.3z M48.5,10.2c-0.8,0-1.7,0.1-1.7,0.9c0,0.5,0.3,0.7,0.7,0.7c0.5,0,0.9-0.3,1-0.7c0-0.1,0-0.2,0-0.2V10.2z"/>
		<path class="st1" d="M50.4,6.3h0.7v2.6h0c0.3-0.5,0.7-0.7,1.4-0.7c1,0,1.7,0.8,1.7,2.1c0,1.5-0.9,2.2-1.8,2.2
			c-0.6,0-1.1-0.2-1.4-0.8h0l0,0.7h-0.6c0-0.3,0-0.7,0-1.1V6.3z M51.1,10.7c0,0.1,0,0.2,0,0.3c0.1,0.5,0.6,0.9,1.1,0.9
			c0.8,0,1.2-0.6,1.2-1.6c0-0.8-0.4-1.5-1.2-1.5c-0.5,0-1,0.4-1.1,0.9c0,0.1,0,0.2,0,0.3V10.7z"/>
		<path class="st1" d="M55.1,6.3h0.7v6h-0.7V6.3z"/>
		<path class="st1" d="M57.5,10.4c0,1,0.6,1.4,1.4,1.4c0.5,0,0.9-0.1,1.1-0.2l0.1,0.5c-0.3,0.1-0.7,0.3-1.4,0.3c-1.2,0-2-0.8-2-2.1
			c0-1.2,0.7-2.2,1.9-2.2c1.3,0,1.7,1.2,1.7,1.9c0,0.2,0,0.3,0,0.4L57.5,10.4z M59.7,9.9c0-0.5-0.2-1.2-1-1.2
			c-0.8,0-1.1,0.7-1.1,1.2H59.7z"/>
		<path class="st1" d="M64.7,12.4c-1.1,0-2-0.8-2-2.1c0-1.4,0.9-2.2,2-2.2c1.2,0,2,0.9,2,2.1C66.7,11.7,65.6,12.4,64.7,12.4
			L64.7,12.4z M64.7,11.8c0.7,0,1.2-0.7,1.2-1.6c0-0.7-0.3-1.6-1.2-1.6c-0.9,0-1.2,0.8-1.2,1.6C63.4,11.2,64,11.8,64.7,11.8
			L64.7,11.8z"/>
		<path class="st1" d="M67.6,9.3c0-0.4,0-0.8,0-1.1h0.7l0,0.7h0c0.2-0.4,0.7-0.8,1.3-0.8c0.6,0,1.4,0.3,1.4,1.7v2.4h-0.7V9.9
			c0-0.7-0.2-1.2-0.9-1.2c-0.5,0-0.9,0.3-1,0.8c0,0.1-0.1,0.2-0.1,0.3v2.5h-0.7V9.3z"/>
		<path class="st1" d="M74.9,7.2v1h1.1v0.6h-1.1V11c0,0.5,0.1,0.8,0.6,0.8c0.2,0,0.3,0,0.4-0.1l0,0.6c-0.1,0.1-0.4,0.1-0.7,0.1
			c-0.3,0-0.6-0.1-0.8-0.3c-0.2-0.2-0.3-0.6-0.3-1.1V8.8h-0.6V8.2h0.6V7.5L74.9,7.2z"/>
		<path class="st1" d="M76.7,6.3h0.7v2.5h0c0.1-0.2,0.3-0.4,0.5-0.5c0.2-0.1,0.5-0.2,0.8-0.2c0.5,0,1.4,0.3,1.4,1.7v2.4h-0.7V10
			c0-0.7-0.2-1.2-0.9-1.2c-0.5,0-0.9,0.3-1,0.7c0,0.1-0.1,0.2-0.1,0.4v2.5h-0.7V6.3z"/>
		<path class="st1" d="M81.8,10.4c0,1,0.6,1.4,1.4,1.4c0.5,0,0.9-0.1,1.1-0.2l0.1,0.5c-0.3,0.1-0.7,0.3-1.4,0.3c-1.2,0-2-0.8-2-2.1
			c0-1.2,0.7-2.2,1.9-2.2c1.3,0,1.7,1.2,1.7,1.9c0,0.2,0,0.3,0,0.4L81.8,10.4z M84,9.9c0-0.5-0.2-1.2-1-1.2c-0.8,0-1.1,0.7-1.1,1.2
			H84z"/>
		<path class="st1" d="M87.6,7.5c-0.3,0-0.5-0.2-0.5-0.5c0-0.3,0.2-0.5,0.5-0.5c0.3,0,0.5,0.2,0.5,0.5C88.1,7.2,88,7.5,87.6,7.5
			L87.6,7.5z M87.3,12.3V8.2H88v4.1H87.3z"/>
		<path class="st1" d="M89.3,6.7c0.4-0.1,0.8-0.1,1.4-0.1c0.7,0,1.3,0.2,1.6,0.5c0.3,0.3,0.5,0.7,0.5,1.2c0,0.5-0.2,0.9-0.4,1.2
			c-0.4,0.4-1,0.6-1.7,0.6c-0.2,0-0.4,0-0.6,0v2.3h-0.7V6.7z M90,9.4c0.2,0,0.4,0.1,0.6,0.1C91.5,9.5,92,9,92,8.3
			c0-0.8-0.5-1.1-1.3-1.1c-0.3,0-0.6,0-0.7,0.1V9.4z"/>
		<path class="st1" d="M93.6,6.3h0.7v2.5h0c0.1-0.2,0.3-0.4,0.5-0.5c0.2-0.1,0.5-0.2,0.8-0.2c0.5,0,1.4,0.3,1.4,1.7v2.4h-0.7V10
			c0-0.7-0.2-1.2-0.9-1.2c-0.5,0-0.9,0.3-1,0.7c0,0.1-0.1,0.2-0.1,0.4v2.5h-0.7V6.3z"/>
		<path class="st1" d="M99.9,12.4c-1.1,0-2-0.8-2-2.1c0-1.4,0.9-2.2,2-2.2c1.2,0,2,0.9,2,2.1C102,11.7,100.9,12.4,99.9,12.4
			L99.9,12.4z M100,11.8c0.7,0,1.2-0.7,1.2-1.6c0-0.7-0.3-1.6-1.2-1.6c-0.9,0-1.2,0.8-1.2,1.6C98.7,11.2,99.2,11.8,100,11.8
			L100,11.8z"/>
		<path class="st1" d="M102.9,9.3c0-0.4,0-0.8,0-1.1h0.7l0,0.7h0c0.2-0.4,0.7-0.8,1.3-0.8c0.6,0,1.4,0.3,1.4,1.7v2.4h-0.7V9.9
			c0-0.7-0.2-1.2-0.9-1.2c-0.5,0-0.9,0.3-1,0.8c0,0.1-0.1,0.2-0.1,0.3v2.5h-0.7V9.3z"/>
		<path class="st1" d="M107.9,10.4c0,1,0.7,1.4,1.4,1.4c0.5,0,0.9-0.1,1.1-0.2l0.1,0.5c-0.3,0.1-0.7,0.3-1.4,0.3c-1.2,0-2-0.8-2-2.1
			c0-1.2,0.7-2.2,1.9-2.2c1.3,0,1.7,1.2,1.7,1.9c0,0.2,0,0.3,0,0.4L107.9,10.4z M110.1,9.9c0-0.5-0.2-1.2-1-1.2
			c-0.8,0-1.1,0.7-1.1,1.2H110.1z"/>
	</g>
	<g>
		<path class="st1" d="M34.2,16.2l-5,14.7h2.3l1.5-4.5h4.8l1.5,4.5h2.4l-5-14.7H34.2z M35.4,18.6c0.2,0.7,0.4,1.3,0.6,2.1l1.3,3.9
			h-3.8l1.3-3.9C35,20,35.2,19.3,35.4,18.6z"/>
		<path class="st1" d="M48.2,20c-1.5,0-2.7,0.6-3.5,1.7l-0.1-1.5h-2l0,0.2c0.1,0.9,0.1,1.9,0.1,3.4v11.4h2.2v-5.3
			c0.7,0.8,1.8,1.3,3,1.3c1.3,0,2.5-0.5,3.4-1.4c1-1,1.5-2.5,1.5-4.3c0-1.6-0.4-2.9-1.3-3.9C50.6,20.5,49.4,20,48.2,20z M47.6,21.8
			c2,0,2.9,1.8,2.9,3.7c0,2.4-1.1,3.8-3,3.8c-1.2,0-2.3-0.8-2.6-2.1c-0.1-0.2-0.1-0.4-0.1-0.7v-1.8c0-0.2,0-0.4,0.1-0.5
			c0-0.1,0-0.1,0-0.2C45.3,22.7,46.4,21.8,47.6,21.8z"/>
		<path class="st1" d="M59.6,20c-1.5,0-2.7,0.6-3.5,1.7L56,20.2h-2l0,0.2c0.1,0.9,0.1,1.9,0.1,3.4v11.4h2.2v-5.3
			c0.7,0.8,1.8,1.3,3,1.3c1.3,0,2.5-0.5,3.4-1.4c1-1,1.5-2.5,1.5-4.3c0-1.6-0.4-2.9-1.3-3.9C62.1,20.5,60.9,20,59.6,20z M59.1,21.8
			c2,0,2.9,1.8,2.9,3.7c0,2.4-1.1,3.8-3,3.8c-1.2,0-2.3-0.8-2.6-2.1c-0.1-0.2-0.1-0.4-0.1-0.7v-1.8c0-0.2,0-0.4,0.1-0.6
			c0-0.1,0-0.1,0-0.2C56.7,22.7,57.8,21.8,59.1,21.8z"/>
		<path class="st1" d="M74,22.4c-2.1-0.8-2.7-1.4-2.7-2.6c0-1,0.8-2,2.5-2c1.4,0,2.4,0.5,2.6,0.7l0.2,0.1l0.6-1.9l-0.1-0.1
			c-0.4-0.2-1.4-0.7-3.2-0.7C71,15.9,69,17.6,69,20c0,1.9,1.2,3.3,3.9,4.3c1.9,0.7,2.6,1.4,2.6,2.7c0,1.4-1.1,2.3-2.8,2.3
			c-1.1,0-2.3-0.3-3.2-0.9l-0.2-0.1l-0.6,1.9l0.1,0.1c0.8,0.6,2.4,1,3.8,1c3.8,0,5.2-2.3,5.2-4.3C77.8,24.7,76.7,23.4,74,22.4z"/>
		<path class="st1" d="M81.8,17.7l-2.2,0.7v1.9H78V22h1.6v5.5c0,1.3,0.3,2.2,0.8,2.8c0.5,0.5,1.3,0.8,2.2,0.8c0.8,0,1.4-0.2,1.7-0.3
			l0.1,0L84.3,29l-0.2,0.1c-0.3,0.1-0.6,0.1-1,0.1c-0.9,0-1.2-0.5-1.2-1.8V22h2.7v-1.8h-2.7V17.7z"/>
		<path class="st1" d="M90,20c-3.1,0-5.3,2.3-5.3,5.7c0,3.2,2.1,5.5,5.1,5.5h0c2.6,0,5.3-1.8,5.3-5.7c0-1.6-0.5-2.9-1.4-3.9
			C92.8,20.5,91.5,20,90,20z M89.9,21.7c2,0,2.9,2,2.9,3.8c0,2.2-1.2,3.9-3,3.9h0c-1.7,0-2.9-1.6-2.9-3.8
			C86.9,23.7,87.9,21.7,89.9,21.7z"/>
		<path class="st1" d="M102,20.1l-0.1,0c-0.2,0-0.4-0.1-0.6-0.1c-1.2,0-2.2,0.7-2.8,1.8l-0.1-1.6h-2l0,0.2c0.1,0.9,0.1,1.9,0.1,3.2
			l0,7.3h2.2v-5.7c0-0.3,0-0.6,0.1-0.9c0.3-1.4,1.2-2.2,2.3-2.2c0.2,0,0.4,0,0.6,0l0.2,0V20.1z"/>
		<path class="st1" d="M107,20c-3,0-5,2.4-5,5.8c0,3.3,2.1,5.4,5.3,5.4c1.7,0,2.8-0.4,3.5-0.7l0.1-0.1l-0.4-1.7l-0.2,0.1
			c-0.6,0.2-1.4,0.5-2.8,0.5c-1,0-3.2-0.3-3.3-3.2l7.2,0l0-0.1c0-0.2,0.1-0.5,0.1-0.9C111.4,22.7,110.2,20,107,20z M106.8,21.6
			c0.7,0,1.2,0.2,1.6,0.6c0.6,0.7,0.8,1.6,0.8,2.1h-5.1C104.4,23.1,105.2,21.6,106.8,21.6z"/>
	</g>
</g>
</svg>
