<svg xmlns="http://www.w3.org/2000/svg" viewBox="0 0 22.87 32.87"><title>Mapa-econduce</title><path d="M22.87,11.43c0,6.31-11.43,21.44-11.43,21.44S0,17.75,0,11.43a11.43,11.43,0,1,1,22.87,0" style="fill:#f37059"/><path d="M19.74,11.61a8,8,0,1,1-8-8,8,8,0,0,1,8,8" style="fill:#f7f7f7"/><path d="M8.59,15.35v-9h3.68a2.22,2.22,0,0,1,2.47,2.28,2,2,0,0,1-1.57,2.05,2.25,2.25,0,0,1,1.75,2.2,2.31,2.31,0,0,1-2.56,2.42H8.59Zm5.34-6.59a1.61,1.61,0,0,0-1.76-1.67H9.36v3.32h2.82A1.6,1.6,0,0,0,13.94,8.76Zm0.17,4.12a1.74,1.74,0,0,0-1.88-1.77H9.36v3.54h2.87A1.69,1.69,0,0,0,14.11,12.88Z" style="fill:#f37059"/></svg>