<?xml version="1.0" encoding="utf-8"?>
<!-- Generator: Adobe Illustrator 20.1.0, SVG Export Plug-In . SVG Version: 6.00 Build 0)  -->
<svg version="1.1" id="Capa_1" xmlns="http://www.w3.org/2000/svg" xmlns:xlink="http://www.w3.org/1999/xlink" x="0px" y="0px"
	 viewBox="0 0 142.4 34.7" style="enable-background:new 0 0 142.4 34.7;" xml:space="preserve">
<style type="text/css">
	.st0{fill:#00A1C4;}
	.st1{fill:#58595B;}
</style>
<title>logo colores</title>
<path class="st0" d="M7.6,27.1c-1,0-2-0.2-3-0.5c-0.9-0.4-1.7-0.9-2.4-1.6c-0.7-0.7-1.2-1.5-1.6-2.4c-0.4-1-0.6-2.1-0.6-3.1v-0.1
	c0-1,0.2-2,0.5-3c0.3-0.9,0.8-1.7,1.5-2.5c0.6-0.7,1.4-1.3,2.3-1.7c0.9-0.4,1.9-0.6,2.9-0.6c1.1,0,2.2,0.2,3.2,0.7
	c0.8,0.4,1.6,1,2.2,1.7c0.6,0.8,1,1.7,1.3,2.6c0.3,1,0.4,2,0.4,3c0,0.2,0,0.3,0,0.5s0,0.4,0,0.6H4.1c0.1,0.9,0.6,1.7,1.2,2.3
	c0.7,0.5,1.5,0.8,2.3,0.7c0.6,0,1.3-0.1,1.8-0.4c0.6-0.3,1.2-0.7,1.7-1.2l2.4,2.1c-0.7,0.8-1.5,1.5-2.5,2C10,26.9,8.8,27.1,7.6,27.1
	 M10.3,18.1c-0.1-0.8-0.4-1.6-1-2.3C8.7,15.3,8,15,7.2,15c-0.8,0-1.6,0.3-2.1,0.9c-0.5,0.7-0.9,1.5-1,2.3L10.3,18.1L10.3,18.1z"/>
<path class="st0" d="M25.8,27.1c-1,0-2.1-0.2-3-0.6c-0.9-0.4-1.7-0.9-2.4-1.6c-0.7-0.7-1.2-1.5-1.6-2.4c-0.4-1-0.6-2-0.6-3v0
	c0-1,0.2-2,0.6-3c0.4-0.9,0.9-1.8,1.6-2.5c0.7-0.7,1.5-1.3,2.4-1.7c1-0.4,2-0.6,3.1-0.6c2.2-0.1,4.4,0.8,5.8,2.5l-2.5,2.8
	c-0.4-0.5-0.9-0.9-1.4-1.2c-0.6-0.3-1.2-0.5-1.9-0.4c-0.5,0-1,0.1-1.4,0.3c-0.4,0.2-0.8,0.5-1.1,0.9c-0.3,0.4-0.6,0.8-0.7,1.3
	c-0.2,0.5-0.3,1-0.3,1.6v0c0,0.5,0.1,1.1,0.3,1.6c0.2,0.5,0.4,0.9,0.8,1.3c0.3,0.4,0.7,0.7,1.2,0.9c0.5,0.2,1,0.3,1.5,0.3
	c0.6,0,1.2-0.1,1.8-0.4c0.6-0.3,1.1-0.7,1.5-1.1l2.5,2.5c-0.7,0.8-1.5,1.5-2.4,2C28.3,26.9,27.1,27.2,25.8,27.1"/>
<path class="st1" d="M43.2,27.1c-1.1,0-2.1-0.2-3.1-0.6c-2.9-1.2-4.7-4-4.7-7.1v-0.1c0-1,0.2-2.1,0.6-3c0.4-0.9,0.9-1.7,1.7-2.4
	c1.5-1.5,3.5-2.3,5.7-2.3c1.1,0,2.1,0.2,3.1,0.6c0.9,0.4,1.8,0.9,2.5,1.6c0.7,0.7,1.3,1.5,1.7,2.4c0.4,0.9,0.6,2,0.6,3v0
	c0,1-0.2,2.1-0.6,3c-0.8,1.9-2.3,3.3-4.2,4.1C45.4,26.9,44.3,27.1,43.2,27.1 M43.3,23.4c0.5,0,1.1-0.1,1.6-0.3
	c0.5-0.2,0.9-0.5,1.2-0.9c0.3-0.4,0.6-0.8,0.8-1.2c0.2-0.5,0.3-1,0.3-1.6v-0.1c0-0.5-0.1-1.1-0.3-1.6c-0.2-0.5-0.4-0.9-0.8-1.3
	c-0.3-0.4-0.8-0.7-1.2-0.9c-0.5-0.2-1-0.3-1.6-0.3c-0.5,0-1.1,0.1-1.6,0.3c-0.4,0.2-0.9,0.5-1.2,0.9c-0.3,0.4-0.6,0.8-0.8,1.3
	c-0.2,0.5-0.3,1-0.2,1.6v0c0,0.5,0.1,1.1,0.3,1.6c0.2,0.5,0.4,0.9,0.8,1.3c0.3,0.4,0.8,0.7,1.2,0.9C42.2,23.3,42.8,23.4,43.3,23.4"
	/>
<path class="st1" d="M55.7,11.9h4.1V14c0.2-0.3,0.5-0.6,0.8-0.9c0.3-0.3,0.6-0.5,0.9-0.8c2-1.2,4.5-0.9,6.2,0.7
	c0.9,1.1,1.4,2.6,1.3,4.1v9.6h-4.1v-8.3c0.1-0.8-0.2-1.6-0.7-2.3c-0.5-0.5-1.1-0.8-1.8-0.8c-0.7,0-1.4,0.2-1.9,0.8
	c-0.5,0.6-0.8,1.4-0.7,2.3v8.3h-4.1V11.9z"/>
<path class="st1" d="M79.2,27c-0.8,0-1.7-0.2-2.5-0.5c-0.8-0.3-1.5-0.9-2.1-1.5c-0.6-0.7-1.1-1.5-1.5-2.4c-0.4-1.1-0.6-2.2-0.6-3.3
	v0c0-1.1,0.2-2.2,0.6-3.3c0.3-0.9,0.8-1.7,1.5-2.4c0.6-0.6,1.3-1.2,2.1-1.5c0.8-0.3,1.6-0.5,2.5-0.5c1,0,1.9,0.2,2.7,0.7
	c0.7,0.4,1.3,0.9,1.8,1.6V6.5h4.1v20.2h-4.1v-2.1c-0.5,0.7-1.1,1.3-1.8,1.7C81,26.8,80.1,27,79.2,27 M80.2,23.4
	c0.5,0,0.9-0.1,1.4-0.3c0.4-0.2,0.8-0.5,1.1-0.8c0.3-0.4,0.6-0.8,0.8-1.3c0.2-0.5,0.3-1.1,0.3-1.7v0c0-0.6-0.1-1.1-0.3-1.7
	c-0.2-0.5-0.4-0.9-0.8-1.3c-0.3-0.4-0.7-0.6-1.1-0.8c-0.9-0.4-1.9-0.4-2.7,0c-0.4,0.2-0.8,0.5-1.1,0.8c-0.3,0.4-0.6,0.8-0.8,1.3
	c-0.2,0.5-0.3,1.1-0.3,1.7v0c0,0.6,0.1,1.1,0.3,1.7c0.2,0.5,0.4,0.9,0.8,1.3c0.3,0.4,0.7,0.6,1.1,0.8C79.3,23.3,79.7,23.4,80.2,23.4
	"/>
<path class="st1" d="M98,27c-1.4,0.1-2.7-0.5-3.7-1.5c-0.9-1.1-1.4-2.6-1.3-4.1v-9.6h4.1v8.3c-0.1,0.8,0.2,1.6,0.6,2.3
	c0.5,0.5,1.1,0.8,1.9,0.8c0.7,0,1.4-0.2,1.9-0.8c0.5-0.6,0.8-1.4,0.7-2.3v-8.3h4.1v14.9h-4.1v-2.1c-0.2,0.3-0.5,0.6-0.8,0.9
	c-0.3,0.3-0.6,0.5-0.9,0.8c-0.4,0.2-0.7,0.4-1.1,0.5C98.9,27,98.4,27,98,27"/>
<path class="st1" d="M118.6,27.1c-1,0-2.1-0.2-3-0.6c-0.9-0.4-1.7-0.9-2.4-1.6c-0.7-0.7-1.2-1.5-1.6-2.4c-0.4-1-0.6-2-0.6-3v0
	c0-1,0.2-2,0.6-3c0.4-0.9,0.9-1.8,1.6-2.5c0.7-0.7,1.5-1.3,2.4-1.7c1-0.4,2-0.6,3.1-0.6c1.2,0,2.4,0.2,3.4,0.7
	c0.9,0.4,1.7,1.1,2.4,1.8l-2.5,2.8c-0.4-0.5-0.9-0.9-1.4-1.2c-0.6-0.3-1.2-0.5-1.9-0.4c-0.5,0-1,0.1-1.4,0.3
	c-0.4,0.2-0.8,0.5-1.1,0.9c-0.3,0.4-0.6,0.8-0.7,1.3c-0.2,0.5-0.3,1-0.3,1.6v0c0,0.5,0.1,1.1,0.3,1.6c0.2,0.5,0.4,0.9,0.8,1.3
	c0.7,0.8,1.7,1.2,2.7,1.2c0.6,0,1.3-0.1,1.8-0.4c0.6-0.3,1.1-0.7,1.5-1.1l2.4,2.5c-0.7,0.8-1.5,1.5-2.4,2
	C121,26.9,119.8,27.2,118.6,27.1"/>
<path class="st1" d="M135.7,27.1c-1,0-2-0.2-3-0.5c-0.9-0.4-1.7-0.9-2.4-1.6c-0.7-0.7-1.2-1.5-1.6-2.4c-0.4-1-0.6-2.1-0.6-3.1v-0.1
	c0-1,0.2-2,0.5-3c0.3-0.9,0.8-1.7,1.5-2.5c0.6-0.7,1.4-1.3,2.3-1.7c0.9-0.4,1.9-0.6,2.9-0.6c1.1,0,2.2,0.2,3.1,0.7
	c0.9,0.4,1.6,1,2.2,1.7c0.6,0.8,1,1.6,1.3,2.6c0.3,1,0.4,2,0.4,3c0,0.2,0,0.3,0,0.5s0,0.4,0,0.6h-10.2c0.1,0.9,0.5,1.7,1.2,2.3
	c0.7,0.5,1.5,0.8,2.3,0.7c0.6,0,1.3-0.1,1.8-0.4c0.6-0.3,1.2-0.7,1.7-1.2l2.4,2.1c-0.7,0.8-1.5,1.5-2.5,2
	C138.1,26.9,136.9,27.1,135.7,27.1 M138.4,18.1c-0.1-0.8-0.4-1.6-1-2.3c-0.5-0.6-1.3-0.9-2.1-0.9c-0.8,0-1.6,0.3-2.1,0.9
	c-0.6,0.7-0.9,1.5-1,2.3H138.4L138.4,18.1z"/>
</svg>
