<?xml version="1.0" encoding="UTF-8" standalone="no"?>
<!-- Created with Inkscape (http://www.inkscape.org/) -->

<svg
   xmlns:dc="http://purl.org/dc/elements/1.1/"
   xmlns:cc="http://creativecommons.org/ns#"
   xmlns:rdf="http://www.w3.org/1999/02/22-rdf-syntax-ns#"
   xmlns:svg="http://www.w3.org/2000/svg"
   xmlns="http://www.w3.org/2000/svg"
   xmlns:sodipodi="http://sodipodi.sourceforge.net/DTD/sodipodi-0.dtd"
   xmlns:inkscape="http://www.inkscape.org/namespaces/inkscape"
   width="195"
   height="195"
   viewBox="0 0 195 195"
   id="svg30072"
   version="1.1"
   inkscape:version="0.91 r13725"
   sodipodi:docname="paso1.svg">
  <defs
     id="defs30074">
    <clipPath
       clipPathUnits="userSpaceOnUse"
       id="clipPath4216">
      <path
         d="m 0,4154.561 1280,0 L 1280,0 0,0 0,4154.561 Z"
         id="path4218"
         inkscape:connector-curvature="0" />
    </clipPath>
  </defs>
  <sodipodi:namedview
     id="base"
     pagecolor="#ffffff"
     bordercolor="#666666"
     borderopacity="1.0"
     inkscape:pageopacity="0.0"
     inkscape:pageshadow="2"
     inkscape:zoom="1.4"
     inkscape:cx="203.57143"
     inkscape:cy="177.14286"
     inkscape:document-units="px"
     inkscape:current-layer="layer1"
     showgrid="false"
     inkscape:window-width="1299"
     inkscape:window-height="744"
     inkscape:window-x="67"
     inkscape:window-y="24"
     inkscape:window-maximized="1"
     units="px" />
  <metadata
     id="metadata30077">
    <rdf:RDF>
      <cc:Work
         rdf:about="">
        <dc:format>image/svg+xml</dc:format>
        <dc:type
           rdf:resource="http://purl.org/dc/dcmitype/StillImage" />
        <dc:title></dc:title>
      </cc:Work>
    </rdf:RDF>
  </metadata>
  <g
     inkscape:label="Capa 1"
     inkscape:groupmode="layer"
     id="layer1"
     transform="translate(0,-857.36216)">
    <g
       transform="matrix(1.25,0,0,-1.25,-169.46534,4479.7615)"
       id="g4212">
      <g
         id="g4214"
         clip-path="url(#clipPath4216)">
        <g
           id="g4220"
           transform="translate(289.6812,2818.7195)">
          <path
             d="m 0,0 c 0,-41.939 -33.998,-75.938 -75.938,-75.938 -41.939,0 -75.937,33.999 -75.937,75.938 0,41.939 33.998,75.938 75.937,75.938 C -33.998,75.938 0,41.939 0,0"
             style="fill:#4bb6a5;fill-opacity:1;fill-rule:nonzero;stroke:none"
             id="path4222"
             inkscape:connector-curvature="0" />
        </g>
        <path
           d="m 270.605,2783.858 -109.523,0 0,78.167 109.523,0 0,-78.167 z"
           style="fill:#d7dede;fill-opacity:1;fill-rule:nonzero;stroke:none"
           id="path4224"
           inkscape:connector-curvature="0" />
        <path
           d="m 217.53,2783.858 -56.448,0 0,78.167 56.448,0 0,-78.167 z"
           style="fill:#b1b4b5;fill-opacity:1;fill-rule:nonzero;stroke:none"
           id="path4226"
           inkscape:connector-curvature="0" />
        <path
           d="m 265.343,2788.372 -98.999,0 0,68.924 98.999,0 0,-68.924 z"
           style="fill:#144758;fill-opacity:1;fill-rule:nonzero;stroke:none"
           id="path4228"
           inkscape:connector-curvature="0" />
        <g
           id="g4230"
           transform="translate(166.3439,2857.2952)">
          <path
             d="M 0,0 98.999,-68.924 98.999,0 0,0 Z"
             style="fill:#1b5966;fill-opacity:1;fill-rule:nonzero;stroke:none"
             id="path4232"
             inkscape:connector-curvature="0" />
        </g>
        <path
           d="m 249.16,2833.939 -64.89,0 0,7.404 64.89,0 0,-7.404 z"
           style="fill:#c5cbcb;fill-opacity:1;fill-rule:nonzero;stroke:none"
           id="path4234"
           inkscape:connector-curvature="0" />
        <path
           d="m 249.16,2819.17 -64.89,0 0,7.404 64.89,0 0,-7.404 z"
           style="fill:#c5cbcb;fill-opacity:1;fill-rule:nonzero;stroke:none"
           id="path4236"
           inkscape:connector-curvature="0" />
        <path
           d="m 249.098,2800.435 -64.889,0 0,11.728 64.889,0 0,-11.728 z"
           style="fill:#d87059;fill-opacity:1;fill-rule:nonzero;stroke:none"
           id="path4238"
           inkscape:connector-curvature="0" />
        <g
           id="g4240"
           transform="translate(205.6599,2783.9268)">
          <path
             d="M 0,0 -4.1,-8.253 26.741,-8.484 22.389,-0.068 0,0 Z"
             style="fill:#88848d;fill-opacity:1;fill-rule:nonzero;stroke:none"
             id="path4242"
             inkscape:connector-curvature="0" />
        </g>
        <g
           id="g4244"
           transform="translate(237.9305,2770.302)">
          <path
             d="m 0,0 -41.9,0 c -0.675,0 -1.223,0.547 -1.223,1.222 l 0,3.534 c 0,0.675 0.548,1.222 1.223,1.222 l 41.9,0 c 0.675,0 1.222,-0.547 1.222,-1.222 l 0,-3.534 C 1.222,0.547 0.675,0 0,0"
             style="fill:#7f7d82;fill-opacity:1;fill-rule:nonzero;stroke:none"
             id="path4246"
             inkscape:connector-curvature="0" />
        </g>
        <g
           id="g4248"
           transform="translate(217.631,2770.394)">
          <path
             d="m 0,0 20.723,-0.092 c 0.441,0 0.799,0.357 0.799,0.798 l 0,4.382 c 0,0.441 -0.358,0.798 -0.799,0.798 L -0.156,5.865 0,0 Z"
             style="fill:#878489;fill-opacity:1;fill-rule:nonzero;stroke:none"
             id="path4250"
             inkscape:connector-curvature="0" />
        </g>
      </g>
    </g>
    <text
       y="975.32062"
       x="72.023918"
       style="font-variant:normal;font-weight:normal;font-stretch:normal;font-size:9.28199959px;font-family:'Myriad Pro';-inkscape-font-specification:Geometria;writing-mode:lr-tb;fill:#ffffff;fill-opacity:1;fill-rule:nonzero;stroke:none"
       id="text4252">
      <tspan
         x="72.023918 77.017632 81.584373 87.580559 89.798943 94.374962 98.988121 104.02825 108.99413 113.60729"
         y="975.32062"
         sodipodi:role="line"
         id="tspan4254">REGISTRATE</tspan>
    </text>
  </g>
</svg>
