<svg xmlns="http://www.w3.org/2000/svg" viewBox="0 0 119.31 39.03"><defs><style>.cls-1{fill:#d63c51;}.cls-2{fill:#fff;}</style></defs><title>Recurso43</title><g id="Capa_2" data-name="Capa 2"><g id="Lightbox"><rect class="cls-1" width="119.31" height="39.03" rx="5.27" ry="5.27"/><path class="cls-2" d="M20.61,6.67H10.89A2.11,2.11,0,0,0,8.78,8.78V30.31a2.11,2.11,0,0,0,2.11,2.11h9.72a2.11,2.11,0,0,0,2.11-2.11V8.78A2.11,2.11,0,0,0,20.61,6.67Zm-4.86,24.2a1.4,1.4,0,1,1,1.41-1.41A1.4,1.4,0,0,1,15.75,30.87Zm5.31-3.49H10.43V11.5H21.06Z"/><path class="cls-2" d="M30.67,10.51l-.59,1.79h-.76l1.93-5.69h.89l1.94,5.69H33.3l-.61-1.79Zm1.86-.57L32,8.3c-.12-.37-.2-.71-.29-1h0c-.08.33-.17.68-.28,1l-.56,1.65Z"/><path class="cls-2" d="M34.84,8.22l.8,2.29c.14.38.25.72.33,1.05h0c.09-.34.21-.68.35-1.05l.79-2.29h.78l-1.6,4.08H35.6L34.05,8.22Z"/><path class="cls-2" d="M41.33,11.32a6.82,6.82,0,0,0,.06,1h-.67l-.07-.51h0a1.51,1.51,0,0,1-1.25.61,1.16,1.16,0,0,1-1.25-1.17c0-1,.88-1.53,2.46-1.52V9.62a.84.84,0,0,0-.93-.94,2,2,0,0,0-1.07.3l-.17-.5a2.65,2.65,0,0,1,1.35-.35c1.26,0,1.56.85,1.56,1.67Zm-.73-1.11c-.81,0-1.73.13-1.73.92a.65.65,0,0,0,.69.71,1,1,0,0,0,1-.68.77.77,0,0,0,0-.24Z"/><path class="cls-2" d="M42.83,7.46a.48.48,0,0,1,0-1,.46.46,0,0,1,.47.47.46.46,0,0,1-.48.48Zm-.35,4.84V8.22h.74V12.3Z"/><path class="cls-2" d="M44.41,6.31h.74v6h-.74Z"/><path class="cls-2" d="M49.22,11.32a6.88,6.88,0,0,0,.06,1h-.67l-.07-.51h0a1.51,1.51,0,0,1-1.25.61A1.16,1.16,0,0,1,46,11.22c0-1,.88-1.53,2.46-1.52V9.62a.84.84,0,0,0-.93-.94,2,2,0,0,0-1.07.3l-.17-.5a2.65,2.65,0,0,1,1.35-.35c1.26,0,1.56.85,1.56,1.67Zm-.73-1.11c-.81,0-1.73.13-1.73.92a.65.65,0,0,0,.69.71,1,1,0,0,0,1-.68.76.76,0,0,0,0-.24Z"/><path class="cls-2" d="M50.37,6.31h.74V8.87h0a1.51,1.51,0,0,1,1.39-.74c1,0,1.72.84,1.72,2.08a2,2,0,0,1-1.84,2.19A1.46,1.46,0,0,1,51,11.63h0l0,.68h-.64c0-.28,0-.69,0-1.05Zm.74,4.35a1.34,1.34,0,0,0,0,.27,1.15,1.15,0,0,0,1.11.87c.79,0,1.24-.63,1.24-1.57s-.42-1.53-1.21-1.53a1.18,1.18,0,0,0-1.12.91,1.19,1.19,0,0,0,0,.31Z"/><path class="cls-2" d="M55.13,6.31h.74v6h-.74Z"/><path class="cls-2" d="M57.48,10.38a1.3,1.3,0,0,0,1.39,1.42A2.81,2.81,0,0,0,60,11.6l.13.52a3.32,3.32,0,0,1-1.37.26,1.91,1.91,0,0,1-2-2.06,2,2,0,0,1,1.92-2.21A1.72,1.72,0,0,1,60.37,10a1.91,1.91,0,0,1,0,.35Zm2.17-.53a1.06,1.06,0,0,0-1-1.21,1.23,1.23,0,0,0-1.14,1.21Z"/><path class="cls-2" d="M64.66,12.39a2,2,0,0,1-2-2.1,2,2,0,0,1,2-2.17,1.93,1.93,0,0,1,2,2.09,2,2,0,0,1-2,2.18Zm0-.56c.71,0,1.24-.67,1.24-1.6,0-.69-.35-1.56-1.22-1.56s-1.25.81-1.25,1.59.51,1.57,1.22,1.57Z"/><path class="cls-2" d="M67.58,9.32c0-.43,0-.77,0-1.11h.66l0,.67h0a1.51,1.51,0,0,1,1.35-.76c.57,0,1.44.34,1.44,1.74V12.3h-.74V9.95c0-.66-.24-1.21-.95-1.21a1.07,1.07,0,0,0-1,.76,1.11,1.11,0,0,0-.05.35V12.3h-.74Z"/><path class="cls-2" d="M74.87,7.24v1h1.06v.57H74.87V11c0,.51.14.79.56.79a1.38,1.38,0,0,0,.43-.05l0,.57a2,2,0,0,1-.66.1,1.06,1.06,0,0,1-.8-.31A1.6,1.6,0,0,1,74.14,11V8.78h-.63V8.22h.63V7.46Z"/><path class="cls-2" d="M76.72,6.31h.74V8.86h0A1.32,1.32,0,0,1,78,8.33a1.44,1.44,0,0,1,.76-.21c.55,0,1.43.34,1.43,1.75V12.3h-.74V10c0-.67-.25-1.22-.95-1.22a1.07,1.07,0,0,0-1,.74.9.9,0,0,0-.05.35V12.3h-.74Z"/><path class="cls-2" d="M81.78,10.38a1.3,1.3,0,0,0,1.39,1.42,2.82,2.82,0,0,0,1.13-.2l.13.52a3.33,3.33,0,0,1-1.37.26,1.91,1.91,0,0,1-2-2.06A2,2,0,0,1,83,8.11,1.72,1.72,0,0,1,84.67,10a1.91,1.91,0,0,1,0,.35ZM84,9.85a1.06,1.06,0,0,0-1-1.21,1.22,1.22,0,0,0-1.14,1.21Z"/><path class="cls-2" d="M87.65,7.46a.48.48,0,0,1,0-1,.46.46,0,0,1,.47.47.47.47,0,0,1-.48.48Zm-.36,4.84V8.22H88V12.3Z"/><path class="cls-2" d="M89.25,6.69a7.63,7.63,0,0,1,1.41-.12A2.33,2.33,0,0,1,92.26,7a1.53,1.53,0,0,1,.51,1.19,1.64,1.64,0,0,1-.45,1.21,2.35,2.35,0,0,1-1.74.62A2.58,2.58,0,0,1,90,10V12.3h-.73ZM90,9.42a2.5,2.5,0,0,0,.61.06C91.49,9.48,92,9,92,8.28s-.53-1.12-1.34-1.12a3.64,3.64,0,0,0-.69.06Z"/><path class="cls-2" d="M93.63,6.31h.74V8.86h0a1.32,1.32,0,0,1,.53-.52,1.45,1.45,0,0,1,.76-.21c.55,0,1.43.34,1.43,1.75V12.3h-.74V10c0-.67-.25-1.22-.95-1.22a1.08,1.08,0,0,0-1,.74.9.9,0,0,0-.05.35V12.3h-.74Z"/><path class="cls-2" d="M99.94,12.39a2,2,0,0,1-2-2.1,2,2,0,0,1,2-2.17,1.93,1.93,0,0,1,2,2.09,2,2,0,0,1-2,2.18Zm0-.56c.71,0,1.24-.67,1.24-1.6,0-.69-.35-1.56-1.22-1.56s-1.25.81-1.25,1.59.51,1.57,1.22,1.57Z"/><path class="cls-2" d="M102.86,9.32c0-.43,0-.77,0-1.11h.66l0,.67h0a1.51,1.51,0,0,1,1.35-.76c.57,0,1.44.34,1.44,1.74V12.3h-.74V9.95c0-.66-.25-1.21-.95-1.21a1.07,1.07,0,0,0-1,.76,1.1,1.1,0,0,0-.05.35V12.3h-.74Z"/><path class="cls-2" d="M107.93,10.38a1.3,1.3,0,0,0,1.39,1.42,2.81,2.81,0,0,0,1.13-.2l.14.52a3.33,3.33,0,0,1-1.37.26,1.91,1.91,0,0,1-2-2.06,2,2,0,0,1,1.92-2.21A1.72,1.72,0,0,1,110.81,10a1.92,1.92,0,0,1,0,.35Zm2.17-.53a1.06,1.06,0,0,0-1-1.21,1.22,1.22,0,0,0-1.14,1.21Z"/><path class="cls-2" d="M34.17,16.15l-5,14.73h2.29L33,26.36H37.8l1.54,4.52h2.35l-5-14.73Zm1.19,2.42c.17.66.35,1.34.59,2.08l1.35,3.91H33.45l1.33-3.93C35,20,35.18,19.3,35.36,18.57Z"/><path class="cls-2" d="M48.16,20a4.17,4.17,0,0,0-3.54,1.7l-.09-1.47h-2v.19c.06.91.09,1.92.09,3.36V35.11h2.23v-5.3a3.91,3.91,0,0,0,3,1.31,4.6,4.6,0,0,0,3.38-1.44,6.09,6.09,0,0,0,1.49-4.29,5.93,5.93,0,0,0-1.29-3.91A4.24,4.24,0,0,0,48.16,20Zm-.56,1.84c2,0,2.88,1.84,2.88,3.66,0,2.35-1.13,3.81-3,3.81a2.7,2.7,0,0,1-2.63-2.07,2.85,2.85,0,0,1-.08-.72V24.71a3.33,3.33,0,0,1,.07-.55l0-.18A2.82,2.82,0,0,1,47.61,21.82Z"/><path class="cls-2" d="M59.64,20a4.17,4.17,0,0,0-3.54,1.7L56,20.21H54v.19c.06.91.09,1.92.09,3.36V35.11h2.23v-5.3a3.91,3.91,0,0,0,3,1.31,4.6,4.6,0,0,0,3.38-1.44,6.09,6.09,0,0,0,1.49-4.29,5.93,5.93,0,0,0-1.3-3.91A4.24,4.24,0,0,0,59.64,20Zm-.55,1.84c2,0,2.87,1.84,2.87,3.66,0,2.35-1.13,3.81-3,3.81a2.7,2.7,0,0,1-2.63-2.07,2.86,2.86,0,0,1-.08-.72V24.71a3.23,3.23,0,0,1,.07-.55l0-.18A2.82,2.82,0,0,1,59.08,21.82Z"/><path class="cls-2" d="M74,22.39c-2.08-.81-2.75-1.44-2.75-2.61,0-1,.78-2,2.53-2a5.07,5.07,0,0,1,2.62.66l.19.12.63-1.86-.12-.07a6.45,6.45,0,0,0-3.25-.73C71,15.92,69,17.6,69,20c0,1.94,1.24,3.29,3.91,4.26,1.89.71,2.59,1.43,2.59,2.67,0,1.4-1.09,2.28-2.83,2.28a6.1,6.1,0,0,1-3.21-.91l-.19-.12-.6,1.9.11.07a7.63,7.63,0,0,0,3.77,1c3.83,0,5.19-2.34,5.19-4.34S76.68,23.45,74,22.39Z"/><path class="cls-2" d="M81.78,17.67l-2.19.69v1.85H78V22h1.6v5.46a4.17,4.17,0,0,0,.77,2.83,2.86,2.86,0,0,0,2.16.85,5.24,5.24,0,0,0,1.72-.27l.12,0L84.27,29l-.21.07a3.36,3.36,0,0,1-1,.12c-.86,0-1.23-.55-1.23-1.83V22h2.69V20.21H81.78Z"/><path class="cls-2" d="M90,20c-3.12,0-5.3,2.33-5.3,5.66s2.11,5.49,5.12,5.49h0c2.55,0,5.3-1.78,5.3-5.68a5.63,5.63,0,0,0-1.42-3.94A5,5,0,0,0,90,20Zm-.06,1.76c2,0,2.92,2,2.92,3.77,0,2.23-1.25,3.86-3,3.86h0c-1.69,0-2.92-1.59-2.92-3.79C86.95,23.66,87.87,21.73,89.93,21.73Z"/><path class="cls-2" d="M102,20.07l-.13,0a2.14,2.14,0,0,0-.55-.07,3.18,3.18,0,0,0-2.79,1.79l-.07-1.56h-2v.19c.06.88.08,1.87.08,3.21l0,7.28h2.23V25.2a5.83,5.83,0,0,1,.06-.86,2.46,2.46,0,0,1,2.34-2.25,5.7,5.7,0,0,1,.6,0l.24,0Z"/><path class="cls-2" d="M107,20c-3,0-5,2.37-5,5.76s2.06,5.38,5.25,5.38a8.55,8.55,0,0,0,3.53-.68l.13-.06-.43-1.66-.19.07a6.9,6.9,0,0,1-2.79.5A3.1,3.1,0,0,1,104.11,26l7.19,0,0-.14a4.93,4.93,0,0,0,.07-.93C111.4,22.67,110.24,20,107,20Zm-.15,1.7a2.2,2.2,0,0,1,1.64.62,3.17,3.17,0,0,1,.77,2.07h-5.08A2.84,2.84,0,0,1,106.83,21.65Z"/></g></g></svg>