<svg xmlns="http://www.w3.org/2000/svg" viewBox="0 0 119.31 39.03"><defs><style>.cls-1{fill:#d63c51;}.cls-2,.cls-3,.cls-4,.cls-5{fill:#fff;}.cls-3{opacity:0.75;}.cls-4{opacity:0.85;}.cls-5{opacity:0.9;}</style></defs><title>Recurso 41</title><g id="Capa_2" data-name="Capa 2"><g id="Lightbox"><rect class="cls-1" width="119.31" height="39.03" rx="5.27" ry="5.27"/><path class="cls-2" d="M39.83,9.77H39a5.51,5.51,0,0,0-.24-1h-1.2a5,5,0,0,0-.24,1h-.78q0-.1.61-1.66a13,13,0,0,0,.61-1.72h1a14.31,14.31,0,0,0,.55,1.69,14.87,14.87,0,0,1,.55,1.69m-1.2-1.47a14.66,14.66,0,0,1-.44-1.45h0q0,.1-.46,1.45Z"/><path class="cls-2" d="M43.17,9.77h-.64a6.34,6.34,0,0,0-.71-1.12A6.19,6.19,0,0,1,41,7.18h0a9.23,9.23,0,0,1,.06,1q0,.64,0,1.56h-.64q0-.8,0-1.77t0-1.61h.77a4.89,4.89,0,0,0,.64,1.1,6.46,6.46,0,0,1,.78,1.38h0a9.77,9.77,0,0,1-.06-1q0-.7,0-1.44h.65q0,.64,0,1.61t0,1.77"/><path class="cls-2" d="M46.94,8a1.91,1.91,0,0,1-.47,1.29,1.65,1.65,0,0,1-1.32.55l-1.06,0q0-.78,0-1.77t0-1.61h1.07a1.75,1.75,0,0,1,1.36.47A1.62,1.62,0,0,1,46.94,8m-.71.11a1.25,1.25,0,0,0-.29-.84A1.1,1.1,0,0,0,45,6.9l-.31,0q0,.52,0,1.08t0,1.23a1.74,1.74,0,0,0,.34,0A1,1,0,0,0,46,8.92a1.34,1.34,0,0,0,.27-.84"/><path class="cls-2" d="M50.4,9.77h-.77a5.12,5.12,0,0,0-.46-1.13.6.6,0,0,0-.52-.22h-.29q0,.67,0,1.35h-.72q0-.78,0-1.77t0-1.61H48.9q1.19,0,1.19.82a.91.91,0,0,1-.68.9v0a.81.81,0,0,1,.46.41,9.12,9.12,0,0,1,.53,1.23m-1-2.39q0-.52-.66-.52a2.28,2.28,0,0,0-.43,0q0,.4,0,1h.24q.83,0,.83-.57"/><path class="cls-2" d="M54.12,8a1.86,1.86,0,0,1-.49,1.32,1.58,1.58,0,0,1-1.21.52,1.52,1.52,0,0,1-1.15-.48,1.7,1.7,0,0,1-.46-1.22,1.86,1.86,0,0,1,.49-1.32,1.58,1.58,0,0,1,1.21-.52,1.53,1.53,0,0,1,1.15.48A1.69,1.69,0,0,1,54.12,8m-.72.08a1.34,1.34,0,0,0-.28-.88.86.86,0,0,0-.69-.34.79.79,0,0,0-.64.34,1.36,1.36,0,0,0-.26.86,1.34,1.34,0,0,0,.28.88.85.85,0,0,0,.68.34A.79.79,0,0,0,53.14,9a1.36,1.36,0,0,0,.26-.86"/><path class="cls-2" d="M55.59,9.77h-.73q0-.8,0-1.77t0-1.61h.73q0,.65,0,1.61t0,1.77"/><path class="cls-2" d="M59.35,8a1.92,1.92,0,0,1-.47,1.29,1.65,1.65,0,0,1-1.32.55l-1.06,0q0-.78,0-1.77t0-1.61h1.07a1.75,1.75,0,0,1,1.36.47A1.62,1.62,0,0,1,59.35,8m-.71.11a1.25,1.25,0,0,0-.29-.84,1.1,1.1,0,0,0-.89-.34l-.31,0q0,.52,0,1.08t0,1.23a1.74,1.74,0,0,0,.34,0,1,1,0,0,0,.83-.35,1.34,1.34,0,0,0,.27-.84"/><path class="cls-2" d="M64.34,9.77h-.83a5.5,5.5,0,0,0-.24-1h-1.2a5,5,0,0,0-.24,1h-.78q0-.1.61-1.66a13,13,0,0,0,.61-1.72h1a14.31,14.31,0,0,0,.55,1.69,14.85,14.85,0,0,1,.55,1.69m-1.2-1.47a14.69,14.69,0,0,1-.44-1.45h0a15.17,15.17,0,0,1-.46,1.45Z"/><path class="cls-2" d="M67.37,7.28a1,1,0,0,1-.46.92,2.05,2.05,0,0,1-1.13.3H65.6q0,.49,0,1.29H64.9q0-.75,0-1.77t0-1.61h1.29A1.48,1.48,0,0,1,67,6.6a.75.75,0,0,1,.34.68m-.67.14q0-.56-.74-.56a2.06,2.06,0,0,0-.39,0q0,.49,0,1.11h.15q.95,0,.95-.6"/><path class="cls-2" d="M70.48,7.28A1,1,0,0,1,70,8.2a2.05,2.05,0,0,1-1.13.3h-.17q0,.49,0,1.29H68Q68,9,68,8t0-1.61h1.29a1.48,1.48,0,0,1,.83.22.75.75,0,0,1,.34.68m-.67.14q0-.56-.74-.56a2.06,2.06,0,0,0-.39,0q0,.49,0,1.11h.15q.95,0,.95-.6"/><path class="cls-2" d="M75.57,8a1.86,1.86,0,0,1-.49,1.32,1.58,1.58,0,0,1-1.21.52,1.52,1.52,0,0,1-1.15-.48,1.7,1.7,0,0,1-.46-1.22,1.86,1.86,0,0,1,.49-1.32A1.58,1.58,0,0,1,74,6.32a1.53,1.53,0,0,1,1.15.48A1.69,1.69,0,0,1,75.57,8m-.72.08a1.34,1.34,0,0,0-.28-.88.86.86,0,0,0-.68-.34.79.79,0,0,0-.64.34,1.35,1.35,0,0,0-.26.86,1.33,1.33,0,0,0,.28.88.85.85,0,0,0,.68.34A.79.79,0,0,0,74.59,9a1.36,1.36,0,0,0,.26-.86"/><path class="cls-2" d="M79.08,9.77h-.64a6.35,6.35,0,0,0-.71-1.12,6.19,6.19,0,0,1-.85-1.47h0a9.17,9.17,0,0,1,.06,1q0,.64,0,1.56H76.3q0-.8,0-1.77t0-1.61h.77a4.9,4.9,0,0,0,.64,1.1,6.46,6.46,0,0,1,.78,1.38h0a9.75,9.75,0,0,1-.06-1q0-.7,0-1.44h.65Q79,7,79,8t0,1.77"/><path class="cls-2" d="M59.87,20.55a3.89,3.89,0,1,0,3.9,3.89A3.83,3.83,0,0,0,59.87,20.55Zm0,6.24a2.36,2.36,0,1,1,2.19-2.36A2.25,2.25,0,0,1,59.87,26.8Zm-8.51-6.24a3.89,3.89,0,1,0,3.9,3.89A3.83,3.83,0,0,0,51.36,20.55Zm0,6.24a2.36,2.36,0,1,1,2.19-2.36A2.25,2.25,0,0,1,51.36,26.8ZM41.23,21.75V23.4h3.95a3.44,3.44,0,0,1-.9,2.08,4,4,0,0,1-3,1.21,4.39,4.39,0,0,1,0-8.78,4.21,4.21,0,0,1,3,1.18l1.16-1.16a5.75,5.75,0,0,0-4.14-1.66,6,6,0,1,0,0,12.08,5.52,5.52,0,0,0,4.21-1.69,5.45,5.45,0,0,0,1.43-3.86,5.37,5.37,0,0,0-.09-1ZM82.65,23a3.61,3.61,0,0,0-3.33-2.47,3.69,3.69,0,0,0-3.67,3.89,3.8,3.8,0,0,0,3.86,3.89,3.87,3.87,0,0,0,3.24-1.72l-1.33-.88a2.22,2.22,0,0,1-1.91,1.08,2,2,0,0,1-1.89-1.18l5.2-2.15Zm-5.3,1.3a2.13,2.13,0,0,1,2-2.27,1.51,1.51,0,0,1,1.44.82Zm-4.23,3.77h1.71V16.67H73.12Zm-2.8-6.67h-.06a2.69,2.69,0,0,0-2-.87,3.89,3.89,0,0,0,0,7.78,2.65,2.65,0,0,0,2-.88h.06V28c0,1.49-.8,2.28-2.08,2.28a2.15,2.15,0,0,1-2-1.38l-1.49.62a3.71,3.71,0,0,0,3.45,2.3c2,0,3.7-1.18,3.7-4v-7H70.32Zm-2,5.38a2.36,2.36,0,0,1,0-4.71,2.19,2.19,0,0,1,2.08,2.37A2.17,2.17,0,0,1,68.36,26.8ZM90.65,16.67H86.56V28.09h1.71V23.76h2.38a3.55,3.55,0,1,0,0-7.1Zm0,5.51H88.27V18.26H90.7a2,2,0,1,1,0,3.92Zm10.54-1.64a3.2,3.2,0,0,0-3,1.75l1.51.63a1.62,1.62,0,0,1,1.56-.84,1.64,1.64,0,0,1,1.79,1.47v.12a3.77,3.77,0,0,0-1.78-.44c-1.63,0-3.29.9-3.29,2.57a2.64,2.64,0,0,0,2.84,2.51A2.41,2.41,0,0,0,103,27.19h.06v.88h1.65V23.69C104.71,21.66,103.19,20.53,101.24,20.53ZM101,26.8c-.56,0-1.34-.28-1.34-1,0-.88,1-1.22,1.81-1.22a3,3,0,0,1,1.56.38A2.07,2.07,0,0,1,101,26.8Zm9.67-6-2,5h-.06l-2-5h-1.84l3,6.92-1.73,3.85h1.78l4.69-10.78ZM95.34,28.09H97V16.67H95.34Z"/><path class="cls-2" d="M7.13,7.57A1.83,1.83,0,0,0,6.7,8.85v20.2a1.83,1.83,0,0,0,.42,1.28l.07.07L18.51,19.09v-.27L7.19,7.5Z"/><path class="cls-3" d="M22.28,22.86l-3.77-3.77v-.27L22.28,15l.09,0,4.47,2.54c1.28.73,1.28,1.91,0,2.64l-4.47,2.54Z"/><path class="cls-4" d="M22.37,22.81,18.51,19,7.13,30.34a1.49,1.49,0,0,0,1.9.06l13.34-7.58"/><path class="cls-5" d="M22.37,15.09,9,7.51a1.49,1.49,0,0,0-1.9.06L18.51,19Z"/></g></g></svg>