<svg id="" class="semaforo" data-name="Capa 1" xmlns="http://www.w3.org/2000/svg" viewBox="0 0 50.06 139.77"><defs><style>.cls-1-semaforo{fill:#655b6a;}.cls-2-semaforo{fill:#7b6f76;}.cls-3-semaforo{fill:#96c7a1;}.cls-4-semaforo{fill:#c27275;}.cls-5-semaforo{fill:#e0c754;}</style></defs><title>muñeco1</title><path class="cls-1-semaforo" d="M18.93,19.18V8.48A.52.52,0,0,0,18.41,8H15.24a.52.52,0,0,0-.52.52v85a1.4,1.4,0,0,1,.39-.06h1.71v33.68H12.62l-4.21,2.81v2.81H25.25v-2.81L21,127.05h0V99L19.9,94.44a1.4,1.4,0,0,0-1-1V19.18Z"/><path class="cls-2-semaforo" d="M16.83,93.37H15.12a1.43,1.43,0,0,0-1.36,1.06L12.62,99v28.07h4.21V93.37Z"/><path class="cls-1-semaforo" d="M40.35,8H24.18a1,1,0,0,0-1,1V51.82a1,1,0,0,0,1,1H40.35a1,1,0,0,0,1-1V9A1,1,0,0,0,40.35,8Zm-8.08,40.7a4.91,4.91,0,1,1,4.91-4.91A4.91,4.91,0,0,1,32.26,48.65Zm0-13.33a4.91,4.91,0,1,1,4.91-4.91A4.91,4.91,0,0,1,32.26,35.32Zm0-13.33a4.91,4.91,0,1,1,4.91-4.91A4.91,4.91,0,0,1,32.26,22Z"/><circle class="cls-3-semaforo verde" cx="32.26" cy="43.74" r="4.91"/><circle class="cls-4-semaforo rojo" cx="32.26" cy="17.08" r="4.91"/><circle class="cls-5-semaforo amarillo" cx="32.26" cy="30.41" r="4.91"/><rect class="cls-2-semaforo" x="18.93" y="40.94" width="4.21" height="4.21"/><rect class="cls-2-semaforo" x="18.93" y="14.97" width="4.21" height="4.21"/></svg>